<svg width="125" height="40" viewBox="0 0 125 40" fill="none" xmlns="http://www.w3.org/2000/svg">
<g clip-path="url(#clip0_257_3260)">
<path d="M42.912 19.76C42.8758 18.867 43.0167 17.9757 43.3268 17.1375C43.6368 16.2993 44.1097 15.5308 44.7183 14.8763C45.3268 14.2218 46.0589 13.6943 46.8724 13.3242C47.6859 12.9541 48.5646 12.7487 49.4578 12.72H49.7354C53.1877 12.72 55.2252 14.7507 55.8277 17.1267L53.6818 17.8443C53.489 16.9589 52.9844 16.1723 52.2599 15.628C51.5354 15.0837 50.6394 14.818 49.7354 14.8794C47.5015 14.8794 45.2609 16.5107 45.2609 19.8006C45.2609 23.0904 47.4474 24.6609 49.7624 24.6609C50.671 24.6857 51.5616 24.4051 52.2918 23.8639C53.022 23.3227 53.5496 22.5522 53.7901 21.6757L55.8954 22.3526C55.532 23.6896 54.7237 24.8629 53.6038 25.6788C52.484 26.4947 51.1194 26.9045 49.7354 26.8406C47.9573 26.8732 46.239 26.1985 44.9582 24.9647C43.6775 23.7308 42.939 22.039 42.9052 20.2609C42.8984 20.0984 42.9052 19.9292 42.912 19.76Z" fill="#AABDC6"/>
<path d="M60.0719 26.5288H57.8516V12.679H60.0719V18.0943C60.3943 17.712 60.7996 17.4084 61.2572 17.2066C61.7147 17.0048 62.2123 16.9102 62.7119 16.93C65.0067 16.93 66.0965 18.575 66.0965 20.626V26.5288H63.9575V21.0186C64.0216 20.5489 63.8985 20.0728 63.6149 19.693C63.3313 19.3131 62.9097 19.0599 62.4412 18.9879C62.3084 18.9743 62.1746 18.9743 62.0418 18.9879C61.5283 18.9879 61.0359 19.1918 60.6728 19.5549C60.3098 19.918 60.1058 20.4104 60.1058 20.9239C60.1024 20.9802 60.1024 21.0367 60.1058 21.0931L60.0719 26.5288Z" fill="#AABDC6"/>
<path d="M71.0787 21.1946L73.4615 20.8223C74.003 20.7546 74.1384 20.4771 74.1384 20.1454C74.1384 19.3602 73.6104 18.7306 72.3784 18.7306C71.9131 18.693 71.4518 18.8403 71.0944 19.1407C70.7371 19.441 70.5125 19.8701 70.4695 20.3349V20.4365L68.4387 19.9829C68.608 18.3718 70.0701 16.9368 72.3581 16.9368C75.2283 16.9368 76.3181 18.5614 76.3181 20.4568V25.0802C76.3158 25.5811 76.3543 26.0814 76.4332 26.5762H74.4024C74.3292 26.1835 74.2997 25.7839 74.3144 25.3848C74.0062 25.8592 73.579 26.2444 73.0753 26.5022C72.5717 26.7599 72.0093 26.8811 71.4443 26.8537C70.6725 26.9174 69.9069 26.6724 69.3156 26.1724C68.7242 25.6724 68.3553 24.9583 68.2898 24.1866C68.2898 24.1392 68.2898 24.0918 68.2898 24.0512C68.256 22.3386 69.4812 21.418 71.0787 21.1946ZM74.152 22.6906V22.2642L71.7218 22.6297C71.3919 22.6402 71.0788 22.7777 70.848 23.0136C70.6171 23.2495 70.4864 23.5655 70.483 23.8955C70.4856 24.0591 70.5208 24.2205 70.5864 24.3703C70.6521 24.5201 70.7469 24.6554 70.8653 24.7682C70.9838 24.8809 71.1235 24.969 71.2764 25.0272C71.4293 25.0854 71.5922 25.1126 71.7557 25.1072H71.8572C72.1343 25.1362 72.4144 25.1101 72.6813 25.0304C72.9482 24.9507 73.1968 24.819 73.4126 24.6428C73.6284 24.4666 73.8072 24.2495 73.9388 24.0039C74.0703 23.7583 74.152 23.4891 74.179 23.2118C74.1887 23.0374 74.1773 22.8624 74.1452 22.6906H74.152Z" fill="#AABDC6"/>
<path d="M80.0924 12.4903C80.2832 12.4877 80.4727 12.5227 80.6499 12.5935C80.8271 12.6642 80.9886 12.7693 81.1251 12.9026C81.2616 13.036 81.3704 13.195 81.4453 13.3705C81.5201 13.546 81.5596 13.7346 81.5614 13.9254C81.5613 14.2111 81.4769 14.4903 81.3186 14.7281C81.1603 14.9658 80.9352 15.1515 80.6717 15.2617C80.4082 15.3719 80.118 15.4018 79.8375 15.3475C79.5571 15.2932 79.2989 15.1573 79.0956 14.9567C78.8922 14.7561 78.7526 14.4999 78.6945 14.2203C78.6363 13.9406 78.6621 13.65 78.7687 13.385C78.8752 13.12 79.0577 12.8923 79.2932 12.7308C79.5288 12.5692 79.8068 12.4808 80.0924 12.4768V12.4903ZM79.0094 26.5703V17.2153H81.2297V26.5297L79.0094 26.5703Z" fill="#AABDC6"/>
<path d="M86.2878 26.5296H84.0743V17.2152H86.2337V18.4539C86.5152 17.9783 86.9195 17.5871 87.4043 17.3215C87.889 17.0559 88.4363 16.9256 88.9887 16.9444C91.2632 16.9444 92.3734 18.5893 92.3734 20.6404V26.5296H90.1598V21.0195C90.1598 19.8755 89.6386 18.9481 88.2441 18.9481C87.9863 18.9499 87.7314 19.0024 87.4939 19.1027C87.2564 19.203 87.041 19.3491 86.86 19.5326C86.6789 19.7162 86.5358 19.9336 86.4388 20.1724C86.3418 20.4113 86.2928 20.6669 86.2946 20.9247C86.2946 20.9992 86.2946 21.0736 86.2946 21.1481L86.2878 26.5296Z" fill="#AABDC6"/>
<path d="M95.0547 26.5288V12.679H97.2751V26.5288H95.0547Z" fill="#AABDC6"/>
<path d="M101.232 12.4895C101.518 12.4882 101.797 12.5718 102.036 12.7297C102.274 12.8876 102.46 13.1127 102.57 13.3765C102.68 13.6402 102.709 13.9307 102.653 14.211C102.598 14.4913 102.46 14.7488 102.258 14.9509C102.056 15.1529 101.799 15.2904 101.518 15.3458C101.238 15.4012 100.948 15.3721 100.684 15.2621C100.42 15.1522 100.195 14.9663 100.037 14.7282C99.8792 14.49 99.7956 14.2103 99.797 13.9246C99.8005 13.5451 99.9528 13.1821 100.221 12.9137C100.49 12.6454 100.853 12.493 101.232 12.4895ZM100.142 26.5695V17.2144H102.342V26.5289L100.142 26.5695Z" fill="#AABDC6"/>
<path d="M107.435 26.5295H105.215V17.215H107.374V18.4538C107.656 17.9786 108.061 17.5879 108.545 17.3223C109.03 17.0568 109.577 16.9262 110.129 16.9443C112.404 16.9443 113.514 18.5892 113.514 20.6403V26.5295H111.294V21.0193C111.358 20.5496 111.235 20.0735 110.951 19.6937C110.667 19.3138 110.246 19.0606 109.777 18.9886C109.642 18.975 109.506 18.975 109.371 18.9886C108.854 18.9939 108.36 19.2031 107.996 19.5707C107.632 19.9383 107.428 20.4345 107.428 20.9517C107.422 21.0305 107.422 21.1098 107.428 21.1886L107.435 26.5295Z" fill="#AABDC6"/>
<path d="M121.088 21.1473L124.994 26.5626H122.286L119.578 22.7245L118.434 23.9294V26.5288H116.234V12.679H118.434V20.978L122.009 17.2143H124.953L121.088 21.1473Z" fill="#AABDC6"/>
<path d="M16.6253 8.92898L26.2241 14.4391V25.5136L16.6524 31.0576L7.06037 25.561V14.4933L16.6253 8.92898ZM16.6253 0.805908L13.1053 2.83668L3.52006 8.40098L6.10352e-05 10.4318V29.6361L3.52006 31.6668L13.1188 37.177L16.6388 39.2078L20.1588 37.177L29.7238 31.6262L33.2438 29.5954V10.3641L29.7238 8.33329L20.1318 2.83668L16.6118 0.805908H16.6253Z" fill="#AABDC6"/>
</g>
<defs>
<clipPath id="clip0_257_3260">
<rect width="124.994" height="38.3883" fill="white" transform="translate(0 0.805908)"/>
</clipPath>
</defs>
</svg>
