<?xml version="1.0" encoding="UTF-8"?>
<svg width="300px" height="300px" viewBox="0 0 300 300" xmlns="http://www.w3.org/2000/svg" xmlns:xlink="http://www.w3.org/1999/xlink" version="1.1">
 <!-- Generated by Pixelmator Pro 2.3 -->
 <g id="group">
  <path id="Path" d="M150 299.97 C232.827 299.97 300 232.797 300 149.97 300 67.143 232.827 0.03 150 0.03 67.173 0.03 0 67.143 0 150.03 0 232.857 67.173 299.97 150 299.97 Z" fill="#070a0e" fill-opacity="1" stroke="none"/>
  <path id="Path-1" d="M86.665 200.29 C82.167 197.531 79.408 192.673 79.408 187.395 L79.408 158.067 C79.408 156.927 79.708 155.848 80.248 154.888 81.987 151.889 85.886 150.87 88.884 152.609 L155.038 191.173 C158.876 193.453 161.276 197.591 161.276 202.029 L161.276 232.377 C161.276 233.756 160.916 235.136 160.196 236.335 158.037 239.874 153.359 241.014 149.82 238.854 Z M185.266 144.632 C189.104 146.911 191.503 151.05 191.503 155.488 L191.503 217.083 C191.503 218.882 190.544 220.562 188.924 221.461 L174.47 229.678 C174.29 229.798 174.11 229.858 173.87 229.918 L173.87 195.732 C173.87 191.293 171.531 187.215 167.753 184.936 L109.696 150.21 109.696 111.525 C109.696 110.386 109.996 109.306 110.536 108.347 112.275 105.348 116.174 104.328 119.172 106.068 Z M214.174 99.17 C218.073 101.389 220.472 105.588 220.472 110.086 L220.472 200.05 C220.472 201.909 219.452 203.589 217.833 204.488 L204.098 211.925 204.098 149.25 C204.098 144.812 201.759 140.734 197.981 138.455 L138.605 102.829 138.605 66.184 C138.605 65.044 138.904 63.964 139.444 63.005 141.184 60.006 145.082 58.986 148.081 60.726 Z" fill="#00d395" fill-opacity="1" stroke="none"/>
 </g>
</svg>
