<svg width="337" height="292" viewBox="0 0 337 292" fill="none" xmlns="http://www.w3.org/2000/svg">
<path d="M15.571 7.27273H16.892V13.0128C16.892 13.6236 16.7486 14.1648 16.4616 14.6364C16.1747 15.1051 15.7713 15.4744 15.2514 15.7443C14.7315 16.0114 14.1222 16.1449 13.4233 16.1449C12.7273 16.1449 12.1193 16.0114 11.5994 15.7443C11.0795 15.4744 10.6761 15.1051 10.3892 14.6364C10.1023 14.1648 9.95881 13.6236 9.95881 13.0128V7.27273H11.2756V12.9062C11.2756 13.3011 11.3622 13.652 11.5355 13.9588C11.7116 14.2656 11.9602 14.5071 12.2812 14.6832C12.6023 14.8565 12.983 14.9432 13.4233 14.9432C13.8665 14.9432 14.2486 14.8565 14.5696 14.6832C14.8935 14.5071 15.1406 14.2656 15.3111 13.9588C15.4844 13.652 15.571 13.3011 15.571 12.9062V7.27273ZM23.3264 9.56534C23.281 9.16193 23.0935 8.84943 22.7639 8.62784C22.4344 8.40341 22.0196 8.29119 21.5196 8.29119C21.1616 8.29119 20.852 8.34801 20.5906 8.46165C20.3292 8.57244 20.1261 8.72585 19.9812 8.92188C19.8392 9.11506 19.7682 9.33523 19.7682 9.58239C19.7682 9.78977 19.8165 9.96875 19.9131 10.1193C20.0125 10.2699 20.1417 10.3963 20.3008 10.4986C20.4628 10.598 20.6361 10.6818 20.8207 10.75C21.0054 10.8153 21.1829 10.8693 21.3534 10.9119L22.2057 11.1335C22.4841 11.2017 22.7696 11.294 23.0622 11.4105C23.3548 11.527 23.6261 11.6804 23.8761 11.8707C24.1261 12.0611 24.3278 12.2969 24.4812 12.5781C24.6375 12.8594 24.7156 13.196 24.7156 13.5881C24.7156 14.0824 24.5878 14.5213 24.3321 14.9048C24.0792 15.2884 23.7114 15.5909 23.2284 15.8125C22.7483 16.0341 22.1673 16.1449 21.4855 16.1449C20.8321 16.1449 20.2667 16.0412 19.7895 15.8338C19.3122 15.6264 18.9386 15.3324 18.6687 14.9517C18.3988 14.5682 18.2497 14.1136 18.2213 13.5881H19.5423C19.5679 13.9034 19.6702 14.1662 19.8491 14.3764C20.031 14.5838 20.2625 14.7386 20.5437 14.8409C20.8278 14.9403 21.1389 14.9901 21.477 14.9901C21.8491 14.9901 22.1801 14.9318 22.4699 14.8153C22.7625 14.696 22.9926 14.5312 23.1602 14.321C23.3278 14.108 23.4116 13.8594 23.4116 13.5753C23.4116 13.3168 23.3378 13.1051 23.19 12.9403C23.0452 12.7756 22.8477 12.6392 22.5977 12.5312C22.3506 12.4233 22.0707 12.3281 21.7582 12.2457L20.727 11.9645C20.0281 11.7741 19.4741 11.4943 19.065 11.125C18.6588 10.7557 18.4557 10.267 18.4557 9.65909C18.4557 9.15625 18.592 8.71733 18.8648 8.34233C19.1375 7.96733 19.5068 7.67614 19.9727 7.46875C20.4386 7.25852 20.9642 7.15341 21.5494 7.15341C22.1403 7.15341 22.6616 7.2571 23.1133 7.46449C23.5679 7.67188 23.9258 7.95739 24.1872 8.32102C24.4486 8.68182 24.5849 9.09659 24.5963 9.56534H23.3264ZM26.0491 16V7.27273H31.5207V8.40625H27.3659V11.0653H31.2352V12.1946H27.3659V14.8665H31.5718V16H26.0491ZM33.0396 16V7.27273H36.1504C36.8265 7.27273 37.3876 7.3892 37.8336 7.62216C38.2825 7.85511 38.6177 8.17756 38.8393 8.58949C39.0609 8.99858 39.1717 9.47159 39.1717 10.0085C39.1717 10.5426 39.0595 11.0128 38.835 11.419C38.6135 11.8224 38.2782 12.1364 37.8294 12.3608C37.3833 12.5852 36.8223 12.6974 36.1461 12.6974H33.7896V11.5639H36.0268C36.4529 11.5639 36.7995 11.5028 37.0666 11.3807C37.3365 11.2585 37.5339 11.081 37.6589 10.848C37.7839 10.6151 37.8464 10.3352 37.8464 10.0085C37.8464 9.67898 37.7825 9.39347 37.6546 9.15199C37.5296 8.91051 37.3322 8.72585 37.0623 8.59801C36.7953 8.46733 36.4444 8.40199 36.0098 8.40199H34.3564V16H33.0396ZM37.3478 12.0625L39.5041 16H38.0041L35.8904 12.0625H37.3478Z" fill="#AABDC6"/>
<rect x="1" y="1" width="90" height="44" stroke="#AABDC6"/>
<path d="M259.719 13.5653C259.673 13.1619 259.486 12.8494 259.156 12.6278C258.827 12.4034 258.412 12.2912 257.912 12.2912C257.554 12.2912 257.244 12.348 256.983 12.4616C256.722 12.5724 256.518 12.7259 256.374 12.9219C256.232 13.1151 256.161 13.3352 256.161 13.5824C256.161 13.7898 256.209 13.9687 256.305 14.1193C256.405 14.2699 256.534 14.3963 256.693 14.4986C256.855 14.598 257.028 14.6818 257.213 14.75C257.398 14.8153 257.575 14.8693 257.746 14.9119L258.598 15.1335C258.876 15.2017 259.162 15.294 259.455 15.4105C259.747 15.527 260.018 15.6804 260.268 15.8707C260.518 16.0611 260.72 16.2969 260.874 16.5781C261.03 16.8594 261.108 17.196 261.108 17.5881C261.108 18.0824 260.98 18.5213 260.724 18.9048C260.472 19.2884 260.104 19.5909 259.621 19.8125C259.141 20.0341 258.56 20.1449 257.878 20.1449C257.224 20.1449 256.659 20.0412 256.182 19.8338C255.705 19.6264 255.331 19.3324 255.061 18.9517C254.791 18.5682 254.642 18.1136 254.614 17.5881H255.935C255.96 17.9034 256.063 18.1662 256.241 18.3764C256.423 18.5838 256.655 18.7386 256.936 18.8409C257.22 18.9403 257.531 18.9901 257.869 18.9901C258.241 18.9901 258.572 18.9318 258.862 18.8153C259.155 18.696 259.385 18.5312 259.553 18.321C259.72 18.108 259.804 17.8594 259.804 17.5753C259.804 17.3168 259.73 17.1051 259.582 16.9403C259.438 16.7756 259.24 16.6392 258.99 16.5312C258.743 16.4233 258.463 16.3281 258.151 16.2457L257.119 15.9645C256.42 15.7741 255.866 15.4943 255.457 15.125C255.051 14.7557 254.848 14.267 254.848 13.6591C254.848 13.1562 254.984 12.7173 255.257 12.3423C255.53 11.9673 255.899 11.6761 256.365 11.4688C256.831 11.2585 257.357 11.1534 257.942 11.1534C258.533 11.1534 259.054 11.2571 259.506 11.4645C259.96 11.6719 260.318 11.9574 260.58 12.321C260.841 12.6818 260.977 13.0966 260.989 13.5653H259.719ZM262.011 12.4062V11.2727H268.765V12.4062H266.042V20H264.73V12.4062H262.011ZM277.224 15.6364C277.224 16.5682 277.053 17.3693 276.712 18.0398C276.372 18.7074 275.904 19.2216 275.31 19.5824C274.72 19.9403 274.048 20.1193 273.295 20.1193C272.539 20.1193 271.864 19.9403 271.271 19.5824C270.68 19.2216 270.214 18.706 269.873 18.0355C269.532 17.3651 269.362 16.5653 269.362 15.6364C269.362 14.7045 269.532 13.9048 269.873 13.2372C270.214 12.5668 270.68 12.0526 271.271 11.6946C271.864 11.3338 272.539 11.1534 273.295 11.1534C274.048 11.1534 274.72 11.3338 275.31 11.6946C275.904 12.0526 276.372 12.5668 276.712 13.2372C277.053 13.9048 277.224 14.7045 277.224 15.6364ZM275.92 15.6364C275.92 14.9261 275.805 14.3281 275.575 13.8423C275.347 13.3537 275.035 12.9844 274.637 12.7344C274.242 12.4815 273.795 12.3551 273.295 12.3551C272.792 12.3551 272.343 12.4815 271.948 12.7344C271.553 12.9844 271.241 13.3537 271.011 13.8423C270.783 14.3281 270.67 14.9261 270.67 15.6364C270.67 16.3466 270.783 16.946 271.011 17.4347C271.241 17.9205 271.553 18.2898 271.948 18.5426C272.343 18.7926 272.792 18.9176 273.295 18.9176C273.795 18.9176 274.242 18.7926 274.637 18.5426C275.035 18.2898 275.347 17.9205 275.575 17.4347C275.805 16.946 275.92 16.3466 275.92 15.6364ZM278.626 20V11.2727H281.736C282.412 11.2727 282.974 11.3892 283.42 11.6222C283.868 11.8551 284.204 12.1776 284.425 12.5895C284.647 12.9986 284.758 13.4716 284.758 14.0085C284.758 14.5426 284.645 15.0128 284.421 15.419C284.199 15.8224 283.864 16.1364 283.415 16.3608C282.969 16.5852 282.408 16.6974 281.732 16.6974H279.376V15.5639H281.613C282.039 15.5639 282.385 15.5028 282.653 15.3807C282.922 15.2585 283.12 15.081 283.245 14.848C283.37 14.6151 283.432 14.3352 283.432 14.0085C283.432 13.679 283.368 13.3935 283.241 13.152C283.116 12.9105 282.918 12.7259 282.648 12.598C282.381 12.4673 282.03 12.402 281.596 12.402H279.942V20H278.626ZM282.934 16.0625L285.09 20H283.59L281.476 16.0625H282.934ZM286.857 20H285.459L288.6 11.2727H290.121L293.262 20H291.864L289.397 12.858H289.329L286.857 20ZM287.091 16.5824H291.626V17.6903H287.091V16.5824ZM299.778 14.0298C299.696 13.7713 299.585 13.5398 299.446 13.3352C299.31 13.1278 299.146 12.9517 298.956 12.8068C298.766 12.6591 298.548 12.5469 298.304 12.4702C298.062 12.3935 297.797 12.3551 297.507 12.3551C297.016 12.3551 296.572 12.4815 296.177 12.7344C295.783 12.9872 295.47 13.358 295.24 13.8466C295.013 14.3324 294.899 14.9276 294.899 15.6321C294.899 16.3395 295.014 16.9375 295.244 17.4261C295.474 17.9148 295.79 18.2855 296.19 18.5384C296.591 18.7912 297.047 18.9176 297.558 18.9176C298.033 18.9176 298.446 18.821 298.798 18.6278C299.153 18.4347 299.427 18.1619 299.621 17.8097C299.817 17.4545 299.915 17.0369 299.915 16.5568L300.256 16.6207H297.758V15.5341H301.189V16.527C301.189 17.2599 301.033 17.8963 300.72 18.4361C300.41 18.973 299.981 19.3878 299.433 19.6804C298.888 19.973 298.263 20.1193 297.558 20.1193C296.768 20.1193 296.075 19.9375 295.479 19.5739C294.885 19.2102 294.422 18.6946 294.089 18.027C293.757 17.3565 293.591 16.5611 293.591 15.6406C293.591 14.9446 293.687 14.3196 293.881 13.7656C294.074 13.2116 294.345 12.7415 294.695 12.3551C295.047 11.9659 295.46 11.669 295.935 11.4645C296.412 11.2571 296.933 11.1534 297.499 11.1534C297.97 11.1534 298.409 11.223 298.815 11.3622C299.224 11.5014 299.588 11.6989 299.906 11.9545C300.227 12.2102 300.493 12.5142 300.703 12.8665C300.913 13.2159 301.055 13.6037 301.129 14.0298H299.778ZM302.62 20V11.2727H308.092V12.4062H303.937V15.0653H307.806V16.1946H303.937V18.8665H308.143V20H302.62ZM254.959 34V25.2727H258.07C258.749 25.2727 259.311 25.3963 259.757 25.6435C260.203 25.8906 260.537 26.2287 260.759 26.6577C260.98 27.0838 261.091 27.5639 261.091 28.098C261.091 28.6349 260.979 29.1179 260.754 29.5469C260.533 29.973 260.197 30.3111 259.749 30.5611C259.303 30.8082 258.741 30.9318 258.065 30.9318H255.926V29.8153H257.946C258.375 29.8153 258.723 29.7415 258.99 29.5938C259.257 29.4432 259.453 29.2386 259.578 28.9801C259.703 28.7216 259.766 28.4276 259.766 28.098C259.766 27.7685 259.703 27.4759 259.578 27.2202C259.453 26.9645 259.256 26.7642 258.986 26.6193C258.719 26.4744 258.366 26.402 257.929 26.402H256.276V34H254.959ZM262.395 34V25.2727H265.505C266.182 25.2727 266.743 25.3892 267.189 25.6222C267.637 25.8551 267.973 26.1776 268.194 26.5895C268.416 26.9986 268.527 27.4716 268.527 28.0085C268.527 28.5426 268.414 29.0128 268.19 29.419C267.968 29.8224 267.633 30.1364 267.184 30.3608C266.738 30.5852 266.177 30.6974 265.501 30.6974H263.145V29.5639H265.382C265.808 29.5639 266.155 29.5028 266.422 29.3807C266.691 29.2585 266.889 29.081 267.014 28.848C267.139 28.6151 267.201 28.3352 267.201 28.0085C267.201 27.679 267.137 27.3935 267.01 27.152C266.885 26.9105 266.687 26.7259 266.417 26.598C266.15 26.4673 265.799 26.402 265.365 26.402H263.711V34H262.395ZM266.703 30.0625L268.859 34H267.359L265.245 30.0625H266.703ZM277.47 29.6364C277.47 30.5682 277.299 31.3693 276.959 32.0398C276.618 32.7074 276.15 33.2216 275.557 33.5824C274.966 33.9403 274.294 34.1193 273.541 34.1193C272.785 34.1193 272.111 33.9403 271.517 33.5824C270.926 33.2216 270.46 32.706 270.119 32.0355C269.778 31.3651 269.608 30.5653 269.608 29.6364C269.608 28.7045 269.778 27.9048 270.119 27.2372C270.46 26.5668 270.926 26.0526 271.517 25.6946C272.111 25.3338 272.785 25.1534 273.541 25.1534C274.294 25.1534 274.966 25.3338 275.557 25.6946C276.15 26.0526 276.618 26.5668 276.959 27.2372C277.299 27.9048 277.47 28.7045 277.47 29.6364ZM276.166 29.6364C276.166 28.9261 276.051 28.3281 275.821 27.8423C275.594 27.3537 275.281 26.9844 274.883 26.7344C274.488 26.4815 274.041 26.3551 273.541 26.3551C273.038 26.3551 272.589 26.4815 272.194 26.7344C271.799 26.9844 271.487 27.3537 271.257 27.8423C271.03 28.3281 270.916 28.9261 270.916 29.6364C270.916 30.3466 271.03 30.946 271.257 31.4347C271.487 31.9205 271.799 32.2898 272.194 32.5426C272.589 32.7926 273.038 32.9176 273.541 32.9176C274.041 32.9176 274.488 32.7926 274.883 32.5426C275.281 32.2898 275.594 31.9205 275.821 31.4347C276.051 30.946 276.166 30.3466 276.166 29.6364ZM279.201 25.2727L281.63 32.3807H281.728L284.157 25.2727H285.58L282.439 34H280.918L277.778 25.2727H279.201ZM287.917 25.2727V34H286.6V25.2727H287.917ZM292.42 34H289.595V25.2727H292.51C293.365 25.2727 294.099 25.4474 294.713 25.7969C295.326 26.1435 295.796 26.642 296.123 27.2926C296.453 27.9403 296.617 28.7173 296.617 29.6236C296.617 30.5327 296.451 31.3139 296.119 31.9673C295.789 32.6207 295.312 33.1236 294.687 33.4759C294.062 33.8253 293.306 34 292.42 34ZM290.912 32.8494H292.348C293.012 32.8494 293.565 32.7244 294.005 32.4744C294.446 32.2216 294.775 31.8565 294.994 31.3793C295.213 30.8991 295.322 30.3139 295.322 29.6236C295.322 28.9389 295.213 28.358 294.994 27.8807C294.778 27.4034 294.456 27.0412 294.027 26.794C293.598 26.5469 293.065 26.4233 292.429 26.4233H290.912V32.8494ZM298.015 34V25.2727H303.486V26.4062H299.332V29.0653H303.201V30.1946H299.332V32.8665H303.538V34H298.015ZM305.005 34V25.2727H308.116C308.792 25.2727 309.353 25.3892 309.799 25.6222C310.248 25.8551 310.583 26.1776 310.805 26.5895C311.027 26.9986 311.137 27.4716 311.137 28.0085C311.137 28.5426 311.025 29.0128 310.801 29.419C310.579 29.8224 310.244 30.1364 309.795 30.3608C309.349 30.5852 308.788 30.6974 308.112 30.6974H305.755V29.5639H307.993C308.419 29.5639 308.765 29.5028 309.032 29.3807C309.302 29.2585 309.5 29.081 309.625 28.848C309.75 28.6151 309.812 28.3352 309.812 28.0085C309.812 27.679 309.748 27.3935 309.62 27.152C309.495 26.9105 309.298 26.7259 309.028 26.598C308.761 26.4673 308.41 26.402 307.976 26.402H306.322V34H305.005ZM309.314 30.0625L311.47 34H309.97L307.856 30.0625H309.314Z" fill="#AABDC6"/>
<rect x="246" y="1" width="90" height="82" stroke="#AABDC6"/>
<path d="M132.959 16V7.27273H136.155C136.774 7.27273 137.287 7.375 137.693 7.57955C138.099 7.78125 138.403 8.0554 138.605 8.40199C138.807 8.74574 138.908 9.13352 138.908 9.56534C138.908 9.92898 138.841 10.2358 138.707 10.4858C138.574 10.733 138.395 10.9318 138.17 11.0824C137.949 11.2301 137.705 11.3381 137.438 11.4062V11.4915C137.727 11.5057 138.01 11.5994 138.286 11.7727C138.564 11.9432 138.794 12.1861 138.976 12.5014C139.158 12.8168 139.249 13.2003 139.249 13.652C139.249 14.098 139.143 14.4986 138.933 14.8537C138.726 15.206 138.405 15.4858 137.97 15.6932C137.536 15.8977 136.98 16 136.304 16H132.959ZM134.276 14.8707H136.176C136.807 14.8707 137.259 14.7486 137.531 14.5043C137.804 14.2599 137.94 13.9545 137.94 13.5881C137.94 13.3125 137.871 13.0597 137.732 12.8295C137.592 12.5994 137.393 12.4162 137.135 12.2798C136.879 12.1435 136.575 12.0753 136.223 12.0753H134.276V14.8707ZM134.276 11.0483H136.04C136.335 11.0483 136.601 10.9915 136.837 10.8778C137.075 10.7642 137.264 10.6051 137.403 10.4006C137.545 10.1932 137.616 9.94886 137.616 9.66761C137.616 9.30682 137.49 9.00426 137.237 8.75994C136.984 8.51562 136.597 8.39347 136.074 8.39347H134.276V11.0483ZM141.308 16H139.91L143.05 7.27273H144.572L147.712 16H146.315L143.847 8.85795H143.779L141.308 16ZM141.542 12.5824H146.076V13.6903H141.542V12.5824ZM155.777 7.27273V16H154.567L150.13 9.59943H150.049V16H148.733V7.27273H149.951L154.392 13.6818H154.473V7.27273H155.777ZM156.784 7.27273H158.28L160.56 11.2401H160.654L162.933 7.27273H164.429L161.263 12.5739V16H159.95V12.5739L156.784 7.27273ZM165.279 16H163.881L167.022 7.27273H168.543L171.684 16H170.286L167.819 8.85795H167.751L165.279 16ZM165.513 12.5824H170.047V13.6903H165.513V12.5824ZM179.748 7.27273V16H178.538L174.102 9.59943H174.021V16H172.704V7.27273H173.923L178.363 13.6818H178.444V7.27273H179.748Z" fill="#AABDC6"/>
<rect x="124" y="1" width="90" height="101" stroke="#AABDC6"/>
<path d="M140.54 131.636C140.54 132.568 140.369 133.369 140.028 134.04C139.688 134.707 139.22 135.222 138.626 135.582C138.036 135.94 137.364 136.119 136.611 136.119C135.855 136.119 135.18 135.94 134.587 135.582C133.996 135.222 133.53 134.706 133.189 134.036C132.848 133.365 132.678 132.565 132.678 131.636C132.678 130.705 132.848 129.905 133.189 129.237C133.53 128.567 133.996 128.053 134.587 127.695C135.18 127.334 135.855 127.153 136.611 127.153C137.364 127.153 138.036 127.334 138.626 127.695C139.22 128.053 139.688 128.567 140.028 129.237C140.369 129.905 140.54 130.705 140.54 131.636ZM139.236 131.636C139.236 130.926 139.121 130.328 138.891 129.842C138.663 129.354 138.351 128.984 137.953 128.734C137.558 128.482 137.111 128.355 136.611 128.355C136.108 128.355 135.659 128.482 135.264 128.734C134.869 128.984 134.557 129.354 134.327 129.842C134.099 130.328 133.986 130.926 133.986 131.636C133.986 132.347 134.099 132.946 134.327 133.435C134.557 133.92 134.869 134.29 135.264 134.543C135.659 134.793 136.108 134.918 136.611 134.918C137.111 134.918 137.558 134.793 137.953 134.543C138.351 134.29 138.663 133.92 138.891 133.435C139.121 132.946 139.236 132.347 139.236 131.636ZM141.941 136V127.273H145.052C145.728 127.273 146.289 127.389 146.735 127.622C147.184 127.855 147.52 128.178 147.741 128.589C147.963 128.999 148.074 129.472 148.074 130.009C148.074 130.543 147.961 131.013 147.737 131.419C147.515 131.822 147.18 132.136 146.731 132.361C146.285 132.585 145.724 132.697 145.048 132.697H142.691V131.564H144.929C145.355 131.564 145.701 131.503 145.968 131.381C146.238 131.259 146.436 131.081 146.561 130.848C146.686 130.615 146.748 130.335 146.748 130.009C146.748 129.679 146.684 129.393 146.557 129.152C146.432 128.911 146.234 128.726 145.964 128.598C145.697 128.467 145.346 128.402 144.912 128.402H143.258V136H141.941ZM146.25 132.062L148.406 136H146.906L144.792 132.062H146.25ZM150.173 136H148.775L151.916 127.273H153.437L156.578 136H155.18L152.713 128.858H152.645L150.173 136ZM150.407 132.582H154.942V133.69H150.407V132.582ZM164.437 130.111H163.107C163.056 129.827 162.961 129.577 162.822 129.361C162.682 129.145 162.512 128.962 162.31 128.811C162.108 128.661 161.883 128.547 161.633 128.47C161.385 128.393 161.123 128.355 160.844 128.355C160.341 128.355 159.891 128.482 159.493 128.734C159.099 128.987 158.786 129.358 158.556 129.847C158.329 130.335 158.215 130.932 158.215 131.636C158.215 132.347 158.329 132.946 158.556 133.435C158.786 133.923 159.1 134.293 159.498 134.543C159.895 134.793 160.343 134.918 160.84 134.918C161.116 134.918 161.377 134.881 161.624 134.807C161.874 134.73 162.1 134.618 162.302 134.47C162.503 134.322 162.674 134.142 162.813 133.929C162.955 133.713 163.053 133.466 163.107 133.188L164.437 133.192C164.366 133.621 164.228 134.016 164.023 134.376C163.822 134.734 163.562 135.044 163.243 135.305C162.928 135.564 162.567 135.764 162.161 135.906C161.755 136.048 161.312 136.119 160.831 136.119C160.076 136.119 159.403 135.94 158.812 135.582C158.221 135.222 157.755 134.706 157.414 134.036C157.076 133.365 156.907 132.565 156.907 131.636C156.907 130.705 157.077 129.905 157.418 129.237C157.759 128.567 158.225 128.053 158.816 127.695C159.407 127.334 160.079 127.153 160.831 127.153C161.295 127.153 161.726 127.22 162.127 127.354C162.53 127.484 162.893 127.678 163.214 127.933C163.535 128.186 163.8 128.496 164.01 128.862C164.221 129.226 164.363 129.642 164.437 130.111ZM165.772 136V127.273H167.089V134.866H171.044V136H165.772ZM172.306 136V127.273H177.777V128.406H173.622V131.065H177.492V132.195H173.622V134.866H177.828V136H172.306ZM137.719 143.565C137.673 143.162 137.486 142.849 137.156 142.628C136.827 142.403 136.412 142.291 135.912 142.291C135.554 142.291 135.244 142.348 134.983 142.462C134.722 142.572 134.518 142.726 134.374 142.922C134.232 143.115 134.161 143.335 134.161 143.582C134.161 143.79 134.209 143.969 134.305 144.119C134.405 144.27 134.534 144.396 134.693 144.499C134.855 144.598 135.028 144.682 135.213 144.75C135.398 144.815 135.575 144.869 135.746 144.912L136.598 145.134C136.876 145.202 137.162 145.294 137.455 145.411C137.747 145.527 138.018 145.68 138.268 145.871C138.518 146.061 138.72 146.297 138.874 146.578C139.03 146.859 139.108 147.196 139.108 147.588C139.108 148.082 138.98 148.521 138.724 148.905C138.472 149.288 138.104 149.591 137.621 149.812C137.141 150.034 136.56 150.145 135.878 150.145C135.224 150.145 134.659 150.041 134.182 149.834C133.705 149.626 133.331 149.332 133.061 148.952C132.791 148.568 132.642 148.114 132.614 147.588H133.935C133.96 147.903 134.063 148.166 134.241 148.376C134.423 148.584 134.655 148.739 134.936 148.841C135.22 148.94 135.531 148.99 135.869 148.99C136.241 148.99 136.572 148.932 136.862 148.815C137.155 148.696 137.385 148.531 137.553 148.321C137.72 148.108 137.804 147.859 137.804 147.575C137.804 147.317 137.73 147.105 137.582 146.94C137.438 146.776 137.24 146.639 136.99 146.531C136.743 146.423 136.463 146.328 136.151 146.246L135.119 145.964C134.42 145.774 133.866 145.494 133.457 145.125C133.051 144.756 132.848 144.267 132.848 143.659C132.848 143.156 132.984 142.717 133.257 142.342C133.53 141.967 133.899 141.676 134.365 141.469C134.831 141.259 135.357 141.153 135.942 141.153C136.533 141.153 137.054 141.257 137.506 141.464C137.96 141.672 138.318 141.957 138.58 142.321C138.841 142.682 138.977 143.097 138.989 143.565H137.719ZM139.768 141.273H141.264L143.544 145.24H143.637L145.917 141.273H147.413L144.247 146.574V150H142.934V146.574L139.768 141.273ZM153.176 143.565C153.131 143.162 152.943 142.849 152.614 142.628C152.284 142.403 151.869 142.291 151.369 142.291C151.011 142.291 150.702 142.348 150.44 142.462C150.179 142.572 149.976 142.726 149.831 142.922C149.689 143.115 149.618 143.335 149.618 143.582C149.618 143.79 149.666 143.969 149.763 144.119C149.862 144.27 149.992 144.396 150.151 144.499C150.313 144.598 150.486 144.682 150.671 144.75C150.855 144.815 151.033 144.869 151.203 144.912L152.056 145.134C152.334 145.202 152.619 145.294 152.912 145.411C153.205 145.527 153.476 145.68 153.726 145.871C153.976 146.061 154.178 146.297 154.331 146.578C154.487 146.859 154.565 147.196 154.565 147.588C154.565 148.082 154.438 148.521 154.182 148.905C153.929 149.288 153.561 149.591 153.078 149.812C152.598 150.034 152.017 150.145 151.335 150.145C150.682 150.145 150.117 150.041 149.639 149.834C149.162 149.626 148.788 149.332 148.519 148.952C148.249 148.568 148.1 148.114 148.071 147.588H149.392C149.418 147.903 149.52 148.166 149.699 148.376C149.881 148.584 150.112 148.739 150.394 148.841C150.678 148.94 150.989 148.99 151.327 148.99C151.699 148.99 152.03 148.932 152.32 148.815C152.612 148.696 152.842 148.531 153.01 148.321C153.178 148.108 153.261 147.859 153.261 147.575C153.261 147.317 153.188 147.105 153.04 146.94C152.895 146.776 152.698 146.639 152.448 146.531C152.2 146.423 151.921 146.328 151.608 146.246L150.577 145.964C149.878 145.774 149.324 145.494 148.915 145.125C148.509 144.756 148.306 144.267 148.306 143.659C148.306 143.156 148.442 142.717 148.715 142.342C148.987 141.967 149.357 141.676 149.823 141.469C150.288 141.259 150.814 141.153 151.399 141.153C151.99 141.153 152.511 141.257 152.963 141.464C153.418 141.672 153.776 141.957 154.037 142.321C154.298 142.682 154.435 143.097 154.446 143.565H153.176ZM155.469 142.406V141.273H162.223V142.406H159.5V150H158.187V142.406H155.469ZM163.475 150V141.273H168.947V142.406H164.792V145.065H168.661V146.195H164.792V148.866H168.998V150H163.475ZM170.466 141.273H172.064L174.842 148.057H174.945L177.723 141.273H179.321V150H178.068V143.685H177.987L175.413 149.987H174.374L171.8 143.68H171.719V150H170.466V141.273Z" fill="#AABDC6"/>
<rect x="124" y="117" width="90" height="100" stroke="#AABDC6"/>
<path d="M129.784 261L127.364 252.273H128.749L130.449 259.031H130.53L132.299 252.273H133.671L135.439 259.036H135.52L137.216 252.273H138.606L136.181 261H134.856L133.019 254.463H132.951L131.114 261H129.784ZM139.553 261H138.156L141.296 252.273H142.818L145.958 261H144.56L142.093 253.858H142.025L139.553 261ZM139.788 257.582H144.322V258.69H139.788V257.582ZM151.668 254.565C151.623 254.162 151.435 253.849 151.106 253.628C150.776 253.403 150.361 253.291 149.861 253.291C149.503 253.291 149.194 253.348 148.932 253.462C148.671 253.572 148.468 253.726 148.323 253.922C148.181 254.115 148.11 254.335 148.11 254.582C148.11 254.79 148.158 254.969 148.255 255.119C148.354 255.27 148.483 255.396 148.643 255.499C148.804 255.598 148.978 255.682 149.162 255.75C149.347 255.815 149.525 255.869 149.695 255.912L150.547 256.134C150.826 256.202 151.111 256.294 151.404 256.411C151.697 256.527 151.968 256.68 152.218 256.871C152.468 257.061 152.67 257.297 152.823 257.578C152.979 257.859 153.057 258.196 153.057 258.588C153.057 259.082 152.929 259.521 152.674 259.905C152.421 260.288 152.053 260.591 151.57 260.812C151.09 261.034 150.509 261.145 149.827 261.145C149.174 261.145 148.608 261.041 148.131 260.834C147.654 260.626 147.28 260.332 147.01 259.952C146.741 259.568 146.591 259.114 146.563 258.588H147.884C147.91 258.903 148.012 259.166 148.191 259.376C148.373 259.584 148.604 259.739 148.885 259.841C149.17 259.94 149.481 259.99 149.819 259.99C150.191 259.99 150.522 259.932 150.812 259.815C151.104 259.696 151.334 259.531 151.502 259.321C151.67 259.108 151.753 258.859 151.753 258.575C151.753 258.317 151.679 258.105 151.532 257.94C151.387 257.776 151.189 257.639 150.939 257.531C150.692 257.423 150.412 257.328 150.1 257.246L149.069 256.964C148.37 256.774 147.816 256.494 147.407 256.125C147.001 255.756 146.797 255.267 146.797 254.659C146.797 254.156 146.934 253.717 147.206 253.342C147.479 252.967 147.849 252.676 148.314 252.469C148.78 252.259 149.306 252.153 149.891 252.153C150.482 252.153 151.003 252.257 151.455 252.464C151.91 252.672 152.268 252.957 152.529 253.321C152.79 253.682 152.927 254.097 152.938 254.565H151.668ZM156.896 253.406V252.273H163.65V253.406H160.927V261H159.615V253.406H156.896ZM164.903 261V252.273H166.22V256.065H170.571V252.273H171.892V261H170.571V257.195H166.22V261H164.903ZM173.569 261V252.273H179.041V253.406H174.886V256.065H178.755V257.195H174.886V259.866H179.092V261H173.569ZM186.321 261H183.496V252.273H186.41C187.265 252.273 188 252.447 188.613 252.797C189.227 253.143 189.697 253.642 190.024 254.293C190.353 254.94 190.518 255.717 190.518 256.624C190.518 257.533 190.352 258.314 190.02 258.967C189.69 259.621 189.213 260.124 188.588 260.476C187.963 260.825 187.207 261 186.321 261ZM184.812 259.849H186.248C186.913 259.849 187.466 259.724 187.906 259.474C188.346 259.222 188.676 258.857 188.895 258.379C189.113 257.899 189.223 257.314 189.223 256.624C189.223 255.939 189.113 255.358 188.895 254.881C188.679 254.403 188.356 254.041 187.927 253.794C187.498 253.547 186.966 253.423 186.329 253.423H184.812V259.849ZM191.916 261V252.273H197.387V253.406H193.232V256.065H197.102V257.195H193.232V259.866H197.438V261H191.916ZM199.643 261H198.246L201.386 252.273H202.908L206.048 261H204.65L202.183 253.858H202.115L199.643 261ZM199.878 257.582H204.412V258.69H199.878V257.582ZM207.068 261V252.273H208.385V259.866H212.34V261H207.068ZM138.676 275V266.273H139.993V270.065H144.343V266.273H145.664V275H144.343V271.195H139.993V275H138.676ZM154.923 270.636C154.923 271.568 154.753 272.369 154.412 273.04C154.071 273.707 153.603 274.222 153.01 274.582C152.419 274.94 151.747 275.119 150.994 275.119C150.238 275.119 149.564 274.94 148.97 274.582C148.379 274.222 147.913 273.706 147.572 273.036C147.231 272.365 147.061 271.565 147.061 270.636C147.061 269.705 147.231 268.905 147.572 268.237C147.913 267.567 148.379 267.053 148.97 266.695C149.564 266.334 150.238 266.153 150.994 266.153C151.747 266.153 152.419 266.334 153.01 266.695C153.603 267.053 154.071 267.567 154.412 268.237C154.753 268.905 154.923 269.705 154.923 270.636ZM153.619 270.636C153.619 269.926 153.504 269.328 153.274 268.842C153.047 268.354 152.734 267.984 152.336 267.734C151.941 267.482 151.494 267.355 150.994 267.355C150.491 267.355 150.042 267.482 149.647 267.734C149.253 267.984 148.94 268.354 148.71 268.842C148.483 269.328 148.369 269.926 148.369 270.636C148.369 271.347 148.483 271.946 148.71 272.435C148.94 272.92 149.253 273.29 149.647 273.543C150.042 273.793 150.491 273.918 150.994 273.918C151.494 273.918 151.941 273.793 152.336 273.543C152.734 273.29 153.047 272.92 153.274 272.435C153.504 271.946 153.619 271.347 153.619 270.636ZM163.369 266.273V275H162.158L157.722 268.599H157.641V275H156.325V266.273H157.543L161.984 272.682H162.065V266.273H163.369ZM172.63 270.636C172.63 271.568 172.46 272.369 172.119 273.04C171.778 273.707 171.311 274.222 170.717 274.582C170.126 274.94 169.454 275.119 168.702 275.119C167.946 275.119 167.271 274.94 166.677 274.582C166.086 274.222 165.621 273.706 165.28 273.036C164.939 272.365 164.768 271.565 164.768 270.636C164.768 269.705 164.939 268.905 165.28 268.237C165.621 267.567 166.086 267.053 166.677 266.695C167.271 266.334 167.946 266.153 168.702 266.153C169.454 266.153 170.126 266.334 170.717 266.695C171.311 267.053 171.778 267.567 172.119 268.237C172.46 268.905 172.63 269.705 172.63 270.636ZM171.327 270.636C171.327 269.926 171.211 269.328 170.981 268.842C170.754 268.354 170.442 267.984 170.044 267.734C169.649 267.482 169.202 267.355 168.702 267.355C168.199 267.355 167.75 267.482 167.355 267.734C166.96 267.984 166.648 268.354 166.417 268.842C166.19 269.328 166.077 269.926 166.077 270.636C166.077 271.347 166.19 271.946 166.417 272.435C166.648 272.92 166.96 273.29 167.355 273.543C167.75 273.793 168.199 273.918 168.702 273.918C169.202 273.918 169.649 273.793 170.044 273.543C170.442 273.29 170.754 272.92 170.981 272.435C171.211 271.946 171.327 271.347 171.327 270.636ZM174.032 275V266.273H177.143C177.819 266.273 178.38 266.389 178.826 266.622C179.275 266.855 179.61 267.178 179.832 267.589C180.053 267.999 180.164 268.472 180.164 269.009C180.164 269.543 180.052 270.013 179.828 270.419C179.606 270.822 179.271 271.136 178.822 271.361C178.376 271.585 177.815 271.697 177.139 271.697H174.782V270.564H177.019C177.446 270.564 177.792 270.503 178.059 270.381C178.329 270.259 178.526 270.081 178.651 269.848C178.776 269.615 178.839 269.335 178.839 269.009C178.839 268.679 178.775 268.393 178.647 268.152C178.522 267.911 178.325 267.726 178.055 267.598C177.788 267.467 177.437 267.402 177.002 267.402H175.349V275H174.032ZM178.34 271.062L180.497 275H178.997L176.883 271.062H178.34ZM181.527 275V266.273H186.998V267.406H182.843V270.065H186.713V271.195H182.843V273.866H187.049V275H181.527ZM191.342 275H188.517V266.273H191.432C192.287 266.273 193.021 266.447 193.635 266.797C194.249 267.143 194.719 267.642 195.045 268.293C195.375 268.94 195.54 269.717 195.54 270.624C195.54 271.533 195.374 272.314 195.041 272.967C194.712 273.621 194.234 274.124 193.609 274.476C192.984 274.825 192.229 275 191.342 275ZM189.834 273.849H191.27C191.935 273.849 192.487 273.724 192.928 273.474C193.368 273.222 193.697 272.857 193.916 272.379C194.135 271.899 194.244 271.314 194.244 270.624C194.244 269.939 194.135 269.358 193.916 268.881C193.7 268.403 193.378 268.041 192.949 267.794C192.52 267.547 191.987 267.423 191.351 267.423H189.834V273.849ZM198.228 272.49V272.409C198.234 271.881 198.287 271.46 198.386 271.148C198.488 270.835 198.633 270.582 198.821 270.389C199.008 270.196 199.234 270.02 199.498 269.861C199.669 269.753 199.822 269.632 199.958 269.499C200.095 269.365 200.203 269.212 200.282 269.038C200.362 268.865 200.402 268.673 200.402 268.463C200.402 268.21 200.342 267.991 200.223 267.807C200.103 267.622 199.944 267.48 199.745 267.381C199.549 267.278 199.331 267.227 199.089 267.227C198.87 267.227 198.662 267.273 198.463 267.364C198.264 267.455 198.099 267.597 197.968 267.79C197.838 267.98 197.762 268.226 197.743 268.527H196.447C196.467 268.016 196.596 267.584 196.835 267.232C197.074 266.876 197.389 266.608 197.781 266.426C198.176 266.244 198.612 266.153 199.089 266.153C199.612 266.153 200.069 266.251 200.461 266.447C200.853 266.641 201.157 266.912 201.373 267.261C201.592 267.608 201.701 268.013 201.701 268.476C201.701 268.794 201.652 269.081 201.552 269.337C201.453 269.589 201.311 269.815 201.126 270.014C200.944 270.213 200.726 270.389 200.47 270.543C200.228 270.693 200.032 270.849 199.882 271.011C199.734 271.173 199.626 271.365 199.558 271.587C199.49 271.808 199.453 272.082 199.447 272.409V272.49H198.228ZM198.872 275.081C198.639 275.081 198.439 274.999 198.271 274.834C198.103 274.666 198.02 274.464 198.02 274.229C198.02 273.996 198.103 273.797 198.271 273.632C198.439 273.464 198.639 273.381 198.872 273.381C199.102 273.381 199.301 273.464 199.468 273.632C199.639 273.797 199.724 273.996 199.724 274.229C199.724 274.385 199.684 274.528 199.605 274.659C199.528 274.787 199.426 274.889 199.298 274.966C199.17 275.043 199.028 275.081 198.872 275.081Z" fill="#AABDC6"/>
<path d="M45.0291 257.273V266H43.8189L39.3828 259.599H39.3018V266H37.9851V257.273H39.2038L43.6441 263.682H43.7251V257.273H45.0291ZM54.2909 261.636C54.2909 262.568 54.1204 263.369 53.7795 264.04C53.4386 264.707 52.9713 265.222 52.3775 265.582C51.7866 265.94 51.1147 266.119 50.3619 266.119C49.6062 266.119 48.9315 265.94 48.3377 265.582C47.7468 265.222 47.2809 264.706 46.94 264.036C46.5991 263.365 46.4287 262.565 46.4287 261.636C46.4287 260.705 46.5991 259.905 46.94 259.237C47.2809 258.567 47.7468 258.053 48.3377 257.695C48.9315 257.334 49.6062 257.153 50.3619 257.153C51.1147 257.153 51.7866 257.334 52.3775 257.695C52.9713 258.053 53.4386 258.567 53.7795 259.237C54.1204 259.905 54.2909 260.705 54.2909 261.636ZM52.9869 261.636C52.9869 260.926 52.8718 260.328 52.6417 259.842C52.4144 259.354 52.1019 258.984 51.7042 258.734C51.3093 258.482 50.8619 258.355 50.3619 258.355C49.859 258.355 49.4102 258.482 49.0153 258.734C48.6204 258.984 48.3079 259.354 48.0778 259.842C47.8505 260.328 47.7369 260.926 47.7369 261.636C47.7369 262.347 47.8505 262.946 48.0778 263.435C48.3079 263.92 48.6204 264.29 49.0153 264.543C49.4102 264.793 49.859 264.918 50.3619 264.918C50.8619 264.918 51.3093 264.793 51.7042 264.543C52.1019 264.29 52.4144 263.92 52.6417 263.435C52.8718 262.946 52.9869 262.347 52.9869 261.636Z" fill="#AABDC6"/>
<path d="M279.442 257.273H280.937L283.217 261.24H283.311L285.591 257.273H287.086L283.92 262.574V266H282.608V262.574L279.442 257.273ZM288.09 266V257.273H293.561V258.406H289.406V261.065H293.276V262.195H289.406V264.866H293.612V266H288.09ZM299.84 259.565C299.795 259.162 299.607 258.849 299.278 258.628C298.948 258.403 298.533 258.291 298.033 258.291C297.675 258.291 297.366 258.348 297.104 258.462C296.843 258.572 296.64 258.726 296.495 258.922C296.353 259.115 296.282 259.335 296.282 259.582C296.282 259.79 296.33 259.969 296.427 260.119C296.526 260.27 296.655 260.396 296.815 260.499C296.976 260.598 297.15 260.682 297.334 260.75C297.519 260.815 297.697 260.869 297.867 260.912L298.719 261.134C298.998 261.202 299.283 261.294 299.576 261.411C299.868 261.527 300.14 261.68 300.39 261.871C300.64 262.061 300.841 262.297 300.995 262.578C301.151 262.859 301.229 263.196 301.229 263.588C301.229 264.082 301.101 264.521 300.846 264.905C300.593 265.288 300.225 265.591 299.742 265.812C299.262 266.034 298.681 266.145 297.999 266.145C297.346 266.145 296.78 266.041 296.303 265.834C295.826 265.626 295.452 265.332 295.182 264.952C294.913 264.568 294.763 264.114 294.735 263.588H296.056C296.082 263.903 296.184 264.166 296.363 264.376C296.545 264.584 296.776 264.739 297.057 264.841C297.341 264.94 297.653 264.99 297.991 264.99C298.363 264.99 298.694 264.932 298.984 264.815C299.276 264.696 299.506 264.531 299.674 264.321C299.841 264.108 299.925 263.859 299.925 263.575C299.925 263.317 299.851 263.105 299.704 262.94C299.559 262.776 299.361 262.639 299.111 262.531C298.864 262.423 298.584 262.328 298.272 262.246L297.241 261.964C296.542 261.774 295.988 261.494 295.579 261.125C295.172 260.756 294.969 260.267 294.969 259.659C294.969 259.156 295.106 258.717 295.378 258.342C295.651 257.967 296.02 257.676 296.486 257.469C296.952 257.259 297.478 257.153 298.063 257.153C298.654 257.153 299.175 257.257 299.627 257.464C300.082 257.672 300.44 257.957 300.701 258.321C300.962 258.682 301.099 259.097 301.11 259.565H299.84Z" fill="#AABDC6"/>
<path d="M14.8643 71.0653C14.8188 70.6619 14.6313 70.3494 14.3018 70.1278C13.9723 69.9034 13.5575 69.7912 13.0575 69.7912C12.6995 69.7912 12.3899 69.848 12.1285 69.9616C11.8671 70.0724 11.664 70.2259 11.5191 70.4219C11.3771 70.6151 11.3061 70.8352 11.3061 71.0824C11.3061 71.2898 11.3544 71.4687 11.4509 71.6193C11.5504 71.7699 11.6796 71.8963 11.8387 71.9986C12.0007 72.098 12.174 72.1818 12.3586 72.25C12.5433 72.3153 12.7208 72.3693 12.8913 72.4119L13.7436 72.6335C14.022 72.7017 14.3075 72.794 14.6001 72.9105C14.8927 73.027 15.164 73.1804 15.414 73.3707C15.664 73.5611 15.8657 73.7969 16.0191 74.0781C16.1754 74.3594 16.2535 74.696 16.2535 75.0881C16.2535 75.5824 16.1257 76.0213 15.87 76.4048C15.6171 76.7884 15.2492 77.0909 14.7663 77.3125C14.2862 77.5341 13.7052 77.6449 13.0234 77.6449C12.37 77.6449 11.8046 77.5412 11.3274 77.3338C10.8501 77.1264 10.4765 76.8324 10.2066 76.4517C9.93674 76.0682 9.78759 75.6136 9.75918 75.0881H11.0802C11.1058 75.4034 11.208 75.6662 11.387 75.8764C11.5688 76.0838 11.8004 76.2386 12.0816 76.3409C12.3657 76.4403 12.6768 76.4901 13.0149 76.4901C13.387 76.4901 13.718 76.4318 14.0078 76.3153C14.3004 76.196 14.5305 76.0312 14.6981 75.821C14.8657 75.608 14.9495 75.3594 14.9495 75.0753C14.9495 74.8168 14.8757 74.6051 14.7279 74.4403C14.583 74.2756 14.3856 74.1392 14.1356 74.0312C13.8884 73.9233 13.6086 73.8281 13.2961 73.7457L12.2649 73.4645C11.566 73.2741 11.012 72.9943 10.6029 72.625C10.1967 72.2557 9.99356 71.767 9.99356 71.1591C9.99356 70.6562 10.1299 70.2173 10.4026 69.8423C10.6754 69.4673 11.0447 69.1761 11.5106 68.9688C11.9765 68.7585 12.5021 68.6534 13.0873 68.6534C13.6782 68.6534 14.1995 68.7571 14.6512 68.9645C15.1058 69.1719 15.4637 69.4574 15.7251 69.821C15.9865 70.1818 16.1228 70.5966 16.1342 71.0653H14.8643ZM17.4847 79.9545V70.9545H18.7291V72.0156H18.8356C18.9095 71.8793 19.016 71.7216 19.1552 71.5426C19.2944 71.3636 19.4876 71.2074 19.7347 71.0739C19.9819 70.9375 20.3086 70.8693 20.7149 70.8693C21.2433 70.8693 21.7149 71.0028 22.1296 71.2699C22.5444 71.5369 22.8697 71.9219 23.1055 72.4247C23.3441 72.9276 23.4634 73.5327 23.4634 74.2401C23.4634 74.9474 23.3455 75.554 23.1097 76.0597C22.8739 76.5625 22.5501 76.9503 22.1381 77.223C21.7262 77.4929 21.256 77.6278 20.7276 77.6278C20.3299 77.6278 20.0046 77.5611 19.7518 77.4276C19.5018 77.294 19.3058 77.1378 19.1637 76.9588C19.0217 76.7798 18.9123 76.6207 18.8356 76.4815H18.7589V79.9545H17.4847ZM18.7333 74.2273C18.7333 74.6875 18.8001 75.0909 18.9336 75.4375C19.0671 75.7841 19.2603 76.0554 19.5131 76.2514C19.766 76.4446 20.0756 76.5412 20.4421 76.5412C20.8228 76.5412 21.141 76.4403 21.3967 76.2386C21.6524 76.0341 21.8455 75.7571 21.9762 75.4077C22.1097 75.0582 22.1765 74.6648 22.1765 74.2273C22.1765 73.7955 22.1112 73.4077 21.9805 73.0639C21.8526 72.7202 21.6595 72.4489 21.4009 72.25C21.1452 72.0511 20.8256 71.9517 20.4421 71.9517C20.0728 71.9517 19.7603 72.0469 19.5046 72.2372C19.2518 72.4276 19.06 72.6932 18.9293 73.0341C18.7987 73.375 18.7333 73.7727 18.7333 74.2273ZM27.472 77.6321C26.8271 77.6321 26.2717 77.4943 25.8058 77.2188C25.3427 76.9403 24.9848 76.5497 24.732 76.0469C24.482 75.5412 24.357 74.9489 24.357 74.2699C24.357 73.5994 24.482 73.0085 24.732 72.4972C24.9848 71.9858 25.3371 71.5866 25.7888 71.2997C26.2433 71.0128 26.7746 70.8693 27.3825 70.8693C27.7518 70.8693 28.1098 70.9304 28.4564 71.0526C28.803 71.1747 29.1141 71.3665 29.3896 71.6278C29.6652 71.8892 29.8825 72.2287 30.0416 72.6463C30.2007 73.0611 30.2802 73.5653 30.2802 74.1591V74.6108H25.0771V73.6562H29.0317C29.0317 73.321 28.9635 73.0241 28.8271 72.7656C28.6908 72.5043 28.499 72.2983 28.2518 72.1477C28.0075 71.9972 27.7206 71.9219 27.391 71.9219C27.0331 71.9219 26.7206 72.0099 26.4535 72.1861C26.1893 72.3594 25.9848 72.5866 25.8399 72.8679C25.6979 73.1463 25.6268 73.4489 25.6268 73.7756V74.5213C25.6268 74.9588 25.7035 75.331 25.857 75.6378C26.0132 75.9446 26.2305 76.179 26.5089 76.3409C26.7874 76.5 27.1126 76.5795 27.4848 76.5795C27.7263 76.5795 27.9464 76.5455 28.1453 76.4773C28.3442 76.4062 28.516 76.3011 28.6609 76.1619C28.8058 76.0227 28.9166 75.8509 28.9933 75.6463L30.1993 75.8636C30.1027 76.2187 29.9294 76.5298 29.6794 76.7969C29.4322 77.0611 29.1212 77.267 28.7462 77.4148C28.374 77.5597 27.9493 77.6321 27.472 77.6321ZM34.2111 77.6321C33.5775 77.6321 33.0321 77.4886 32.5747 77.2017C32.1201 76.9119 31.7707 76.5128 31.5264 76.0043C31.2821 75.4957 31.1599 74.9134 31.1599 74.2571C31.1599 73.5923 31.2849 73.0057 31.5349 72.4972C31.7849 71.9858 32.1372 71.5866 32.5917 71.2997C33.0463 71.0128 33.5818 70.8693 34.1983 70.8693C34.6954 70.8693 35.1386 70.9616 35.5278 71.1463C35.917 71.3281 36.2309 71.5838 36.4696 71.9134C36.7111 72.2429 36.8545 72.6278 36.9 73.0682H35.6599C35.5917 72.7614 35.4355 72.4972 35.1912 72.2756C34.9497 72.054 34.6258 71.9432 34.2196 71.9432C33.8645 71.9432 33.5534 72.0369 33.2863 72.2244C33.0221 72.4091 32.8162 72.6733 32.6684 73.017C32.5207 73.358 32.4469 73.7614 32.4469 74.2273C32.4469 74.7045 32.5193 75.1165 32.6642 75.4631C32.8091 75.8097 33.0136 76.0781 33.2778 76.2685C33.5449 76.4588 33.8588 76.554 34.2196 76.554C34.4611 76.554 34.6798 76.5099 34.8758 76.4219C35.0747 76.331 35.2409 76.2017 35.3744 76.0341C35.5108 75.8665 35.6059 75.6648 35.6599 75.429H36.9C36.8545 75.8523 36.7167 76.2301 36.4866 76.5625C36.2565 76.8949 35.9483 77.1562 35.5619 77.3466C35.1784 77.5369 34.7281 77.6321 34.2111 77.6321ZM38.0225 77.5V70.9545H39.2967V77.5H38.0225ZM38.666 69.9446C38.4444 69.9446 38.2541 69.8707 38.095 69.723C37.9387 69.5724 37.8606 69.3935 37.8606 69.1861C37.8606 68.9759 37.9387 68.7969 38.095 68.6491C38.2541 68.4986 38.4444 68.4233 38.666 68.4233C38.8876 68.4233 39.0765 68.4986 39.2328 68.6491C39.3919 68.7969 39.4714 68.9759 39.4714 69.1861C39.4714 69.3935 39.3919 69.5724 39.2328 69.723C39.0765 69.8707 38.8876 69.9446 38.666 69.9446ZM43.8859 70.9545V71.9773H40.187V70.9545H43.8859ZM41.2012 77.5V70.196C41.2012 69.7869 41.2907 69.4474 41.4697 69.1776C41.6487 68.9048 41.8859 68.7017 42.1813 68.5682C42.4768 68.4318 42.7978 68.3636 43.1444 68.3636C43.4001 68.3636 43.6188 68.3849 43.8007 68.4276C43.9825 68.4673 44.1174 68.5043 44.2055 68.5384L43.9072 69.5696C43.8475 69.5526 43.7708 69.5327 43.6771 69.5099C43.5833 69.4844 43.4697 69.4716 43.3362 69.4716C43.0265 69.4716 42.8049 69.5483 42.6714 69.7017C42.5407 69.8551 42.4754 70.0767 42.4754 70.3665V77.5H41.2012ZM44.9605 77.5V70.9545H46.2347V77.5H44.9605ZM45.604 69.9446C45.3824 69.9446 45.1921 69.8707 45.033 69.723C44.8767 69.5724 44.7986 69.3935 44.7986 69.1861C44.7986 68.9759 44.8767 68.7969 45.033 68.6491C45.1921 68.4986 45.3824 68.4233 45.604 68.4233C45.8256 68.4233 46.0145 68.4986 46.1707 68.6491C46.3298 68.7969 46.4094 68.9759 46.4094 69.1861C46.4094 69.3935 46.3298 69.5724 46.1707 69.723C46.0145 69.8707 45.8256 69.9446 45.604 69.9446ZM50.4659 77.6321C49.8324 77.6321 49.2869 77.4886 48.8295 77.2017C48.375 76.9119 48.0256 76.5128 47.7812 76.0043C47.5369 75.4957 47.4148 74.9134 47.4148 74.2571C47.4148 73.5923 47.5398 73.0057 47.7898 72.4972C48.0398 71.9858 48.392 71.5866 48.8466 71.2997C49.3011 71.0128 49.8366 70.8693 50.4531 70.8693C50.9503 70.8693 51.3935 70.9616 51.7827 71.1463C52.1719 71.3281 52.4858 71.5838 52.7244 71.9134C52.9659 72.2429 53.1094 72.6278 53.1548 73.0682H51.9148C51.8466 72.7614 51.6903 72.4972 51.446 72.2756C51.2045 72.054 50.8807 71.9432 50.4744 71.9432C50.1193 71.9432 49.8082 72.0369 49.5412 72.2244C49.277 72.4091 49.071 72.6733 48.9233 73.017C48.7756 73.358 48.7017 73.7614 48.7017 74.2273C48.7017 74.7045 48.7741 75.1165 48.919 75.4631C49.0639 75.8097 49.2685 76.0781 49.5327 76.2685C49.7997 76.4588 50.1136 76.554 50.4744 76.554C50.7159 76.554 50.9347 76.5099 51.1307 76.4219C51.3295 76.331 51.4957 76.2017 51.6293 76.0341C51.7656 75.8665 51.8608 75.6648 51.9148 75.429H53.1548C53.1094 75.8523 52.9716 76.2301 52.7415 76.5625C52.5114 76.8949 52.2031 77.1562 51.8168 77.3466C51.4332 77.5369 50.9829 77.6321 50.4659 77.6321ZM59.1822 72.5526L58.0274 72.7571C57.9791 72.6094 57.9024 72.4687 57.7973 72.3352C57.695 72.2017 57.5558 72.0923 57.3797 72.0071C57.2035 71.9219 56.9834 71.8793 56.7192 71.8793C56.3584 71.8793 56.0572 71.9602 55.8157 72.1222C55.5743 72.2812 55.4535 72.4872 55.4535 72.7401C55.4535 72.9588 55.5345 73.1349 55.6964 73.2685C55.8584 73.402 56.1197 73.5114 56.4805 73.5966L57.5203 73.8352C58.1226 73.9744 58.5714 74.1889 58.8669 74.4787C59.1623 74.7685 59.3101 75.1449 59.3101 75.608C59.3101 76 59.1964 76.3494 58.9692 76.6562C58.7447 76.9602 58.4308 77.1989 58.0274 77.3722C57.6268 77.5455 57.1623 77.6321 56.6339 77.6321C55.901 77.6321 55.303 77.4759 54.8399 77.1634C54.3768 76.848 54.0927 76.4006 53.9876 75.821L55.2192 75.6335C55.2959 75.9545 55.4535 76.1974 55.6922 76.3622C55.9308 76.5241 56.2419 76.6051 56.6254 76.6051C57.043 76.6051 57.3768 76.5185 57.6268 76.3452C57.8768 76.169 58.0018 75.9545 58.0018 75.7017C58.0018 75.4972 57.9251 75.3253 57.7717 75.1861C57.6211 75.0469 57.3896 74.9418 57.0771 74.8707L55.9692 74.6278C55.3584 74.4886 54.9067 74.267 54.614 73.9631C54.3243 73.6591 54.1794 73.2741 54.1794 72.8082C54.1794 72.4219 54.2873 72.0838 54.5032 71.794C54.7192 71.5043 55.0175 71.2784 55.3981 71.1165C55.7788 70.9517 56.2149 70.8693 56.7064 70.8693C57.4138 70.8693 57.9706 71.0227 58.3768 71.3295C58.7831 71.6335 59.0515 72.0412 59.1822 72.5526Z" fill="#AABDC6"/>
<rect x="1" y="64" width="90" height="19" rx="9.5" stroke="#AABDC6"/>
<path d="M10.2326 96.5V87.7727H13.4287C14.048 87.7727 14.5608 87.875 14.967 88.0795C15.3733 88.2812 15.6772 88.5554 15.8789 88.902C16.0806 89.2457 16.1815 89.6335 16.1815 90.0653C16.1815 90.429 16.1147 90.7358 15.9812 90.9858C15.8477 91.233 15.6687 91.4318 15.4443 91.5824C15.2227 91.7301 14.9784 91.8381 14.7113 91.9062V91.9915C15.0011 92.0057 15.2838 92.0994 15.5593 92.2727C15.8377 92.4432 16.0679 92.6861 16.2497 93.0014C16.4315 93.3168 16.5224 93.7003 16.5224 94.152C16.5224 94.598 16.4173 94.9986 16.2071 95.3537C15.9997 95.706 15.6787 95.9858 15.244 96.1932C14.8093 96.3977 14.2539 96.5 13.5778 96.5H10.2326ZM11.5494 95.3707H13.45C14.0806 95.3707 14.5324 95.2486 14.8051 95.0043C15.0778 94.7599 15.2142 94.4545 15.2142 94.0881C15.2142 93.8125 15.1446 93.5597 15.0054 93.3295C14.8662 93.0994 14.6673 92.9162 14.4088 92.7798C14.1531 92.6435 13.8491 92.5753 13.4968 92.5753H11.5494V95.3707ZM11.5494 91.5483H13.3136C13.6091 91.5483 13.8747 91.4915 14.1105 91.3778C14.3491 91.2642 14.538 91.1051 14.6772 90.9006C14.8193 90.6932 14.8903 90.4489 14.8903 90.1676C14.8903 89.8068 14.7639 89.5043 14.511 89.2599C14.2582 89.0156 13.8704 88.8935 13.3477 88.8935H11.5494V91.5483ZM20.499 96.6321C19.8854 96.6321 19.3499 96.4915 18.8925 96.2102C18.4351 95.929 18.08 95.5355 17.8272 95.0298C17.5743 94.5241 17.4479 93.9332 17.4479 93.2571C17.4479 92.5781 17.5743 91.9844 17.8272 91.4759C18.08 90.9673 18.4351 90.5724 18.8925 90.2912C19.3499 90.0099 19.8854 89.8693 20.499 89.8693C21.1127 89.8693 21.6482 90.0099 22.1056 90.2912C22.5629 90.5724 22.9181 90.9673 23.1709 91.4759C23.4237 91.9844 23.5502 92.5781 23.5502 93.2571C23.5502 93.9332 23.4237 94.5241 23.1709 95.0298C22.9181 95.5355 22.5629 95.929 22.1056 96.2102C21.6482 96.4915 21.1127 96.6321 20.499 96.6321ZM20.5033 95.5625C20.901 95.5625 21.2306 95.4574 21.4919 95.2472C21.7533 95.0369 21.9465 94.7571 22.0715 94.4077C22.1993 94.0582 22.2632 93.6733 22.2632 93.2528C22.2632 92.8352 22.1993 92.4517 22.0715 92.1023C21.9465 91.75 21.7533 91.4673 21.4919 91.2543C21.2306 91.0412 20.901 90.9347 20.5033 90.9347C20.1027 90.9347 19.7703 91.0412 19.5061 91.2543C19.2448 91.4673 19.0502 91.75 18.9223 92.1023C18.7973 92.4517 18.7348 92.8352 18.7348 93.2528C18.7348 93.6733 18.7973 94.0582 18.9223 94.4077C19.0502 94.7571 19.2448 95.0369 19.5061 95.2472C19.7703 95.4574 20.1027 95.5625 20.5033 95.5625ZM28.8787 93.7855V89.9545H30.1571V96.5H28.9043V95.3665H28.8361C28.6855 95.7159 28.444 96.0071 28.1117 96.2401C27.7821 96.4702 27.3716 96.5852 26.8801 96.5852C26.4597 96.5852 26.0875 96.4929 25.7636 96.3082C25.4426 96.1207 25.1898 95.8438 25.0051 95.4773C24.8233 95.1108 24.7324 94.6577 24.7324 94.1179V89.9545H26.0065V93.9645C26.0065 94.4105 26.1301 94.7656 26.3773 95.0298C26.6244 95.294 26.9455 95.4261 27.3403 95.4261C27.579 95.4261 27.8162 95.3665 28.052 95.2472C28.2906 95.1278 28.4881 94.9474 28.6443 94.706C28.8034 94.4645 28.8815 94.1577 28.8787 93.7855ZM32.9033 92.6136V96.5H31.6291V89.9545H32.8521V91.0199H32.9331C33.0837 90.6733 33.3195 90.3949 33.6405 90.1847C33.9643 89.9744 34.372 89.8693 34.8635 89.8693C35.3095 89.8693 35.7001 89.9631 36.0354 90.1506C36.3706 90.3352 36.6305 90.6108 36.8152 90.9773C36.9999 91.3437 37.0922 91.7969 37.0922 92.3366V96.5H35.818V92.4901C35.818 92.0156 35.6945 91.6449 35.4473 91.3778C35.2001 91.108 34.8606 90.973 34.4288 90.973C34.1334 90.973 33.8706 91.0369 33.6405 91.1648C33.4132 91.2926 33.2328 91.4801 33.0993 91.7273C32.9686 91.9716 32.9033 92.267 32.9033 92.6136ZM41.6164 89.9545V90.9773H38.0411V89.9545H41.6164ZM38.9999 88.3864H40.2741V94.5781C40.2741 94.8253 40.311 95.0114 40.3849 95.1364C40.4587 95.2585 40.5539 95.3423 40.6704 95.3878C40.7897 95.4304 40.9189 95.4517 41.0581 95.4517C41.1604 95.4517 41.2499 95.4446 41.3266 95.4304C41.4033 95.4162 41.463 95.4048 41.5056 95.3963L41.7357 96.4489C41.6618 96.4773 41.5567 96.5057 41.4204 96.5341C41.284 96.5653 41.1135 96.5824 40.909 96.5852C40.5738 96.5909 40.2613 96.5312 39.9715 96.4062C39.6817 96.2812 39.4474 96.0881 39.2684 95.8267C39.0894 95.5653 38.9999 95.2372 38.9999 94.8423V88.3864ZM43.5912 98.9545C43.4009 98.9545 43.2276 98.9389 43.0713 98.9077C42.9151 98.8793 42.7986 98.848 42.7219 98.8139L43.0287 97.7699C43.2617 97.8324 43.4691 97.8594 43.6509 97.8509C43.8327 97.8423 43.9932 97.7741 44.1324 97.6463C44.2745 97.5185 44.3995 97.3097 44.5074 97.0199L44.6651 96.5852L42.2702 89.9545H43.6338L45.2915 95.0341H45.3597L47.0174 89.9545H48.3853L45.6878 97.3736C45.5628 97.7145 45.4037 98.0028 45.2105 98.2386C45.0174 98.4773 44.7873 98.6563 44.5202 98.7756C44.2532 98.8949 43.9435 98.9545 43.5912 98.9545Z" fill="#AABDC6"/>
<rect x="1" y="83" width="90" height="19" rx="9.5" stroke="#AABDC6"/>
<path d="M10.2934 58.5V49.7727H15.7053V50.9062H11.6102V53.5653H15.3176V54.6946H11.6102V58.5H10.2934ZM16.9824 58.5V51.9545H18.2565V58.5H16.9824ZM17.6259 50.9446C17.4043 50.9446 17.2139 50.8707 17.0548 50.723C16.8986 50.5724 16.8205 50.3935 16.8205 50.1861C16.8205 49.9759 16.8986 49.7969 17.0548 49.6491C17.2139 49.4986 17.4043 49.4233 17.6259 49.4233C17.8475 49.4233 18.0364 49.4986 18.1926 49.6491C18.3517 49.7969 18.4313 49.9759 18.4313 50.1861C18.4313 50.3935 18.3517 50.5724 18.1926 50.723C18.0364 50.8707 17.8475 50.9446 17.6259 50.9446ZM21.0048 49.7727V58.5H19.7307V49.7727H21.0048ZM25.3 58.6321C24.6551 58.6321 24.0997 58.4943 23.6338 58.2188C23.1707 57.9403 22.8128 57.5497 22.5599 57.0469C22.3099 56.5412 22.1849 55.9489 22.1849 55.2699C22.1849 54.5994 22.3099 54.0085 22.5599 53.4972C22.8128 52.9858 23.165 52.5866 23.6167 52.2997C24.0713 52.0128 24.6025 51.8693 25.2105 51.8693C25.5798 51.8693 25.9378 51.9304 26.2844 52.0526C26.6309 52.1747 26.942 52.3665 27.2176 52.6278C27.4932 52.8892 27.7105 53.2287 27.8696 53.6463C28.0287 54.0611 28.1082 54.5653 28.1082 55.1591V55.6108H22.9051V54.6562H26.8596C26.8596 54.321 26.7915 54.0241 26.6551 53.7656C26.5187 53.5043 26.327 53.2983 26.0798 53.1477C25.8355 52.9972 25.5486 52.9219 25.219 52.9219C24.8611 52.9219 24.5486 53.0099 24.2815 53.1861C24.0173 53.3594 23.8128 53.5866 23.6679 53.8679C23.5258 54.1463 23.4548 54.4489 23.4548 54.7756V55.5213C23.4548 55.9588 23.5315 56.331 23.6849 56.6378C23.8412 56.9446 24.0585 57.179 24.3369 57.3409C24.6153 57.5 24.9406 57.5795 25.3128 57.5795C25.5542 57.5795 25.7744 57.5455 25.9733 57.4773C26.1721 57.4062 26.344 57.3011 26.4889 57.1619C26.6338 57.0227 26.7446 56.8509 26.8213 56.6463L28.0273 56.8636C27.9307 57.2187 27.7574 57.5298 27.5074 57.7969C27.2602 58.0611 26.9491 58.267 26.5741 58.4148C26.202 58.5597 25.7773 58.6321 25.3 58.6321Z" fill="#AABDC6"/>
<rect x="1" y="45" width="90" height="19" rx="9.5" stroke="#AABDC6"/>
<path d="M116 92L91 92" stroke="#AABDC6"/>
<path d="M222 92H246" stroke="#AABDC6"/>
<path d="M124 92L116 86V98L124 92Z" fill="#AABDC6"/>
<path d="M246 55L238 49V61L246 55Z" fill="#AABDC6"/>
<path d="M246 74L238 68V80L246 74Z" fill="#AABDC6"/>
<path d="M214 92L222 86V98L214 92Z" fill="#AABDC6"/>
<path d="M246 74L91 74" stroke="#AABDC6"/>
<path d="M246 55L91 55" stroke="#AABDC6"/>
<path d="M169 291.47L85.5023 262L169 232.53L252.498 262L169 291.47Z" stroke="#AABDC6"/>
<path d="M168.972 232.822L168.972 217.242" stroke="#AABDC6"/>
<path d="M168.972 116.675L168.972 101.566" stroke="#AABDC6"/>
<path d="M46 255L46 102" stroke="#AABDC6"/>
<path d="M57 262H86" stroke="#AABDC6"/>
<path d="M251 262H277" stroke="#AABDC6"/>
<path d="M46 102L40 110L52 110L46 102Z" fill="#AABDC6"/>
<rect width="53" height="40" transform="translate(19.5 157)" fill="#0B0E12"/>
<path d="M27.2326 169V160.273H30.4287C31.048 160.273 31.5608 160.375 31.967 160.58C32.3733 160.781 32.6772 161.055 32.8789 161.402C33.0806 161.746 33.1815 162.134 33.1815 162.565C33.1815 162.929 33.1147 163.236 32.9812 163.486C32.8477 163.733 32.6687 163.932 32.4443 164.082C32.2227 164.23 31.9784 164.338 31.7113 164.406V164.491C32.0011 164.506 32.2838 164.599 32.5593 164.773C32.8377 164.943 33.0679 165.186 33.2497 165.501C33.4315 165.817 33.5224 166.2 33.5224 166.652C33.5224 167.098 33.4173 167.499 33.2071 167.854C32.9997 168.206 32.6787 168.486 32.244 168.693C31.8093 168.898 31.2539 169 30.5778 169H27.2326ZM28.5494 167.871H30.45C31.0806 167.871 31.5324 167.749 31.8051 167.504C32.0778 167.26 32.2142 166.955 32.2142 166.588C32.2142 166.312 32.1446 166.06 32.0054 165.83C31.8662 165.599 31.6673 165.416 31.4088 165.28C31.1531 165.143 30.8491 165.075 30.4968 165.075H28.5494V167.871ZM28.5494 164.048H30.3136C30.6091 164.048 30.8747 163.991 31.1105 163.878C31.3491 163.764 31.538 163.605 31.6772 163.401C31.8193 163.193 31.8903 162.949 31.8903 162.668C31.8903 162.307 31.7639 162.004 31.511 161.76C31.2582 161.516 30.8704 161.393 30.3477 161.393H28.5494V164.048ZM37.499 169.132C36.8854 169.132 36.3499 168.991 35.8925 168.71C35.4351 168.429 35.08 168.036 34.8272 167.53C34.5743 167.024 34.4479 166.433 34.4479 165.757C34.4479 165.078 34.5743 164.484 34.8272 163.976C35.08 163.467 35.4351 163.072 35.8925 162.791C36.3499 162.51 36.8854 162.369 37.499 162.369C38.1127 162.369 38.6482 162.51 39.1056 162.791C39.5629 163.072 39.9181 163.467 40.1709 163.976C40.4237 164.484 40.5502 165.078 40.5502 165.757C40.5502 166.433 40.4237 167.024 40.1709 167.53C39.9181 168.036 39.5629 168.429 39.1056 168.71C38.6482 168.991 38.1127 169.132 37.499 169.132ZM37.5033 168.062C37.901 168.062 38.2306 167.957 38.4919 167.747C38.7533 167.537 38.9465 167.257 39.0715 166.908C39.1993 166.558 39.2632 166.173 39.2632 165.753C39.2632 165.335 39.1993 164.952 39.0715 164.602C38.9465 164.25 38.7533 163.967 38.4919 163.754C38.2306 163.541 37.901 163.435 37.5033 163.435C37.1027 163.435 36.7703 163.541 36.5061 163.754C36.2448 163.967 36.0502 164.25 35.9223 164.602C35.7973 164.952 35.7348 165.335 35.7348 165.753C35.7348 166.173 35.7973 166.558 35.9223 166.908C36.0502 167.257 36.2448 167.537 36.5061 167.747C36.7703 167.957 37.1027 168.062 37.5033 168.062ZM45.8787 166.286V162.455H47.1571V169H45.9043V167.866H45.8361C45.6855 168.216 45.444 168.507 45.1117 168.74C44.7821 168.97 44.3716 169.085 43.8801 169.085C43.4597 169.085 43.0875 168.993 42.7636 168.808C42.4426 168.621 42.1898 168.344 42.0051 167.977C41.8233 167.611 41.7324 167.158 41.7324 166.618V162.455H43.0065V166.464C43.0065 166.911 43.1301 167.266 43.3773 167.53C43.6244 167.794 43.9455 167.926 44.3403 167.926C44.579 167.926 44.8162 167.866 45.052 167.747C45.2906 167.628 45.4881 167.447 45.6443 167.206C45.8034 166.964 45.8815 166.658 45.8787 166.286ZM49.9033 165.114V169H48.6291V162.455H49.8521V163.52H49.9331C50.0837 163.173 50.3195 162.895 50.6405 162.685C50.9643 162.474 51.372 162.369 51.8635 162.369C52.3095 162.369 52.7001 162.463 53.0354 162.651C53.3706 162.835 53.6305 163.111 53.8152 163.477C53.9999 163.844 54.0922 164.297 54.0922 164.837V169H52.818V164.99C52.818 164.516 52.6945 164.145 52.4473 163.878C52.2001 163.608 51.8606 163.473 51.4288 163.473C51.1334 163.473 50.8706 163.537 50.6405 163.665C50.4132 163.793 50.2328 163.98 50.0993 164.227C49.9686 164.472 49.9033 164.767 49.9033 165.114ZM58.6164 162.455V163.477H55.0411V162.455H58.6164ZM55.9999 160.886H57.2741V167.078C57.2741 167.325 57.311 167.511 57.3849 167.636C57.4587 167.759 57.5539 167.842 57.6704 167.888C57.7897 167.93 57.9189 167.952 58.0581 167.952C58.1604 167.952 58.2499 167.945 58.3266 167.93C58.4033 167.916 58.463 167.905 58.5056 167.896L58.7357 168.949C58.6618 168.977 58.5567 169.006 58.4204 169.034C58.284 169.065 58.1135 169.082 57.909 169.085C57.5738 169.091 57.2613 169.031 56.9715 168.906C56.6817 168.781 56.4474 168.588 56.2684 168.327C56.0894 168.065 55.9999 167.737 55.9999 167.342V160.886ZM60.5912 171.455C60.4009 171.455 60.2276 171.439 60.0713 171.408C59.9151 171.379 59.7986 171.348 59.7219 171.314L60.0287 170.27C60.2617 170.332 60.4691 170.359 60.6509 170.351C60.8327 170.342 60.9932 170.274 61.1324 170.146C61.2745 170.018 61.3995 169.81 61.5074 169.52L61.6651 169.085L59.2702 162.455H60.6338L62.2915 167.534H62.3597L64.0174 162.455H65.3853L62.6878 169.874C62.5628 170.214 62.4037 170.503 62.2105 170.739C62.0174 170.977 61.7873 171.156 61.5202 171.276C61.2532 171.395 60.9435 171.455 60.5912 171.455ZM45.4258 180.446V174.685H46.5721V180.446H45.4258ZM43.1204 178.136V176.99H48.8817V178.136H43.1204ZM27.9534 187.111H26.6239C26.5727 186.827 26.4775 186.577 26.3383 186.361C26.1991 186.145 26.0287 185.962 25.827 185.811C25.6253 185.661 25.3994 185.547 25.1494 185.47C24.9023 185.393 24.6395 185.355 24.3611 185.355C23.8582 185.355 23.4079 185.482 23.0102 185.734C22.6153 185.987 22.3028 186.358 22.0727 186.847C21.8454 187.335 21.7318 187.932 21.7318 188.636C21.7318 189.347 21.8454 189.946 22.0727 190.435C22.3028 190.923 22.6168 191.293 23.0145 191.543C23.4122 191.793 23.8597 191.918 24.3568 191.918C24.6324 191.918 24.8937 191.881 25.1409 191.807C25.3909 191.73 25.6168 191.618 25.8185 191.47C26.0202 191.322 26.1906 191.142 26.3298 190.929C26.4719 190.713 26.5699 190.466 26.6239 190.188L27.9534 190.192C27.8824 190.621 27.7446 191.016 27.5401 191.376C27.3383 191.734 27.0784 192.044 26.7602 192.305C26.4449 192.564 26.0841 192.764 25.6778 192.906C25.2716 193.048 24.8284 193.119 24.3483 193.119C23.5926 193.119 22.9193 192.94 22.3284 192.582C21.7375 192.222 21.2716 191.706 20.9307 191.036C20.5926 190.365 20.4236 189.565 20.4236 188.636C20.4236 187.705 20.594 186.905 20.9349 186.237C21.2758 185.567 21.7418 185.053 22.3327 184.695C22.9236 184.334 23.5954 184.153 24.3483 184.153C24.8114 184.153 25.2432 184.22 25.6437 184.354C26.0472 184.484 26.4094 184.678 26.7304 184.933C27.0514 185.186 27.317 185.496 27.5273 185.862C27.7375 186.226 27.8795 186.642 27.9534 187.111ZM31.9439 193.132C31.3302 193.132 30.7947 192.991 30.3373 192.71C29.88 192.429 29.5248 192.036 29.272 191.53C29.0192 191.024 28.8927 190.433 28.8927 189.757C28.8927 189.078 29.0192 188.484 29.272 187.976C29.5248 187.467 29.88 187.072 30.3373 186.791C30.7947 186.51 31.3302 186.369 31.9439 186.369C32.5575 186.369 33.093 186.51 33.5504 186.791C34.0078 187.072 34.3629 187.467 34.6157 187.976C34.8686 188.484 34.995 189.078 34.995 189.757C34.995 190.433 34.8686 191.024 34.6157 191.53C34.3629 192.036 34.0078 192.429 33.5504 192.71C33.093 192.991 32.5575 193.132 31.9439 193.132ZM31.9481 192.062C32.3459 192.062 32.6754 191.957 32.9368 191.747C33.1981 191.537 33.3913 191.257 33.5163 190.908C33.6442 190.558 33.7081 190.173 33.7081 189.753C33.7081 189.335 33.6442 188.952 33.5163 188.602C33.3913 188.25 33.1981 187.967 32.9368 187.754C32.6754 187.541 32.3459 187.435 31.9481 187.435C31.5476 187.435 31.2152 187.541 30.951 187.754C30.6896 187.967 30.495 188.25 30.3672 188.602C30.2422 188.952 30.1797 189.335 30.1797 189.753C30.1797 190.173 30.2422 190.558 30.3672 190.908C30.495 191.257 30.6896 191.537 30.951 191.747C31.2152 191.957 31.5476 192.062 31.9481 192.062ZM37.4514 184.273V193H36.1772V184.273H37.4514ZM40.1997 184.273V193H38.9255V184.273H40.1997ZM43.5786 193.145C43.1639 193.145 42.7889 193.068 42.4536 192.915C42.1184 192.759 41.8528 192.533 41.6568 192.237C41.4636 191.942 41.367 191.58 41.367 191.151C41.367 190.781 41.438 190.477 41.5801 190.239C41.7221 190 41.9139 189.811 42.1553 189.672C42.3968 189.533 42.6667 189.428 42.965 189.357C43.2633 189.286 43.5673 189.232 43.8769 189.195C44.269 189.149 44.5872 189.112 44.8315 189.084C45.0758 189.053 45.2533 189.003 45.3641 188.935C45.4749 188.866 45.5303 188.756 45.5303 188.602V188.572C45.5303 188.2 45.4252 187.912 45.215 187.707C45.0076 187.503 44.6979 187.401 44.286 187.401C43.857 187.401 43.519 187.496 43.2718 187.686C43.0275 187.874 42.8585 188.082 42.7647 188.312L41.5673 188.04C41.7093 187.642 41.9167 187.321 42.1894 187.077C42.465 186.83 42.7818 186.651 43.1397 186.54C43.4977 186.426 43.8741 186.369 44.269 186.369C44.5303 186.369 44.8073 186.401 45.0999 186.463C45.3954 186.523 45.671 186.634 45.9266 186.795C46.1852 186.957 46.3968 187.189 46.5616 187.49C46.7264 187.788 46.8087 188.176 46.8087 188.653V193H45.5644V192.105H45.5133C45.4309 192.27 45.3073 192.432 45.1426 192.591C44.9778 192.75 44.7661 192.882 44.5076 192.987C44.2491 193.092 43.9394 193.145 43.5786 193.145ZM43.8556 192.122C44.2079 192.122 44.509 192.053 44.759 191.913C45.0119 191.774 45.2036 191.592 45.3343 191.368C45.4678 191.141 45.5346 190.898 45.5346 190.639V189.795C45.4891 189.841 45.4011 189.884 45.2704 189.923C45.1426 189.96 44.9962 189.993 44.8315 190.021C44.6667 190.047 44.5062 190.071 44.3499 190.094C44.1937 190.114 44.063 190.131 43.9579 190.145C43.7107 190.176 43.4849 190.229 43.2803 190.303C43.0786 190.376 42.9167 190.483 42.7945 190.622C42.6752 190.759 42.6156 190.94 42.6156 191.168C42.6156 191.483 42.732 191.722 42.965 191.884C43.1979 192.043 43.4948 192.122 43.8556 192.122ZM51.3212 186.455V187.477H47.7459V186.455H51.3212ZM48.7048 184.886H49.9789V191.078C49.9789 191.325 50.0158 191.511 50.0897 191.636C50.1636 191.759 50.2587 191.842 50.3752 191.888C50.4945 191.93 50.6238 191.952 50.763 191.952C50.8653 191.952 50.9548 191.945 51.0315 191.93C51.1082 191.916 51.1678 191.905 51.2104 191.896L51.4405 192.949C51.3667 192.977 51.2616 193.006 51.1252 193.034C50.9888 193.065 50.8184 193.082 50.6138 193.085C50.2786 193.091 49.9661 193.031 49.6763 192.906C49.3866 192.781 49.1522 192.588 48.9732 192.327C48.7942 192.065 48.7048 191.737 48.7048 191.342V184.886ZM55.2414 193.132C54.5965 193.132 54.0411 192.994 53.5752 192.719C53.1121 192.44 52.7542 192.05 52.5013 191.547C52.2513 191.041 52.1263 190.449 52.1263 189.77C52.1263 189.099 52.2513 188.509 52.5013 187.997C52.7542 187.486 53.1064 187.087 53.5581 186.8C54.0127 186.513 54.5439 186.369 55.1519 186.369C55.5212 186.369 55.8792 186.43 56.2258 186.553C56.5724 186.675 56.8834 186.866 57.159 187.128C57.4346 187.389 57.6519 187.729 57.811 188.146C57.9701 188.561 58.0496 189.065 58.0496 189.659V190.111H52.8465V189.156H56.801C56.801 188.821 56.7329 188.524 56.5965 188.266C56.4601 188.004 56.2684 187.798 56.0212 187.648C55.7769 187.497 55.49 187.422 55.1604 187.422C54.8025 187.422 54.49 187.51 54.2229 187.686C53.9587 187.859 53.7542 188.087 53.6093 188.368C53.4672 188.646 53.3962 188.949 53.3962 189.276V190.021C53.3962 190.459 53.4729 190.831 53.6263 191.138C53.7826 191.445 53.9999 191.679 54.2783 191.841C54.5567 192 54.882 192.08 55.2542 192.08C55.4956 192.08 55.7158 192.045 55.9147 191.977C56.1135 191.906 56.2854 191.801 56.4303 191.662C56.5752 191.523 56.686 191.351 56.7627 191.146L57.9687 191.364C57.8721 191.719 57.6988 192.03 57.4488 192.297C57.2016 192.561 56.8905 192.767 56.5155 192.915C56.1434 193.06 55.7187 193.132 55.2414 193.132ZM59.2233 193V186.455H60.4549V187.494H60.523C60.6424 187.142 60.8526 186.865 61.1537 186.663C61.4577 186.459 61.8015 186.357 62.185 186.357C62.2645 186.357 62.3583 186.359 62.4662 186.365C62.577 186.371 62.6637 186.378 62.7262 186.386V187.605C62.675 187.591 62.5841 187.575 62.4534 187.558C62.3228 187.538 62.1921 187.528 62.0614 187.528C61.7603 187.528 61.4918 187.592 61.256 187.72C61.023 187.845 60.8384 188.02 60.702 188.244C60.5657 188.466 60.4975 188.719 60.4975 189.003V193H59.2233ZM65.435 193.145C65.0203 193.145 64.6453 193.068 64.31 192.915C63.9748 192.759 63.7092 192.533 63.5132 192.237C63.32 191.942 63.2234 191.58 63.2234 191.151C63.2234 190.781 63.2944 190.477 63.4365 190.239C63.5785 190 63.7703 189.811 64.0117 189.672C64.2532 189.533 64.5231 189.428 64.8214 189.357C65.1197 189.286 65.4237 189.232 65.7333 189.195C66.1254 189.149 66.4436 189.112 66.6879 189.084C66.9322 189.053 67.1098 189.003 67.2206 188.935C67.3313 188.866 67.3867 188.756 67.3867 188.602V188.572C67.3867 188.2 67.2816 187.912 67.0714 187.707C66.864 187.503 66.5544 187.401 66.1424 187.401C65.7134 187.401 65.3754 187.496 65.1282 187.686C64.8839 187.874 64.7149 188.082 64.6211 188.312L63.4237 188.04C63.5657 187.642 63.7731 187.321 64.0458 187.077C64.3214 186.83 64.6382 186.651 64.9961 186.54C65.3541 186.426 65.7305 186.369 66.1254 186.369C66.3867 186.369 66.6637 186.401 66.9563 186.463C67.2518 186.523 67.5274 186.634 67.7831 186.795C68.0416 186.957 68.2532 187.189 68.418 187.49C68.5828 187.788 68.6652 188.176 68.6652 188.653V193H67.4208V192.105H67.3697C67.2873 192.27 67.1637 192.432 66.999 192.591C66.8342 192.75 66.6225 192.882 66.364 192.987C66.1055 193.092 65.7958 193.145 65.435 193.145ZM65.712 192.122C66.0643 192.122 66.3654 192.053 66.6154 191.913C66.8683 191.774 67.06 191.592 67.1907 191.368C67.3242 191.141 67.391 190.898 67.391 190.639V189.795C67.3456 189.841 67.2575 189.884 67.1268 189.923C66.999 189.96 66.8527 189.993 66.6879 190.021C66.5231 190.047 66.3626 190.071 66.2063 190.094C66.0501 190.114 65.9194 190.131 65.8143 190.145C65.5671 190.176 65.3413 190.229 65.1367 190.303C64.935 190.376 64.7731 190.483 64.6509 190.622C64.5316 190.759 64.472 190.94 64.472 191.168C64.472 191.483 64.5884 191.722 64.8214 191.884C65.0544 192.043 65.3512 192.122 65.712 192.122ZM71.3964 184.273V193H70.1222V184.273H71.3964Z" fill="#AABDC6"/>
<path d="M291 255L291 102" stroke="#AABDC6"/>
<path d="M290.5 102L284.5 110L296.5 110L290.5 102Z" fill="#AABDC6"/>
<rect width="53" height="40" transform="translate(264 157)" fill="#0B0E12"/>
<path d="M271.733 169V160.273H274.929C275.548 160.273 276.061 160.375 276.467 160.58C276.873 160.781 277.177 161.055 277.379 161.402C277.581 161.746 277.681 162.134 277.681 162.565C277.681 162.929 277.615 163.236 277.481 163.486C277.348 163.733 277.169 163.932 276.944 164.082C276.723 164.23 276.478 164.338 276.211 164.406V164.491C276.501 164.506 276.784 164.599 277.059 164.773C277.338 164.943 277.568 165.186 277.75 165.501C277.931 165.817 278.022 166.2 278.022 166.652C278.022 167.098 277.917 167.499 277.707 167.854C277.5 168.206 277.179 168.486 276.744 168.693C276.309 168.898 275.754 169 275.078 169H271.733ZM273.049 167.871H274.95C275.581 167.871 276.032 167.749 276.305 167.504C276.578 167.26 276.714 166.955 276.714 166.588C276.714 166.312 276.645 166.06 276.505 165.83C276.366 165.599 276.167 165.416 275.909 165.28C275.653 165.143 275.349 165.075 274.997 165.075H273.049V167.871ZM273.049 164.048H274.814C275.109 164.048 275.375 163.991 275.61 163.878C275.849 163.764 276.038 163.605 276.177 163.401C276.319 163.193 276.39 162.949 276.39 162.668C276.39 162.307 276.264 162.004 276.011 161.76C275.758 161.516 275.37 161.393 274.848 161.393H273.049V164.048ZM281.999 169.132C281.385 169.132 280.85 168.991 280.392 168.71C279.935 168.429 279.58 168.036 279.327 167.53C279.074 167.024 278.948 166.433 278.948 165.757C278.948 165.078 279.074 164.484 279.327 163.976C279.58 163.467 279.935 163.072 280.392 162.791C280.85 162.51 281.385 162.369 281.999 162.369C282.613 162.369 283.148 162.51 283.606 162.791C284.063 163.072 284.418 163.467 284.671 163.976C284.924 164.484 285.05 165.078 285.05 165.757C285.05 166.433 284.924 167.024 284.671 167.53C284.418 168.036 284.063 168.429 283.606 168.71C283.148 168.991 282.613 169.132 281.999 169.132ZM282.003 168.062C282.401 168.062 282.731 167.957 282.992 167.747C283.253 167.537 283.446 167.257 283.571 166.908C283.699 166.558 283.763 166.173 283.763 165.753C283.763 165.335 283.699 164.952 283.571 164.602C283.446 164.25 283.253 163.967 282.992 163.754C282.731 163.541 282.401 163.435 282.003 163.435C281.603 163.435 281.27 163.541 281.006 163.754C280.745 163.967 280.55 164.25 280.422 164.602C280.297 164.952 280.235 165.335 280.235 165.753C280.235 166.173 280.297 166.558 280.422 166.908C280.55 167.257 280.745 167.537 281.006 167.747C281.27 167.957 281.603 168.062 282.003 168.062ZM290.379 166.286V162.455H291.657V169H290.404V167.866H290.336C290.186 168.216 289.944 168.507 289.612 168.74C289.282 168.97 288.872 169.085 288.38 169.085C287.96 169.085 287.588 168.993 287.264 168.808C286.943 168.621 286.69 168.344 286.505 167.977C286.323 167.611 286.232 167.158 286.232 166.618V162.455H287.507V166.464C287.507 166.911 287.63 167.266 287.877 167.53C288.124 167.794 288.445 167.926 288.84 167.926C289.079 167.926 289.316 167.866 289.552 167.747C289.791 167.628 289.988 167.447 290.144 167.206C290.303 166.964 290.382 166.658 290.379 166.286ZM294.403 165.114V169H293.129V162.455H294.352V163.52H294.433C294.584 163.173 294.819 162.895 295.14 162.685C295.464 162.474 295.872 162.369 296.363 162.369C296.81 162.369 297.2 162.463 297.535 162.651C297.871 162.835 298.131 163.111 298.315 163.477C298.5 163.844 298.592 164.297 298.592 164.837V169H297.318V164.99C297.318 164.516 297.194 164.145 296.947 163.878C296.7 163.608 296.361 163.473 295.929 163.473C295.633 163.473 295.371 163.537 295.14 163.665C294.913 163.793 294.733 163.98 294.599 164.227C294.469 164.472 294.403 164.767 294.403 165.114ZM303.116 162.455V163.477H299.541V162.455H303.116ZM300.5 160.886H301.774V167.078C301.774 167.325 301.811 167.511 301.885 167.636C301.959 167.759 302.054 167.842 302.17 167.888C302.29 167.93 302.419 167.952 302.558 167.952C302.66 167.952 302.75 167.945 302.827 167.93C302.903 167.916 302.963 167.905 303.006 167.896L303.236 168.949C303.162 168.977 303.057 169.006 302.92 169.034C302.784 169.065 302.614 169.082 302.409 169.085C302.074 169.091 301.761 169.031 301.471 168.906C301.182 168.781 300.947 168.588 300.768 168.327C300.589 168.065 300.5 167.737 300.5 167.342V160.886ZM305.091 171.455C304.901 171.455 304.728 171.439 304.571 171.408C304.415 171.379 304.299 171.348 304.222 171.314L304.529 170.27C304.762 170.332 304.969 170.359 305.151 170.351C305.333 170.342 305.493 170.274 305.632 170.146C305.774 170.018 305.899 169.81 306.007 169.52L306.165 169.085L303.77 162.455H305.134L306.792 167.534H306.86L308.517 162.455H309.885L307.188 169.874C307.063 170.214 306.904 170.503 306.711 170.739C306.517 170.977 306.287 171.156 306.02 171.276C305.753 171.395 305.444 171.455 305.091 171.455ZM289.926 180.446V174.685H291.072V180.446H289.926ZM287.62 178.136V176.99H293.382V178.136H287.62ZM272.453 187.111H271.124C271.073 186.827 270.978 186.577 270.838 186.361C270.699 186.145 270.529 185.962 270.327 185.811C270.125 185.661 269.899 185.547 269.649 185.47C269.402 185.393 269.139 185.355 268.861 185.355C268.358 185.355 267.908 185.482 267.51 185.734C267.115 185.987 266.803 186.358 266.573 186.847C266.345 187.335 266.232 187.932 266.232 188.636C266.232 189.347 266.345 189.946 266.573 190.435C266.803 190.923 267.117 191.293 267.514 191.543C267.912 191.793 268.36 191.918 268.857 191.918C269.132 191.918 269.394 191.881 269.641 191.807C269.891 191.73 270.117 191.618 270.318 191.47C270.52 191.322 270.691 191.142 270.83 190.929C270.972 190.713 271.07 190.466 271.124 190.188L272.453 190.192C272.382 190.621 272.245 191.016 272.04 191.376C271.838 191.734 271.578 192.044 271.26 192.305C270.945 192.564 270.584 192.764 270.178 192.906C269.772 193.048 269.328 193.119 268.848 193.119C268.093 193.119 267.419 192.94 266.828 192.582C266.237 192.222 265.772 191.706 265.431 191.036C265.093 190.365 264.924 189.565 264.924 188.636C264.924 187.705 265.094 186.905 265.435 186.237C265.776 185.567 266.242 185.053 266.833 184.695C267.424 184.334 268.095 184.153 268.848 184.153C269.311 184.153 269.743 184.22 270.144 184.354C270.547 184.484 270.909 184.678 271.23 184.933C271.551 185.186 271.817 185.496 272.027 185.862C272.237 186.226 272.38 186.642 272.453 187.111ZM276.444 193.132C275.83 193.132 275.295 192.991 274.837 192.71C274.38 192.429 274.025 192.036 273.772 191.53C273.519 191.024 273.393 190.433 273.393 189.757C273.393 189.078 273.519 188.484 273.772 187.976C274.025 187.467 274.38 187.072 274.837 186.791C275.295 186.51 275.83 186.369 276.444 186.369C277.058 186.369 277.593 186.51 278.05 186.791C278.508 187.072 278.863 187.467 279.116 187.976C279.369 188.484 279.495 189.078 279.495 189.757C279.495 190.433 279.369 191.024 279.116 191.53C278.863 192.036 278.508 192.429 278.05 192.71C277.593 192.991 277.058 193.132 276.444 193.132ZM276.448 192.062C276.846 192.062 277.175 191.957 277.437 191.747C277.698 191.537 277.891 191.257 278.016 190.908C278.144 190.558 278.208 190.173 278.208 189.753C278.208 189.335 278.144 188.952 278.016 188.602C277.891 188.25 277.698 187.967 277.437 187.754C277.175 187.541 276.846 187.435 276.448 187.435C276.048 187.435 275.715 187.541 275.451 187.754C275.19 187.967 274.995 188.25 274.867 188.602C274.742 188.952 274.68 189.335 274.68 189.753C274.68 190.173 274.742 190.558 274.867 190.908C274.995 191.257 275.19 191.537 275.451 191.747C275.715 191.957 276.048 192.062 276.448 192.062ZM281.951 184.273V193H280.677V184.273H281.951ZM284.7 184.273V193H283.426V184.273H284.7ZM288.079 193.145C287.664 193.145 287.289 193.068 286.954 192.915C286.618 192.759 286.353 192.533 286.157 192.237C285.964 191.942 285.867 191.58 285.867 191.151C285.867 190.781 285.938 190.477 286.08 190.239C286.222 190 286.414 189.811 286.655 189.672C286.897 189.533 287.167 189.428 287.465 189.357C287.763 189.286 288.067 189.232 288.377 189.195C288.769 189.149 289.087 189.112 289.331 189.084C289.576 189.053 289.753 189.003 289.864 188.935C289.975 188.866 290.03 188.756 290.03 188.602V188.572C290.03 188.2 289.925 187.912 289.715 187.707C289.508 187.503 289.198 187.401 288.786 187.401C288.357 187.401 288.019 187.496 287.772 187.686C287.527 187.874 287.358 188.082 287.265 188.312L286.067 188.04C286.209 187.642 286.417 187.321 286.689 187.077C286.965 186.83 287.282 186.651 287.64 186.54C287.998 186.426 288.374 186.369 288.769 186.369C289.03 186.369 289.307 186.401 289.6 186.463C289.895 186.523 290.171 186.634 290.427 186.795C290.685 186.957 290.897 187.189 291.062 187.49C291.226 187.788 291.309 188.176 291.309 188.653V193H290.064V192.105H290.013C289.931 192.27 289.807 192.432 289.643 192.591C289.478 192.75 289.266 192.882 289.008 192.987C288.749 193.092 288.439 193.145 288.079 193.145ZM288.356 192.122C288.708 192.122 289.009 192.053 289.259 191.913C289.512 191.774 289.704 191.592 289.834 191.368C289.968 191.141 290.035 190.898 290.035 190.639V189.795C289.989 189.841 289.901 189.884 289.77 189.923C289.643 189.96 289.496 189.993 289.331 190.021C289.167 190.047 289.006 190.071 288.85 190.094C288.694 190.114 288.563 190.131 288.458 190.145C288.211 190.176 287.985 190.229 287.78 190.303C287.579 190.376 287.417 190.483 287.295 190.622C287.175 190.759 287.116 190.94 287.116 191.168C287.116 191.483 287.232 191.722 287.465 191.884C287.698 192.043 287.995 192.122 288.356 192.122ZM295.821 186.455V187.477H292.246V186.455H295.821ZM293.205 184.886H294.479V191.078C294.479 191.325 294.516 191.511 294.59 191.636C294.664 191.759 294.759 191.842 294.875 191.888C294.995 191.93 295.124 191.952 295.263 191.952C295.365 191.952 295.455 191.945 295.531 191.93C295.608 191.916 295.668 191.905 295.71 191.896L295.941 192.949C295.867 192.977 295.762 193.006 295.625 193.034C295.489 193.065 295.318 193.082 295.114 193.085C294.779 193.091 294.466 193.031 294.176 192.906C293.887 192.781 293.652 192.588 293.473 192.327C293.294 192.065 293.205 191.737 293.205 191.342V184.886ZM299.741 193.132C299.096 193.132 298.541 192.994 298.075 192.719C297.612 192.44 297.254 192.05 297.001 191.547C296.751 191.041 296.626 190.449 296.626 189.77C296.626 189.099 296.751 188.509 297.001 187.997C297.254 187.486 297.606 187.087 298.058 186.8C298.513 186.513 299.044 186.369 299.652 186.369C300.021 186.369 300.379 186.43 300.726 186.553C301.072 186.675 301.383 186.866 301.659 187.128C301.935 187.389 302.152 187.729 302.311 188.146C302.47 188.561 302.55 189.065 302.55 189.659V190.111H297.346V189.156H301.301C301.301 188.821 301.233 188.524 301.096 188.266C300.96 188.004 300.768 187.798 300.521 187.648C300.277 187.497 299.99 187.422 299.66 187.422C299.302 187.422 298.99 187.51 298.723 187.686C298.459 187.859 298.254 188.087 298.109 188.368C297.967 188.646 297.896 188.949 297.896 189.276V190.021C297.896 190.459 297.973 190.831 298.126 191.138C298.283 191.445 298.5 191.679 298.778 191.841C299.057 192 299.382 192.08 299.754 192.08C299.996 192.08 300.216 192.045 300.415 191.977C300.614 191.906 300.785 191.801 300.93 191.662C301.075 191.523 301.186 191.351 301.263 191.146L302.469 191.364C302.372 191.719 302.199 192.03 301.949 192.297C301.702 192.561 301.391 192.767 301.016 192.915C300.643 193.06 300.219 193.132 299.741 193.132ZM303.723 193V186.455H304.955V187.494H305.023C305.142 187.142 305.353 186.865 305.654 186.663C305.958 186.459 306.301 186.357 306.685 186.357C306.765 186.357 306.858 186.359 306.966 186.365C307.077 186.371 307.164 186.378 307.226 186.386V187.605C307.175 187.591 307.084 187.575 306.953 187.558C306.823 187.538 306.692 187.528 306.561 187.528C306.26 187.528 305.992 187.592 305.756 187.72C305.523 187.845 305.338 188.02 305.202 188.244C305.066 188.466 304.997 188.719 304.997 189.003V193H303.723ZM309.935 193.145C309.52 193.145 309.145 193.068 308.81 192.915C308.475 192.759 308.209 192.533 308.013 192.237C307.82 191.942 307.723 191.58 307.723 191.151C307.723 190.781 307.794 190.477 307.936 190.239C308.079 190 308.27 189.811 308.512 189.672C308.753 189.533 309.023 189.428 309.321 189.357C309.62 189.286 309.924 189.232 310.233 189.195C310.625 189.149 310.944 189.112 311.188 189.084C311.432 189.053 311.61 189.003 311.721 188.935C311.831 188.866 311.887 188.756 311.887 188.602V188.572C311.887 188.2 311.782 187.912 311.571 187.707C311.364 187.503 311.054 187.401 310.642 187.401C310.213 187.401 309.875 187.496 309.628 187.686C309.384 187.874 309.215 188.082 309.121 188.312L307.924 188.04C308.066 187.642 308.273 187.321 308.546 187.077C308.821 186.83 309.138 186.651 309.496 186.54C309.854 186.426 310.23 186.369 310.625 186.369C310.887 186.369 311.164 186.401 311.456 186.463C311.752 186.523 312.027 186.634 312.283 186.795C312.542 186.957 312.753 187.189 312.918 187.49C313.083 187.788 313.165 188.176 313.165 188.653V193H311.921V192.105H311.87C311.787 192.27 311.664 192.432 311.499 192.591C311.334 192.75 311.123 192.882 310.864 192.987C310.605 193.092 310.296 193.145 309.935 193.145ZM310.212 192.122C310.564 192.122 310.865 192.053 311.115 191.913C311.368 191.774 311.56 191.592 311.691 191.368C311.824 191.141 311.891 190.898 311.891 190.639V189.795C311.846 189.841 311.757 189.884 311.627 189.923C311.499 189.96 311.353 189.993 311.188 190.021C311.023 190.047 310.863 190.071 310.706 190.094C310.55 190.114 310.419 190.131 310.314 190.145C310.067 190.176 309.841 190.229 309.637 190.303C309.435 190.376 309.273 190.483 309.151 190.622C309.032 190.759 308.972 190.94 308.972 191.168C308.972 191.483 309.088 191.722 309.321 191.884C309.554 192.043 309.851 192.122 310.212 192.122ZM315.896 184.273V193H314.622V184.273H315.896Z" fill="#AABDC6"/>
<path d="M262.453 90.6108H261.124C261.073 90.3267 260.978 90.0767 260.838 89.8608C260.699 89.6449 260.529 89.4616 260.327 89.3111C260.125 89.1605 259.899 89.0469 259.649 88.9702C259.402 88.8935 259.139 88.8551 258.861 88.8551C258.358 88.8551 257.908 88.9815 257.51 89.2344C257.115 89.4872 256.803 89.858 256.573 90.3466C256.345 90.8352 256.232 91.4318 256.232 92.1364C256.232 92.8466 256.345 93.446 256.573 93.9347C256.803 94.4233 257.117 94.7926 257.514 95.0426C257.912 95.2926 258.36 95.4176 258.857 95.4176C259.132 95.4176 259.394 95.3807 259.641 95.3068C259.891 95.2301 260.117 95.1179 260.318 94.9702C260.52 94.8224 260.691 94.642 260.83 94.429C260.972 94.2131 261.07 93.9659 261.124 93.6875L262.453 93.6918C262.382 94.1207 262.245 94.5156 262.04 94.8764C261.838 95.2344 261.578 95.544 261.26 95.8054C260.945 96.0639 260.584 96.2642 260.178 96.4062C259.772 96.5483 259.328 96.6193 258.848 96.6193C258.093 96.6193 257.419 96.4403 256.828 96.0824C256.237 95.7216 255.772 95.206 255.431 94.5355C255.093 93.8651 254.924 93.0653 254.924 92.1364C254.924 91.2045 255.094 90.4048 255.435 89.7372C255.776 89.0668 256.242 88.5526 256.833 88.1946C257.424 87.8338 258.095 87.6534 258.848 87.6534C259.311 87.6534 259.743 87.7202 260.144 87.8537C260.547 87.9844 260.909 88.1776 261.23 88.4332C261.551 88.6861 261.817 88.9957 262.027 89.3622C262.237 89.7259 262.38 90.142 262.453 90.6108ZM266.444 96.6321C265.83 96.6321 265.295 96.4915 264.837 96.2102C264.38 95.929 264.025 95.5355 263.772 95.0298C263.519 94.5241 263.393 93.9332 263.393 93.2571C263.393 92.5781 263.519 91.9844 263.772 91.4759C264.025 90.9673 264.38 90.5724 264.837 90.2912C265.295 90.0099 265.83 89.8693 266.444 89.8693C267.058 89.8693 267.593 90.0099 268.05 90.2912C268.508 90.5724 268.863 90.9673 269.116 91.4759C269.369 91.9844 269.495 92.5781 269.495 93.2571C269.495 93.9332 269.369 94.5241 269.116 95.0298C268.863 95.5355 268.508 95.929 268.05 96.2102C267.593 96.4915 267.058 96.6321 266.444 96.6321ZM266.448 95.5625C266.846 95.5625 267.175 95.4574 267.437 95.2472C267.698 95.0369 267.891 94.7571 268.016 94.4077C268.144 94.0582 268.208 93.6733 268.208 93.2528C268.208 92.8352 268.144 92.4517 268.016 92.1023C267.891 91.75 267.698 91.4673 267.437 91.2543C267.175 91.0412 266.846 90.9347 266.448 90.9347C266.048 90.9347 265.715 91.0412 265.451 91.2543C265.19 91.4673 264.995 91.75 264.867 92.1023C264.742 92.4517 264.68 92.8352 264.68 93.2528C264.68 93.6733 264.742 94.0582 264.867 94.4077C264.995 94.7571 265.19 95.0369 265.451 95.2472C265.715 95.4574 266.048 95.5625 266.448 95.5625ZM271.951 87.7727V96.5H270.677V87.7727H271.951ZM274.7 87.7727V96.5H273.426V87.7727H274.7ZM278.079 96.6449C277.664 96.6449 277.289 96.5682 276.954 96.4148C276.618 96.2585 276.353 96.0327 276.157 95.7372C275.964 95.4418 275.867 95.0795 275.867 94.6506C275.867 94.2812 275.938 93.9773 276.08 93.7386C276.222 93.5 276.414 93.3111 276.655 93.1719C276.897 93.0327 277.167 92.9276 277.465 92.8565C277.763 92.7855 278.067 92.7315 278.377 92.6946C278.769 92.6491 279.087 92.6122 279.331 92.5838C279.576 92.5526 279.753 92.5028 279.864 92.4347C279.975 92.3665 280.03 92.2557 280.03 92.1023V92.0724C280.03 91.7003 279.925 91.4119 279.715 91.2074C279.508 91.0028 279.198 90.9006 278.786 90.9006C278.357 90.9006 278.019 90.9957 277.772 91.1861C277.527 91.3736 277.358 91.5824 277.265 91.8125L276.067 91.5398C276.209 91.142 276.417 90.821 276.689 90.5767C276.965 90.3295 277.282 90.1506 277.64 90.0398C277.998 89.9261 278.374 89.8693 278.769 89.8693C279.03 89.8693 279.307 89.9006 279.6 89.9631C279.895 90.0227 280.171 90.1335 280.427 90.2955C280.685 90.4574 280.897 90.6889 281.062 90.9901C281.226 91.2884 281.309 91.6761 281.309 92.1534V96.5H280.064V95.6051H280.013C279.931 95.7699 279.807 95.9318 279.643 96.0909C279.478 96.25 279.266 96.3821 279.008 96.4872C278.749 96.5923 278.439 96.6449 278.079 96.6449ZM278.356 95.6222C278.708 95.6222 279.009 95.5526 279.259 95.4134C279.512 95.2741 279.704 95.0923 279.834 94.8679C279.968 94.6406 280.035 94.3977 280.035 94.1392V93.2955C279.989 93.3409 279.901 93.3835 279.77 93.4233C279.643 93.4602 279.496 93.4929 279.331 93.5213C279.167 93.5469 279.006 93.571 278.85 93.5938C278.694 93.6136 278.563 93.6307 278.458 93.6449C278.211 93.6761 277.985 93.7287 277.78 93.8026C277.579 93.8764 277.417 93.983 277.295 94.1222C277.175 94.2585 277.116 94.4403 277.116 94.6676C277.116 94.983 277.232 95.2216 277.465 95.3835C277.698 95.5426 277.995 95.6222 278.356 95.6222ZM285.821 89.9545V90.9773H282.246V89.9545H285.821ZM283.205 88.3864H284.479V94.5781C284.479 94.8253 284.516 95.0114 284.59 95.1364C284.664 95.2585 284.759 95.3423 284.875 95.3878C284.995 95.4304 285.124 95.4517 285.263 95.4517C285.365 95.4517 285.455 95.4446 285.531 95.4304C285.608 95.4162 285.668 95.4048 285.71 95.3963L285.941 96.4489C285.867 96.4773 285.762 96.5057 285.625 96.5341C285.489 96.5653 285.318 96.5824 285.114 96.5852C284.779 96.5909 284.466 96.5312 284.176 96.4062C283.887 96.2812 283.652 96.0881 283.473 95.8267C283.294 95.5653 283.205 95.2372 283.205 94.8423V88.3864ZM289.741 96.6321C289.096 96.6321 288.541 96.4943 288.075 96.2188C287.612 95.9403 287.254 95.5497 287.001 95.0469C286.751 94.5412 286.626 93.9489 286.626 93.2699C286.626 92.5994 286.751 92.0085 287.001 91.4972C287.254 90.9858 287.606 90.5866 288.058 90.2997C288.513 90.0128 289.044 89.8693 289.652 89.8693C290.021 89.8693 290.379 89.9304 290.726 90.0526C291.072 90.1747 291.383 90.3665 291.659 90.6278C291.935 90.8892 292.152 91.2287 292.311 91.6463C292.47 92.0611 292.55 92.5653 292.55 93.1591V93.6108H287.346V92.6562H291.301C291.301 92.321 291.233 92.0241 291.096 91.7656C290.96 91.5043 290.768 91.2983 290.521 91.1477C290.277 90.9972 289.99 90.9219 289.66 90.9219C289.302 90.9219 288.99 91.0099 288.723 91.1861C288.459 91.3594 288.254 91.5866 288.109 91.8679C287.967 92.1463 287.896 92.4489 287.896 92.7756V93.5213C287.896 93.9588 287.973 94.331 288.126 94.6378C288.283 94.9446 288.5 95.179 288.778 95.3409C289.057 95.5 289.382 95.5795 289.754 95.5795C289.996 95.5795 290.216 95.5455 290.415 95.4773C290.614 95.4062 290.785 95.3011 290.93 95.1619C291.075 95.0227 291.186 94.8509 291.263 94.6463L292.469 94.8636C292.372 95.2187 292.199 95.5298 291.949 95.7969C291.702 96.0611 291.391 96.267 291.016 96.4148C290.643 96.5597 290.219 96.6321 289.741 96.6321ZM293.723 96.5V89.9545H294.955V90.9943H295.023C295.142 90.642 295.353 90.3651 295.654 90.1634C295.958 89.9588 296.301 89.8565 296.685 89.8565C296.765 89.8565 296.858 89.8594 296.966 89.8651C297.077 89.8707 297.164 89.8778 297.226 89.8864V91.1051C297.175 91.0909 297.084 91.0753 296.953 91.0582C296.823 91.0384 296.692 91.0284 296.561 91.0284C296.26 91.0284 295.992 91.0923 295.756 91.2202C295.523 91.3452 295.338 91.5199 295.202 91.7443C295.066 91.9659 294.997 92.2187 294.997 92.5028V96.5H293.723ZM299.935 96.6449C299.52 96.6449 299.145 96.5682 298.81 96.4148C298.475 96.2585 298.209 96.0327 298.013 95.7372C297.82 95.4418 297.723 95.0795 297.723 94.6506C297.723 94.2812 297.794 93.9773 297.936 93.7386C298.079 93.5 298.27 93.3111 298.512 93.1719C298.753 93.0327 299.023 92.9276 299.321 92.8565C299.62 92.7855 299.924 92.7315 300.233 92.6946C300.625 92.6491 300.944 92.6122 301.188 92.5838C301.432 92.5526 301.61 92.5028 301.721 92.4347C301.831 92.3665 301.887 92.2557 301.887 92.1023V92.0724C301.887 91.7003 301.782 91.4119 301.571 91.2074C301.364 91.0028 301.054 90.9006 300.642 90.9006C300.213 90.9006 299.875 90.9957 299.628 91.1861C299.384 91.3736 299.215 91.5824 299.121 91.8125L297.924 91.5398C298.066 91.142 298.273 90.821 298.546 90.5767C298.821 90.3295 299.138 90.1506 299.496 90.0398C299.854 89.9261 300.23 89.8693 300.625 89.8693C300.887 89.8693 301.164 89.9006 301.456 89.9631C301.752 90.0227 302.027 90.1335 302.283 90.2955C302.542 90.4574 302.753 90.6889 302.918 90.9901C303.083 91.2884 303.165 91.6761 303.165 92.1534V96.5H301.921V95.6051H301.87C301.787 95.7699 301.664 95.9318 301.499 96.0909C301.334 96.25 301.123 96.3821 300.864 96.4872C300.605 96.5923 300.296 96.6449 299.935 96.6449ZM300.212 95.6222C300.564 95.6222 300.865 95.5526 301.115 95.4134C301.368 95.2741 301.56 95.0923 301.691 94.8679C301.824 94.6406 301.891 94.3977 301.891 94.1392V93.2955C301.846 93.3409 301.757 93.3835 301.627 93.4233C301.499 93.4602 301.353 93.4929 301.188 93.5213C301.023 93.5469 300.863 93.571 300.706 93.5938C300.55 93.6136 300.419 93.6307 300.314 93.6449C300.067 93.6761 299.841 93.7287 299.637 93.8026C299.435 93.8764 299.273 93.983 299.151 94.1222C299.032 94.2585 298.972 94.4403 298.972 94.6676C298.972 94.983 299.088 95.2216 299.321 95.3835C299.554 95.5426 299.851 95.6222 300.212 95.6222ZM305.896 87.7727V96.5H304.622V87.7727H305.896Z" fill="#AABDC6"/>
<rect x="246" y="83" width="90" height="19" rx="9.5" stroke="#AABDC6"/>
</svg>
