<svg width="1402" height="641" viewBox="0 0 1402 641" fill="none" xmlns="http://www.w3.org/2000/svg">
<path d="M30.1421 20.5455H32.7842V32.0256C32.7842 33.2472 32.4972 34.3295 31.9234 35.2727C31.3495 36.2102 30.5427 36.9489 29.5029 37.4886C28.4631 38.0227 27.2444 38.2898 25.8467 38.2898C24.4546 38.2898 23.2387 38.0227 22.1989 37.4886C21.1592 36.9489 20.3523 36.2102 19.7785 35.2727C19.2046 34.3295 18.9177 33.2472 18.9177 32.0256V20.5455H21.5512V31.8125C21.5512 32.6023 21.7245 33.304 22.0711 33.9176C22.4234 34.5312 22.9205 35.0142 23.5626 35.3665C24.2046 35.7131 24.966 35.8864 25.8467 35.8864C26.733 35.8864 27.4972 35.7131 28.1393 35.3665C28.787 35.0142 29.2813 34.5312 29.6222 33.9176C29.9688 33.304 30.1421 32.6023 30.1421 31.8125V20.5455ZM45.6529 25.1307C45.562 24.3239 45.187 23.6989 44.5279 23.2557C43.8688 22.8068 43.0392 22.5824 42.0392 22.5824C41.3233 22.5824 40.704 22.696 40.1813 22.9233C39.6586 23.1449 39.2523 23.4517 38.9625 23.8438C38.6784 24.2301 38.5364 24.6705 38.5364 25.1648C38.5364 25.5795 38.633 25.9375 38.8262 26.2386C39.025 26.5398 39.2836 26.7926 39.6017 26.9972C39.9256 27.196 40.2722 27.3636 40.6415 27.5C41.0108 27.6307 41.3659 27.7386 41.7069 27.8239L43.4114 28.267C43.9682 28.4034 44.5392 28.5881 45.1245 28.821C45.7097 29.054 46.2523 29.3608 46.7523 29.7415C47.2523 30.1222 47.6557 30.5938 47.9625 31.1562C48.275 31.7188 48.4313 32.392 48.4313 33.1761C48.4313 34.1648 48.1756 35.0426 47.6642 35.8097C47.1586 36.5767 46.4228 37.1818 45.4569 37.625C44.4966 38.0682 43.3347 38.2898 41.9711 38.2898C40.6642 38.2898 39.5336 38.0824 38.579 37.6676C37.6245 37.2528 36.8773 36.6648 36.3375 35.9034C35.7978 35.1364 35.4995 34.2273 35.4426 33.1761H38.0847C38.1358 33.8068 38.3404 34.3324 38.6983 34.7528C39.062 35.1676 39.525 35.4773 40.0875 35.6818C40.6557 35.8807 41.2779 35.9801 41.954 35.9801C42.6983 35.9801 43.3603 35.8636 43.9398 35.6307C44.525 35.392 44.9853 35.0625 45.3205 34.642C45.6557 34.2159 45.8233 33.7187 45.8233 33.1506C45.8233 32.6335 45.6756 32.2102 45.3801 31.8807C45.0904 31.5511 44.6955 31.2784 44.1955 31.0625C43.7012 30.8466 43.1415 30.6562 42.5165 30.4915L40.454 29.929C39.0563 29.5483 37.9483 28.9886 37.1301 28.25C36.3176 27.5114 35.9114 26.5341 35.9114 25.3182C35.9114 24.3125 36.1841 23.4347 36.7296 22.6847C37.275 21.9347 38.0137 21.3523 38.9455 20.9375C39.8773 20.517 40.9284 20.3068 42.0989 20.3068C43.2807 20.3068 44.3233 20.5142 45.2267 20.929C46.1358 21.3438 46.8517 21.9148 47.3745 22.642C47.8972 23.3636 48.1699 24.1932 48.1926 25.1307H45.6529ZM51.0983 38V20.5455H62.0415V22.8125H53.7318V28.1307H61.4705V30.3892H53.7318V35.733H62.1438V38H51.0983ZM65.0792 38V20.5455H71.3008C72.6531 20.5455 73.7753 20.7784 74.6673 21.2443C75.565 21.7102 76.2355 22.3551 76.6787 23.179C77.1219 23.9972 77.3434 24.9432 77.3434 26.017C77.3434 27.0852 77.119 28.0256 76.6701 28.8381C76.227 29.6449 75.5565 30.2727 74.6588 30.7216C73.7667 31.1705 72.6446 31.3949 71.2923 31.3949H66.5792V29.1278H71.0537C71.9059 29.1278 72.5991 29.0057 73.1332 28.7614C73.673 28.517 74.0679 28.1619 74.3179 27.696C74.5679 27.2301 74.6929 26.6705 74.6929 26.017C74.6929 25.358 74.565 24.7869 74.3094 24.304C74.0594 23.821 73.6645 23.4517 73.1247 23.196C72.5906 22.9347 71.8889 22.804 71.0196 22.804H67.7128V38H65.0792ZM73.6957 30.125L78.0082 38H75.0082L70.7809 30.125H73.6957Z" fill="#AABDC6"/>
<rect x="1.00006" y="1" width="217" height="93" stroke="#AABDC6" stroke-width="2"/>
<path d="M1211.44 21.1307C1211.35 20.3239 1210.97 19.6989 1210.31 19.2557C1209.65 18.8068 1208.82 18.5824 1207.82 18.5824C1207.11 18.5824 1206.49 18.696 1205.97 18.9233C1205.44 19.1449 1205.04 19.4517 1204.75 19.8438C1204.46 20.2301 1204.32 20.6705 1204.32 21.1648C1204.32 21.5795 1204.42 21.9375 1204.61 22.2386C1204.81 22.5398 1205.07 22.7926 1205.39 22.9972C1205.71 23.196 1206.06 23.3636 1206.43 23.5C1206.8 23.6307 1207.15 23.7386 1207.49 23.8239L1209.2 24.267C1209.75 24.4034 1210.32 24.5881 1210.91 24.821C1211.49 25.054 1212.04 25.3608 1212.54 25.7415C1213.04 26.1222 1213.44 26.5938 1213.75 27.1562C1214.06 27.7188 1214.22 28.392 1214.22 29.1761C1214.22 30.1648 1213.96 31.0426 1213.45 31.8097C1212.94 32.5767 1212.21 33.1818 1211.24 33.625C1210.28 34.0682 1209.12 34.2898 1207.76 34.2898C1206.45 34.2898 1205.32 34.0824 1204.36 33.6676C1203.41 33.2528 1202.66 32.6648 1202.12 31.9034C1201.58 31.1364 1201.28 30.2273 1201.23 29.1761H1203.87C1203.92 29.8068 1204.13 30.3324 1204.48 30.7528C1204.85 31.1676 1205.31 31.4773 1205.87 31.6818C1206.44 31.8807 1207.06 31.9801 1207.74 31.9801C1208.48 31.9801 1209.14 31.8636 1209.72 31.6307C1210.31 31.392 1210.77 31.0625 1211.11 30.642C1211.44 30.2159 1211.61 29.7187 1211.61 29.1506C1211.61 28.6335 1211.46 28.2102 1211.16 27.8807C1210.88 27.5511 1210.48 27.2784 1209.98 27.0625C1209.49 26.8466 1208.93 26.6562 1208.3 26.4915L1206.24 25.929C1204.84 25.5483 1203.73 24.9886 1202.91 24.25C1202.1 23.5114 1201.7 22.5341 1201.7 21.3182C1201.7 20.3125 1201.97 19.4347 1202.51 18.6847C1203.06 17.9347 1203.8 17.3523 1204.73 16.9375C1205.66 16.517 1206.71 16.3068 1207.88 16.3068C1209.07 16.3068 1210.11 16.5142 1211.01 16.929C1211.92 17.3438 1212.64 17.9148 1213.16 18.642C1213.68 19.3636 1213.95 20.1932 1213.98 21.1307H1211.44ZM1216.02 18.8125V16.5455H1229.53V18.8125H1224.08V34H1221.46V18.8125H1216.02ZM1246.45 25.2727C1246.45 27.1364 1246.11 28.7386 1245.43 30.0795C1244.74 31.4148 1243.81 32.4432 1242.62 33.1648C1241.44 33.8807 1240.1 34.2386 1238.59 34.2386C1237.08 34.2386 1235.73 33.8807 1234.54 33.1648C1233.36 32.4432 1232.43 31.4119 1231.75 30.071C1231.06 28.7301 1230.72 27.1307 1230.72 25.2727C1230.72 23.4091 1231.06 21.8097 1231.75 20.4744C1232.43 19.1335 1233.36 18.1051 1234.54 17.3892C1235.73 16.6676 1237.08 16.3068 1238.59 16.3068C1240.1 16.3068 1241.44 16.6676 1242.62 17.3892C1243.81 18.1051 1244.74 19.1335 1245.43 20.4744C1246.11 21.8097 1246.45 23.4091 1246.45 25.2727ZM1243.84 25.2727C1243.84 23.8523 1243.61 22.6562 1243.15 21.6847C1242.69 20.7074 1242.07 19.9688 1241.27 19.4688C1240.48 18.9631 1239.59 18.7102 1238.59 18.7102C1237.58 18.7102 1236.69 18.9631 1235.9 19.4688C1235.11 19.9688 1234.48 20.7074 1234.02 21.6847C1233.57 22.6562 1233.34 23.8523 1233.34 25.2727C1233.34 26.6932 1233.57 27.892 1234.02 28.8693C1234.48 29.8409 1235.11 30.5795 1235.9 31.0852C1236.69 31.5852 1237.58 31.8352 1238.59 31.8352C1239.59 31.8352 1240.48 31.5852 1241.27 31.0852C1242.07 30.5795 1242.69 29.8409 1243.15 28.8693C1243.61 27.892 1243.84 26.6932 1243.84 25.2727ZM1249.25 34V16.5455H1255.47C1256.82 16.5455 1257.95 16.7784 1258.84 17.2443C1259.74 17.7102 1260.41 18.3551 1260.85 19.179C1261.29 19.9972 1261.52 20.9432 1261.52 22.017C1261.52 23.0852 1261.29 24.0256 1260.84 24.8381C1260.4 25.6449 1259.73 26.2727 1258.83 26.7216C1257.94 27.1705 1256.82 27.3949 1255.46 27.3949H1250.75V25.1278H1255.23C1256.08 25.1278 1256.77 25.0057 1257.31 24.7614C1257.84 24.517 1258.24 24.1619 1258.49 23.696C1258.74 23.2301 1258.86 22.6705 1258.86 22.017C1258.86 21.358 1258.74 20.7869 1258.48 20.304C1258.23 19.821 1257.84 19.4517 1257.3 19.196C1256.76 18.9347 1256.06 18.804 1255.19 18.804H1251.88V34H1249.25ZM1257.87 26.125L1262.18 34H1259.18L1254.95 26.125H1257.87ZM1265.71 34H1262.92L1269.2 16.5455H1272.24L1278.52 34H1275.73L1270.79 19.7159H1270.66L1265.71 34ZM1266.18 27.1648H1275.25V29.3807H1266.18V27.1648ZM1291.56 22.0597C1291.39 21.5426 1291.17 21.0795 1290.89 20.6705C1290.62 20.2557 1290.29 19.9034 1289.91 19.6136C1289.53 19.3182 1289.1 19.0937 1288.61 18.9403C1288.12 18.7869 1287.59 18.7102 1287.01 18.7102C1286.03 18.7102 1285.14 18.9631 1284.36 19.4688C1283.57 19.9744 1282.94 20.7159 1282.48 21.6932C1282.03 22.6648 1281.8 23.8551 1281.8 25.2642C1281.8 26.679 1282.03 27.875 1282.49 28.8523C1282.95 29.8295 1283.58 30.571 1284.38 31.0767C1285.18 31.5824 1286.09 31.8352 1287.12 31.8352C1288.07 31.8352 1288.89 31.642 1289.6 31.2557C1290.31 30.8693 1290.86 30.3239 1291.24 29.6193C1291.63 28.9091 1291.83 28.0739 1291.83 27.1136L1292.51 27.2415H1287.52V25.0682H1294.38V27.054C1294.38 28.5199 1294.07 29.7926 1293.44 30.8722C1292.82 31.946 1291.96 32.7756 1290.87 33.3608C1289.78 33.946 1288.53 34.2386 1287.12 34.2386C1285.54 34.2386 1284.15 33.875 1282.96 33.1477C1281.77 32.4205 1280.84 31.3892 1280.18 30.054C1279.51 28.7131 1279.18 27.1222 1279.18 25.2812C1279.18 23.8892 1279.37 22.6392 1279.76 21.5312C1280.15 20.4233 1280.69 19.483 1281.39 18.7102C1282.09 17.9318 1282.92 17.3381 1283.87 16.929C1284.82 16.5142 1285.87 16.3068 1287 16.3068C1287.94 16.3068 1288.82 16.446 1289.63 16.7244C1290.45 17.0028 1291.18 17.3977 1291.81 17.9091C1292.45 18.4205 1292.99 19.0284 1293.41 19.733C1293.83 20.4318 1294.11 21.2074 1294.26 22.0597H1291.56ZM1297.24 34V16.5455H1308.18V18.8125H1299.87V24.1307H1307.61V26.3892H1299.87V31.733H1308.29V34H1297.24ZM1201.92 58V40.5455H1208.14C1209.5 40.5455 1210.62 40.7926 1211.51 41.2869C1212.41 41.7812 1213.07 42.4574 1213.52 43.3153C1213.96 44.1676 1214.18 45.1278 1214.18 46.196C1214.18 47.2699 1213.96 48.2358 1213.51 49.0938C1213.07 49.946 1212.39 50.6222 1211.5 51.1222C1210.61 51.6165 1209.48 51.8636 1208.13 51.8636H1203.85V49.6307H1207.89C1208.75 49.6307 1209.45 49.483 1209.98 49.1875C1210.51 48.8864 1210.91 48.4773 1211.16 47.9602C1211.41 47.4432 1211.53 46.8551 1211.53 46.196C1211.53 45.5369 1211.41 44.9517 1211.16 44.4403C1210.91 43.929 1210.51 43.5284 1209.97 43.2386C1209.44 42.9489 1208.73 42.804 1207.86 42.804H1204.55V58H1201.92ZM1216.79 58V40.5455H1223.01C1224.36 40.5455 1225.49 40.7784 1226.38 41.2443C1227.28 41.7102 1227.95 42.3551 1228.39 43.179C1228.83 43.9972 1229.05 44.9432 1229.05 46.017C1229.05 47.0852 1228.83 48.0256 1228.38 48.8381C1227.94 49.6449 1227.27 50.2727 1226.37 50.7216C1225.48 51.1705 1224.35 51.3949 1223 51.3949H1218.29V49.1278H1222.76C1223.62 49.1278 1224.31 49.0057 1224.84 48.7614C1225.38 48.517 1225.78 48.1619 1226.03 47.696C1226.28 47.2301 1226.4 46.6705 1226.4 46.017C1226.4 45.358 1226.28 44.7869 1226.02 44.304C1225.77 43.821 1225.37 43.4517 1224.83 43.196C1224.3 42.9347 1223.6 42.804 1222.73 42.804H1219.42V58H1216.79ZM1225.41 50.125L1229.72 58H1226.72L1222.49 50.125H1225.41ZM1246.94 49.2727C1246.94 51.1364 1246.6 52.7386 1245.92 54.0795C1245.24 55.4148 1244.3 56.4432 1243.11 57.1648C1241.93 57.8807 1240.59 58.2386 1239.08 58.2386C1237.57 58.2386 1236.22 57.8807 1235.03 57.1648C1233.85 56.4432 1232.92 55.4119 1232.24 54.071C1231.56 52.7301 1231.22 51.1307 1231.22 49.2727C1231.22 47.4091 1231.56 45.8097 1232.24 44.4744C1232.92 43.1335 1233.85 42.1051 1235.03 41.3892C1236.22 40.6676 1237.57 40.3068 1239.08 40.3068C1240.59 40.3068 1241.93 40.6676 1243.11 41.3892C1244.3 42.1051 1245.24 43.1335 1245.92 44.4744C1246.6 45.8097 1246.94 47.4091 1246.94 49.2727ZM1244.33 49.2727C1244.33 47.8523 1244.1 46.6562 1243.64 45.6847C1243.19 44.7074 1242.56 43.9688 1241.77 43.4688C1240.98 42.9631 1240.08 42.7102 1239.08 42.7102C1238.08 42.7102 1237.18 42.9631 1236.39 43.4688C1235.6 43.9688 1234.97 44.7074 1234.51 45.6847C1234.06 46.6562 1233.83 47.8523 1233.83 49.2727C1233.83 50.6932 1234.06 51.892 1234.51 52.8693C1234.97 53.8409 1235.6 54.5795 1236.39 55.0852C1237.18 55.5852 1238.08 55.8352 1239.08 55.8352C1240.08 55.8352 1240.98 55.5852 1241.77 55.0852C1242.56 54.5795 1243.19 53.8409 1243.64 52.8693C1244.1 51.892 1244.33 50.6932 1244.33 49.2727ZM1250.4 40.5455L1255.26 54.7614H1255.46L1260.31 40.5455H1263.16L1256.88 58H1253.84L1247.56 40.5455H1250.4ZM1267.83 40.5455V58H1265.2V40.5455H1267.83ZM1276.84 58H1271.19V40.5455H1277.02C1278.73 40.5455 1280.2 40.8949 1281.43 41.5938C1282.65 42.2869 1283.59 43.2841 1284.25 44.5852C1284.91 45.8807 1285.24 47.4347 1285.24 49.2472C1285.24 51.0653 1284.9 52.6278 1284.24 53.9347C1283.58 55.2415 1282.62 56.2472 1281.37 56.9517C1280.12 57.6506 1278.61 58 1276.84 58ZM1273.82 55.6989H1276.7C1278.02 55.6989 1279.13 55.4489 1280.01 54.9489C1280.89 54.4432 1281.55 53.7131 1281.99 52.7585C1282.43 51.7983 1282.64 50.6278 1282.64 49.2472C1282.64 47.8778 1282.43 46.7159 1281.99 45.7614C1281.56 44.8068 1280.91 44.0824 1280.05 43.5881C1279.2 43.0937 1278.13 42.8466 1276.86 42.8466H1273.82V55.6989ZM1288.03 58V40.5455H1298.97V42.8125H1290.66V48.1307H1298.4V50.3892H1290.66V55.733H1299.08V58H1288.03ZM1302.01 58V40.5455H1308.23C1309.58 40.5455 1310.71 40.7784 1311.6 41.2443C1312.5 41.7102 1313.17 42.3551 1313.61 43.179C1314.05 43.9972 1314.28 44.9432 1314.28 46.017C1314.28 47.0852 1314.05 48.0256 1313.6 48.8381C1313.16 49.6449 1312.49 50.2727 1311.59 50.7216C1310.7 51.1705 1309.58 51.3949 1308.22 51.3949H1303.51V49.1278H1307.99C1308.84 49.1278 1309.53 49.0057 1310.06 48.7614C1310.6 48.517 1311 48.1619 1311.25 47.696C1311.5 47.2301 1311.62 46.6705 1311.62 46.017C1311.62 45.358 1311.5 44.7869 1311.24 44.304C1310.99 43.821 1310.6 43.4517 1310.06 43.196C1309.52 42.9347 1308.82 42.804 1307.95 42.804H1304.64V58H1302.01ZM1310.63 50.125L1314.94 58H1311.94L1307.71 50.125H1310.63Z" fill="#AABDC6"/>
<rect x="1184" y="1" width="217" height="173" stroke="#AABDC6" stroke-width="2"/>
<path d="M610.918 38V20.5455H617.31C618.548 20.5455 619.574 20.75 620.386 21.1591C621.199 21.5625 621.807 22.1108 622.21 22.804C622.614 23.4915 622.815 24.267 622.815 25.1307C622.815 25.858 622.682 26.4716 622.415 26.9716C622.148 27.4659 621.79 27.8636 621.341 28.1648C620.898 28.4602 620.409 28.6761 619.875 28.8125V28.983C620.455 29.0114 621.02 29.1989 621.571 29.5455C622.128 29.8864 622.588 30.3722 622.952 31.0028C623.315 31.6335 623.497 32.4006 623.497 33.304C623.497 34.196 623.287 34.9972 622.867 35.7074C622.452 36.4119 621.81 36.9716 620.94 37.3864C620.071 37.7955 618.96 38 617.608 38H610.918ZM613.551 35.7415H617.352C618.614 35.7415 619.517 35.4972 620.063 35.0085C620.608 34.5199 620.881 33.9091 620.881 33.1761C620.881 32.625 620.742 32.1193 620.463 31.6591C620.185 31.1989 619.787 30.8324 619.27 30.5597C618.759 30.2869 618.151 30.1506 617.446 30.1506H613.551V35.7415ZM613.551 28.0966H617.08C617.671 28.0966 618.202 27.983 618.673 27.7557C619.151 27.5284 619.528 27.2102 619.807 26.8011C620.091 26.3864 620.233 25.8977 620.233 25.3352C620.233 24.6136 619.98 24.0085 619.474 23.5199C618.969 23.0312 618.193 22.7869 617.148 22.7869H613.551V28.0966ZM627.615 38H624.82L631.101 20.5455H634.144L640.425 38H637.629L632.695 23.7159H632.558L627.615 38ZM628.084 31.1648H637.152V33.3807H628.084V31.1648ZM656.554 20.5455V38H654.133L645.261 25.1989H645.099V38H642.465V20.5455H644.903L653.784 33.3636H653.946V20.5455H656.554ZM658.569 20.5455H661.56L666.12 28.4801H666.307L670.867 20.5455H673.858L667.526 31.1477V38H664.901V31.1477L658.569 20.5455ZM675.558 38H672.763L679.044 20.5455H682.086L688.368 38H685.572L680.638 23.7159H680.501L675.558 38ZM676.027 31.1648H685.095V33.3807H676.027V31.1648ZM704.496 20.5455V38H702.076L693.204 25.1989H693.042V38H690.408V20.5455H692.846L701.726 33.3636H701.888V20.5455H704.496Z" fill="#AABDC6"/>
<rect x="593" y="1" width="217" height="213" stroke="#AABDC6" stroke-width="2"/>
<path d="M626.08 270.273C626.08 272.136 625.739 273.739 625.057 275.08C624.375 276.415 623.44 277.443 622.253 278.165C621.071 278.881 619.727 279.239 618.222 279.239C616.71 279.239 615.361 278.881 614.173 278.165C612.992 277.443 612.06 276.412 611.378 275.071C610.696 273.73 610.355 272.131 610.355 270.273C610.355 268.409 610.696 266.81 611.378 265.474C612.06 264.134 612.992 263.105 614.173 262.389C615.361 261.668 616.71 261.307 618.222 261.307C619.727 261.307 621.071 261.668 622.253 262.389C623.44 263.105 624.375 264.134 625.057 265.474C625.739 266.81 626.08 268.409 626.08 270.273ZM623.472 270.273C623.472 268.852 623.242 267.656 622.781 266.685C622.327 265.707 621.702 264.969 620.906 264.469C620.117 263.963 619.222 263.71 618.222 263.71C617.216 263.71 616.318 263.963 615.528 264.469C614.739 264.969 614.114 265.707 613.653 266.685C613.199 267.656 612.972 268.852 612.972 270.273C612.972 271.693 613.199 272.892 613.653 273.869C614.114 274.841 614.739 275.58 615.528 276.085C616.318 276.585 617.216 276.835 618.222 276.835C619.222 276.835 620.117 276.585 620.906 276.085C621.702 275.58 622.327 274.841 622.781 273.869C623.242 272.892 623.472 271.693 623.472 270.273ZM628.883 279V261.545H635.105C636.457 261.545 637.579 261.778 638.471 262.244C639.369 262.71 640.039 263.355 640.482 264.179C640.926 264.997 641.147 265.943 641.147 267.017C641.147 268.085 640.923 269.026 640.474 269.838C640.031 270.645 639.36 271.273 638.463 271.722C637.57 272.17 636.448 272.395 635.096 272.395H630.383V270.128H634.857C635.71 270.128 636.403 270.006 636.937 269.761C637.477 269.517 637.872 269.162 638.122 268.696C638.372 268.23 638.497 267.67 638.497 267.017C638.497 266.358 638.369 265.787 638.113 265.304C637.863 264.821 637.468 264.452 636.928 264.196C636.394 263.935 635.693 263.804 634.823 263.804H631.517V279H628.883ZM637.499 271.125L641.812 279H638.812L634.585 271.125H637.499ZM645.346 279H642.551L648.832 261.545H651.875L658.156 279H655.36L650.426 264.716H650.289L645.346 279ZM645.815 272.165H654.883V274.381H645.815V272.165ZM673.873 267.222H671.214C671.112 266.653 670.922 266.153 670.643 265.722C670.365 265.29 670.024 264.923 669.62 264.622C669.217 264.321 668.765 264.094 668.265 263.94C667.771 263.787 667.245 263.71 666.689 263.71C665.683 263.71 664.782 263.963 663.987 264.469C663.197 264.974 662.572 265.716 662.112 266.693C661.657 267.67 661.43 268.864 661.43 270.273C661.43 271.693 661.657 272.892 662.112 273.869C662.572 274.847 663.2 275.585 663.995 276.085C664.791 276.585 665.686 276.835 666.68 276.835C667.231 276.835 667.754 276.761 668.248 276.614C668.748 276.46 669.2 276.236 669.603 275.94C670.007 275.645 670.348 275.284 670.626 274.858C670.91 274.426 671.106 273.932 671.214 273.375L673.873 273.384C673.731 274.241 673.456 275.031 673.047 275.753C672.643 276.469 672.123 277.088 671.487 277.611C670.856 278.128 670.135 278.528 669.322 278.812C668.51 279.097 667.623 279.239 666.663 279.239C665.152 279.239 663.805 278.881 662.623 278.165C661.441 277.443 660.51 276.412 659.828 275.071C659.152 273.73 658.814 272.131 658.814 270.273C658.814 268.409 659.155 266.81 659.836 265.474C660.518 264.134 661.45 263.105 662.632 262.389C663.814 261.668 665.157 261.307 666.663 261.307C667.589 261.307 668.453 261.44 669.254 261.707C670.061 261.969 670.785 262.355 671.427 262.866C672.069 263.372 672.601 263.991 673.021 264.724C673.441 265.452 673.726 266.284 673.873 267.222ZM676.545 279V261.545H679.178V276.733H687.087V279H676.545ZM689.611 279V261.545H700.555V263.812H692.245V269.131H699.984V271.389H692.245V276.733H700.657V279H689.611ZM610.918 303V285.545H621.861V287.812H613.551V293.131H621.29V295.389H613.551V300.733H621.963V303H610.918ZM639.396 291.222H636.737C636.634 290.653 636.444 290.153 636.166 289.722C635.887 289.29 635.546 288.923 635.143 288.622C634.74 288.321 634.288 288.094 633.788 287.94C633.293 287.787 632.768 287.71 632.211 287.71C631.205 287.71 630.305 287.963 629.509 288.469C628.72 288.974 628.095 289.716 627.634 290.693C627.18 291.67 626.953 292.864 626.953 294.273C626.953 295.693 627.18 296.892 627.634 297.869C628.095 298.847 628.722 299.585 629.518 300.085C630.313 300.585 631.208 300.835 632.203 300.835C632.754 300.835 633.276 300.761 633.771 300.614C634.271 300.46 634.722 300.236 635.126 299.94C635.529 299.645 635.87 299.284 636.149 298.858C636.433 298.426 636.629 297.932 636.737 297.375L639.396 297.384C639.254 298.241 638.978 299.031 638.569 299.753C638.166 300.469 637.646 301.088 637.009 301.611C636.379 302.128 635.657 302.528 634.845 302.812C634.032 303.097 633.146 303.239 632.186 303.239C630.674 303.239 629.328 302.881 628.146 302.165C626.964 301.443 626.032 300.412 625.35 299.071C624.674 297.73 624.336 296.131 624.336 294.273C624.336 292.409 624.677 290.81 625.359 289.474C626.041 288.134 626.972 287.105 628.154 286.389C629.336 285.668 630.68 285.307 632.186 285.307C633.112 285.307 633.975 285.44 634.776 285.707C635.583 285.969 636.308 286.355 636.95 286.866C637.592 287.372 638.123 287.991 638.543 288.724C638.964 289.452 639.248 290.284 639.396 291.222ZM657.229 294.273C657.229 296.136 656.888 297.739 656.206 299.08C655.524 300.415 654.59 301.443 653.402 302.165C652.22 302.881 650.877 303.239 649.371 303.239C647.86 303.239 646.51 302.881 645.323 302.165C644.141 301.443 643.209 300.412 642.527 299.071C641.845 297.73 641.505 296.131 641.505 294.273C641.505 292.409 641.845 290.81 642.527 289.474C643.209 288.134 644.141 287.105 645.323 286.389C646.51 285.668 647.86 285.307 649.371 285.307C650.877 285.307 652.22 285.668 653.402 286.389C654.59 287.105 655.524 288.134 656.206 289.474C656.888 290.81 657.229 292.409 657.229 294.273ZM654.621 294.273C654.621 292.852 654.391 291.656 653.931 290.685C653.476 289.707 652.851 288.969 652.056 288.469C651.266 287.963 650.371 287.71 649.371 287.71C648.365 287.71 647.468 287.963 646.678 288.469C645.888 288.969 645.263 289.707 644.803 290.685C644.348 291.656 644.121 292.852 644.121 294.273C644.121 295.693 644.348 296.892 644.803 297.869C645.263 298.841 645.888 299.58 646.678 300.085C647.468 300.585 648.365 300.835 649.371 300.835C650.371 300.835 651.266 300.585 652.056 300.085C652.851 299.58 653.476 298.841 653.931 297.869C654.391 296.892 654.621 295.693 654.621 294.273ZM669.552 290.131C669.461 289.324 669.086 288.699 668.427 288.256C667.768 287.807 666.939 287.582 665.939 287.582C665.223 287.582 664.603 287.696 664.081 287.923C663.558 288.145 663.152 288.452 662.862 288.844C662.578 289.23 662.436 289.67 662.436 290.165C662.436 290.58 662.532 290.937 662.726 291.239C662.924 291.54 663.183 291.793 663.501 291.997C663.825 292.196 664.172 292.364 664.541 292.5C664.91 292.631 665.265 292.739 665.606 292.824L667.311 293.267C667.868 293.403 668.439 293.588 669.024 293.821C669.609 294.054 670.152 294.361 670.652 294.741C671.152 295.122 671.555 295.594 671.862 296.156C672.174 296.719 672.331 297.392 672.331 298.176C672.331 299.165 672.075 300.043 671.564 300.81C671.058 301.577 670.322 302.182 669.356 302.625C668.396 303.068 667.234 303.29 665.87 303.29C664.564 303.29 663.433 303.082 662.478 302.668C661.524 302.253 660.777 301.665 660.237 300.903C659.697 300.136 659.399 299.227 659.342 298.176H661.984C662.035 298.807 662.24 299.332 662.598 299.753C662.961 300.168 663.424 300.477 663.987 300.682C664.555 300.881 665.177 300.98 665.853 300.98C666.598 300.98 667.26 300.864 667.839 300.631C668.424 300.392 668.885 300.062 669.22 299.642C669.555 299.216 669.723 298.719 669.723 298.151C669.723 297.634 669.575 297.21 669.28 296.881C668.99 296.551 668.595 296.278 668.095 296.062C667.601 295.847 667.041 295.656 666.416 295.491L664.353 294.929C662.956 294.548 661.848 293.989 661.03 293.25C660.217 292.511 659.811 291.534 659.811 290.318C659.811 289.312 660.083 288.435 660.629 287.685C661.174 286.935 661.913 286.352 662.845 285.938C663.777 285.517 664.828 285.307 665.998 285.307C667.18 285.307 668.223 285.514 669.126 285.929C670.035 286.344 670.751 286.915 671.274 287.642C671.797 288.364 672.069 289.193 672.092 290.131H669.552ZM673.651 285.545H676.643L681.202 293.48H681.39L685.949 285.545H688.941L682.608 296.148V303H679.983V296.148L673.651 285.545ZM700.467 290.131C700.376 289.324 700.001 288.699 699.342 288.256C698.683 287.807 697.854 287.582 696.854 287.582C696.138 287.582 695.518 287.696 694.996 287.923C694.473 288.145 694.067 288.452 693.777 288.844C693.493 289.23 693.351 289.67 693.351 290.165C693.351 290.58 693.447 290.937 693.641 291.239C693.839 291.54 694.098 291.793 694.416 291.997C694.74 292.196 695.087 292.364 695.456 292.5C695.825 292.631 696.18 292.739 696.521 292.824L698.226 293.267C698.783 293.403 699.354 293.588 699.939 293.821C700.524 294.054 701.067 294.361 701.567 294.741C702.067 295.122 702.47 295.594 702.777 296.156C703.089 296.719 703.246 297.392 703.246 298.176C703.246 299.165 702.99 300.043 702.479 300.81C701.973 301.577 701.237 302.182 700.271 302.625C699.311 303.068 698.149 303.29 696.785 303.29C695.479 303.29 694.348 303.082 693.393 302.668C692.439 302.253 691.692 301.665 691.152 300.903C690.612 300.136 690.314 299.227 690.257 298.176H692.899C692.95 298.807 693.155 299.332 693.513 299.753C693.876 300.168 694.339 300.477 694.902 300.682C695.47 300.881 696.092 300.98 696.768 300.98C697.513 300.98 698.175 300.864 698.754 300.631C699.339 300.392 699.8 300.062 700.135 299.642C700.47 299.216 700.638 298.719 700.638 298.151C700.638 297.634 700.49 297.21 700.195 296.881C699.905 296.551 699.51 296.278 699.01 296.062C698.516 295.847 697.956 295.656 697.331 295.491L695.268 294.929C693.871 294.548 692.763 293.989 691.945 293.25C691.132 292.511 690.726 291.534 690.726 290.318C690.726 289.312 690.998 288.435 691.544 287.685C692.089 286.935 692.828 286.352 693.76 285.938C694.692 285.517 695.743 285.307 696.913 285.307C698.095 285.307 699.138 285.514 700.041 285.929C700.95 286.344 701.666 286.915 702.189 287.642C702.712 288.364 702.984 289.193 703.007 290.131H700.467ZM705.052 287.812V285.545H718.56V287.812H713.114V303H710.489V287.812H705.052ZM721.065 303V285.545H732.009V287.812H723.699V293.131H731.438V295.389H723.699V300.733H732.111V303H721.065ZM735.046 285.545H738.242L743.799 299.114H744.004L749.561 285.545H752.757V303H750.251V290.369H750.089L744.941 302.974H742.862L737.714 290.361H737.552V303H735.046V285.545Z" fill="#AABDC6"/>
<rect x="593" y="246" width="217" height="213" stroke="#AABDC6" stroke-width="2"/>
<path d="M621.569 564L616.728 546.545H619.498L622.899 560.062H623.061L626.597 546.545H629.342L632.879 560.071H633.041L636.433 546.545H639.211L634.362 564H631.711L628.038 550.926H627.901L624.228 564H621.569ZM641.107 564H638.311L644.593 546.545H647.635L653.916 564H651.121L646.186 549.716H646.05L641.107 564ZM641.576 557.165H650.644V559.381H641.576V557.165ZM665.336 551.131C665.245 550.324 664.87 549.699 664.211 549.256C663.552 548.807 662.723 548.582 661.723 548.582C661.007 548.582 660.387 548.696 659.865 548.923C659.342 549.145 658.936 549.452 658.646 549.844C658.362 550.23 658.22 550.67 658.22 551.165C658.22 551.58 658.316 551.937 658.51 552.239C658.708 552.54 658.967 552.793 659.285 552.997C659.609 553.196 659.956 553.364 660.325 553.5C660.694 553.631 661.049 553.739 661.39 553.824L663.095 554.267C663.652 554.403 664.223 554.588 664.808 554.821C665.393 555.054 665.936 555.361 666.436 555.741C666.936 556.122 667.339 556.594 667.646 557.156C667.958 557.719 668.115 558.392 668.115 559.176C668.115 560.165 667.859 561.043 667.348 561.81C666.842 562.577 666.106 563.182 665.14 563.625C664.18 564.068 663.018 564.29 661.654 564.29C660.348 564.29 659.217 564.082 658.262 563.668C657.308 563.253 656.561 562.665 656.021 561.903C655.481 561.136 655.183 560.227 655.126 559.176H657.768C657.819 559.807 658.024 560.332 658.382 560.753C658.745 561.168 659.208 561.477 659.771 561.682C660.339 561.881 660.961 561.98 661.637 561.98C662.382 561.98 663.044 561.864 663.623 561.631C664.208 561.392 664.669 561.062 665.004 560.642C665.339 560.216 665.507 559.719 665.507 559.151C665.507 558.634 665.359 558.21 665.064 557.881C664.774 557.551 664.379 557.278 663.879 557.062C663.385 556.847 662.825 556.656 662.2 556.491L660.137 555.929C658.74 555.548 657.632 554.989 656.814 554.25C656.001 553.511 655.595 552.534 655.595 551.318C655.595 550.312 655.868 549.435 656.413 548.685C656.958 547.935 657.697 547.352 658.629 546.938C659.561 546.517 660.612 546.307 661.782 546.307C662.964 546.307 664.007 546.514 664.91 546.929C665.819 547.344 666.535 547.915 667.058 548.642C667.581 549.364 667.853 550.193 667.876 551.131H665.336ZM675.793 548.812V546.545H689.301V548.812H683.855V564H681.23V548.812H675.793ZM691.806 564V546.545H694.44V554.131H703.141V546.545H705.783V564H703.141V556.389H694.44V564H691.806ZM709.139 564V546.545H720.082V548.812H711.772V554.131H719.511V556.389H711.772V561.733H720.184V564H709.139ZM734.642 564H728.991V546.545H734.821C736.531 546.545 738 546.895 739.227 547.594C740.454 548.287 741.395 549.284 742.048 550.585C742.707 551.881 743.037 553.435 743.037 555.247C743.037 557.065 742.704 558.628 742.039 559.935C741.38 561.241 740.426 562.247 739.176 562.952C737.926 563.651 736.414 564 734.642 564ZM731.625 561.699H734.497C735.826 561.699 736.931 561.449 737.812 560.949C738.693 560.443 739.352 559.713 739.789 558.759C740.227 557.798 740.446 556.628 740.446 555.247C740.446 553.878 740.227 552.716 739.789 551.761C739.358 550.807 738.713 550.082 737.855 549.588C736.997 549.094 735.931 548.847 734.659 548.847H731.625V561.699ZM745.831 564V546.545H756.775V548.812H748.465V554.131H756.204V556.389H748.465V561.733H756.877V564H745.831ZM761.287 564H758.491L764.773 546.545H767.815L774.096 564H771.301L766.366 549.716H766.23L761.287 564ZM761.756 557.165H770.824V559.381H761.756V557.165ZM776.137 564V546.545H778.771V561.733H786.68V564H776.137ZM639.352 588V570.545H641.985V578.131H650.687V570.545H653.329V588H650.687V580.389H641.985V588H639.352ZM671.846 579.273C671.846 581.136 671.505 582.739 670.823 584.08C670.141 585.415 669.207 586.443 668.019 587.165C666.837 587.881 665.494 588.239 663.988 588.239C662.477 588.239 661.127 587.881 659.94 587.165C658.758 586.443 657.826 585.412 657.144 584.071C656.462 582.73 656.122 581.131 656.122 579.273C656.122 577.409 656.462 575.81 657.144 574.474C657.826 573.134 658.758 572.105 659.94 571.389C661.127 570.668 662.477 570.307 663.988 570.307C665.494 570.307 666.837 570.668 668.019 571.389C669.207 572.105 670.141 573.134 670.823 574.474C671.505 575.81 671.846 577.409 671.846 579.273ZM669.238 579.273C669.238 577.852 669.008 576.656 668.548 575.685C668.093 574.707 667.468 573.969 666.673 573.469C665.883 572.963 664.988 572.71 663.988 572.71C662.982 572.71 662.085 572.963 661.295 573.469C660.505 573.969 659.88 574.707 659.42 575.685C658.965 576.656 658.738 577.852 658.738 579.273C658.738 580.693 658.965 581.892 659.42 582.869C659.88 583.841 660.505 584.58 661.295 585.085C662.085 585.585 662.982 585.835 663.988 585.835C664.988 585.835 665.883 585.585 666.673 585.085C667.468 584.58 668.093 583.841 668.548 582.869C669.008 581.892 669.238 580.693 669.238 579.273ZM688.737 570.545V588H686.317L677.445 575.199H677.283V588H674.649V570.545H677.087L685.968 583.364H686.13V570.545H688.737ZM707.261 579.273C707.261 581.136 706.92 582.739 706.238 584.08C705.556 585.415 704.622 586.443 703.434 587.165C702.252 587.881 700.909 588.239 699.403 588.239C697.892 588.239 696.542 587.881 695.355 587.165C694.173 586.443 693.241 585.412 692.559 584.071C691.877 582.73 691.537 581.131 691.537 579.273C691.537 577.409 691.877 575.81 692.559 574.474C693.241 573.134 694.173 572.105 695.355 571.389C696.542 570.668 697.892 570.307 699.403 570.307C700.909 570.307 702.252 570.668 703.434 571.389C704.622 572.105 705.556 573.134 706.238 574.474C706.92 575.81 707.261 577.409 707.261 579.273ZM704.653 579.273C704.653 577.852 704.423 576.656 703.963 575.685C703.508 574.707 702.883 573.969 702.088 573.469C701.298 572.963 700.403 572.71 699.403 572.71C698.397 572.71 697.5 572.963 696.71 573.469C695.92 573.969 695.295 574.707 694.835 575.685C694.38 576.656 694.153 577.852 694.153 579.273C694.153 580.693 694.38 581.892 694.835 582.869C695.295 583.841 695.92 584.58 696.71 585.085C697.5 585.585 698.397 585.835 699.403 585.835C700.403 585.835 701.298 585.585 702.088 585.085C702.883 584.58 703.508 583.841 703.963 582.869C704.423 581.892 704.653 580.693 704.653 579.273ZM710.064 588V570.545H716.286C717.638 570.545 718.76 570.778 719.652 571.244C720.55 571.71 721.221 572.355 721.664 573.179C722.107 573.997 722.329 574.943 722.329 576.017C722.329 577.085 722.104 578.026 721.655 578.838C721.212 579.645 720.542 580.273 719.644 580.722C718.752 581.17 717.63 581.395 716.277 581.395H711.564V579.128H716.039C716.891 579.128 717.584 579.006 718.118 578.761C718.658 578.517 719.053 578.162 719.303 577.696C719.553 577.23 719.678 576.67 719.678 576.017C719.678 575.358 719.55 574.787 719.295 574.304C719.045 573.821 718.65 573.452 718.11 573.196C717.576 572.935 716.874 572.804 716.005 572.804H712.698V588H710.064ZM718.681 580.125L722.993 588H719.993L715.766 580.125H718.681ZM725.053 588V570.545H735.996V572.812H727.687V578.131H735.425V580.389H727.687V585.733H736.099V588H725.053ZM744.685 588H739.034V570.545H744.864C746.574 570.545 748.043 570.895 749.27 571.594C750.497 572.287 751.437 573.284 752.091 574.585C752.75 575.881 753.08 577.435 753.08 579.247C753.08 581.065 752.747 582.628 752.082 583.935C751.423 585.241 750.469 586.247 749.219 586.952C747.969 587.651 746.457 588 744.685 588ZM741.668 585.699H744.54C745.869 585.699 746.974 585.449 747.855 584.949C748.736 584.443 749.395 583.713 749.832 582.759C750.27 581.798 750.489 580.628 750.489 579.247C750.489 577.878 750.27 576.716 749.832 575.761C749.401 574.807 748.756 574.082 747.898 573.588C747.04 573.094 745.974 572.847 744.702 572.847H741.668V585.699ZM758.457 582.98V582.818C758.468 581.761 758.573 580.92 758.772 580.295C758.977 579.67 759.266 579.165 759.641 578.778C760.016 578.392 760.468 578.04 760.997 577.722C761.337 577.506 761.644 577.264 761.917 576.997C762.19 576.73 762.406 576.423 762.565 576.077C762.724 575.73 762.803 575.347 762.803 574.926C762.803 574.42 762.684 573.983 762.445 573.614C762.207 573.244 761.889 572.96 761.491 572.761C761.099 572.557 760.661 572.455 760.178 572.455C759.741 572.455 759.323 572.545 758.926 572.727C758.528 572.909 758.198 573.193 757.937 573.58C757.676 573.96 757.525 574.452 757.485 575.054H754.894C754.934 574.031 755.193 573.168 755.67 572.463C756.147 571.753 756.778 571.216 757.562 570.852C758.352 570.489 759.224 570.307 760.178 570.307C761.224 570.307 762.139 570.503 762.923 570.895C763.707 571.281 764.315 571.824 764.747 572.523C765.184 573.216 765.403 574.026 765.403 574.952C765.403 575.588 765.303 576.162 765.105 576.673C764.906 577.179 764.622 577.631 764.252 578.028C763.889 578.426 763.451 578.778 762.94 579.085C762.457 579.386 762.065 579.699 761.764 580.023C761.468 580.347 761.252 580.73 761.116 581.173C760.98 581.616 760.906 582.165 760.894 582.818V582.98H758.457ZM759.744 588.162C759.278 588.162 758.877 587.997 758.542 587.668C758.207 587.332 758.039 586.929 758.039 586.457C758.039 585.991 758.207 585.594 758.542 585.264C758.877 584.929 759.278 584.761 759.744 584.761C760.204 584.761 760.602 584.929 760.937 585.264C761.278 585.594 761.448 585.991 761.448 586.457C761.448 586.77 761.369 587.057 761.21 587.318C761.056 587.574 760.852 587.778 760.596 587.932C760.34 588.085 760.056 588.162 759.744 588.162Z" fill="#AABDC6"/>
<path d="M901.883 557.545H904.875L909.434 565.48H909.622L914.181 557.545H917.173L910.841 568.148V575H908.216V568.148L901.883 557.545ZM919.179 575V557.545H930.123V559.812H921.813V565.131H929.552V567.389H921.813V572.733H930.225V575H919.179ZM942.68 562.131C942.589 561.324 942.214 560.699 941.555 560.256C940.896 559.807 940.067 559.582 939.067 559.582C938.351 559.582 937.731 559.696 937.209 559.923C936.686 560.145 936.28 560.452 935.99 560.844C935.706 561.23 935.564 561.67 935.564 562.165C935.564 562.58 935.66 562.937 935.854 563.239C936.052 563.54 936.311 563.793 936.629 563.997C936.953 564.196 937.3 564.364 937.669 564.5C938.038 564.631 938.393 564.739 938.734 564.824L940.439 565.267C940.996 565.403 941.567 565.588 942.152 565.821C942.737 566.054 943.28 566.361 943.78 566.741C944.28 567.122 944.683 567.594 944.99 568.156C945.302 568.719 945.459 569.392 945.459 570.176C945.459 571.165 945.203 572.043 944.692 572.81C944.186 573.577 943.45 574.182 942.484 574.625C941.524 575.068 940.362 575.29 938.998 575.29C937.692 575.29 936.561 575.082 935.606 574.668C934.652 574.253 933.905 573.665 933.365 572.903C932.825 572.136 932.527 571.227 932.47 570.176H935.112C935.163 570.807 935.368 571.332 935.726 571.753C936.089 572.168 936.552 572.477 937.115 572.682C937.683 572.881 938.305 572.98 938.981 572.98C939.726 572.98 940.388 572.864 940.967 572.631C941.552 572.392 942.013 572.062 942.348 571.642C942.683 571.216 942.851 570.719 942.851 570.151C942.851 569.634 942.703 569.21 942.407 568.881C942.118 568.551 941.723 568.278 941.223 568.062C940.729 567.847 940.169 567.656 939.544 567.491L937.481 566.929C936.084 566.548 934.976 565.989 934.157 565.25C933.345 564.511 932.939 563.534 932.939 562.318C932.939 561.312 933.211 560.435 933.757 559.685C934.302 558.935 935.041 558.352 935.973 557.938C936.905 557.517 937.956 557.307 939.126 557.307C940.308 557.307 941.351 557.514 942.254 557.929C943.163 558.344 943.879 558.915 944.402 559.642C944.925 560.364 945.197 561.193 945.22 562.131H942.68Z" fill="#AABDC6"/>
<path d="M110 215L122 231L98.0001 231L110 215Z" fill="#AABDC6"/>
<path d="M1293 215L1305 231L1281 231L1293 215Z" fill="#AABDC6"/>
<path d="M948 566H1293V214" stroke="#AABDC6" stroke-width="2"/>
<path d="M466 566H110V214" stroke="#AABDC6" stroke-width="2"/>
<path d="M172 566C172 554.954 180.954 546 192 546H383C394.046 546 403 554.954 403 566C403 577.046 394.046 586 383 586H192C180.954 586 172 577.046 172 566Z" fill="#0B0E12"/>
<path d="M190.121 575V557.545H196.513C197.752 557.545 198.777 557.75 199.59 558.159C200.402 558.562 201.01 559.111 201.414 559.804C201.817 560.491 202.019 561.267 202.019 562.131C202.019 562.858 201.885 563.472 201.618 563.972C201.351 564.466 200.993 564.864 200.544 565.165C200.101 565.46 199.612 565.676 199.078 565.812V565.983C199.658 566.011 200.223 566.199 200.774 566.545C201.331 566.886 201.791 567.372 202.155 568.003C202.519 568.634 202.7 569.401 202.7 570.304C202.7 571.196 202.49 571.997 202.07 572.707C201.655 573.412 201.013 573.972 200.144 574.386C199.274 574.795 198.164 575 196.811 575H190.121ZM192.754 572.741H196.556C197.817 572.741 198.72 572.497 199.266 572.009C199.811 571.52 200.084 570.909 200.084 570.176C200.084 569.625 199.945 569.119 199.666 568.659C199.388 568.199 198.99 567.832 198.473 567.56C197.962 567.287 197.354 567.151 196.649 567.151H192.754V572.741ZM192.754 565.097H196.283C196.874 565.097 197.405 564.983 197.877 564.756C198.354 564.528 198.732 564.21 199.01 563.801C199.294 563.386 199.436 562.898 199.436 562.335C199.436 561.614 199.183 561.009 198.678 560.52C198.172 560.031 197.397 559.787 196.351 559.787H192.754V565.097ZM210.654 575.264C209.426 575.264 208.355 574.983 207.441 574.42C206.526 573.858 205.816 573.071 205.31 572.06C204.804 571.048 204.551 569.866 204.551 568.514C204.551 567.156 204.804 565.969 205.31 564.952C205.816 563.935 206.526 563.145 207.441 562.582C208.355 562.02 209.426 561.739 210.654 561.739C211.881 561.739 212.952 562.02 213.867 562.582C214.782 563.145 215.492 563.935 215.997 564.952C216.503 565.969 216.756 567.156 216.756 568.514C216.756 569.866 216.503 571.048 215.997 572.06C215.492 573.071 214.782 573.858 213.867 574.42C212.952 574.983 211.881 575.264 210.654 575.264ZM210.662 573.125C211.458 573.125 212.117 572.915 212.64 572.494C213.162 572.074 213.549 571.514 213.799 570.815C214.054 570.116 214.182 569.347 214.182 568.506C214.182 567.67 214.054 566.903 213.799 566.205C213.549 565.5 213.162 564.935 212.64 564.509C212.117 564.082 211.458 563.869 210.662 563.869C209.861 563.869 209.196 564.082 208.668 564.509C208.145 564.935 207.756 565.5 207.5 566.205C207.25 566.903 207.125 567.67 207.125 568.506C207.125 569.347 207.25 570.116 207.5 570.815C207.756 571.514 208.145 572.074 208.668 572.494C209.196 572.915 209.861 573.125 210.662 573.125ZM227.413 569.571V561.909H229.97V575H227.464V572.733H227.328C227.027 573.432 226.544 574.014 225.879 574.48C225.22 574.94 224.399 575.17 223.416 575.17C222.575 575.17 221.831 574.986 221.183 574.616C220.541 574.241 220.035 573.688 219.666 572.955C219.302 572.222 219.12 571.315 219.12 570.236V561.909H221.669V569.929C221.669 570.821 221.916 571.531 222.41 572.06C222.905 572.588 223.547 572.852 224.336 572.852C224.814 572.852 225.288 572.733 225.76 572.494C226.237 572.256 226.632 571.895 226.944 571.412C227.263 570.929 227.419 570.315 227.413 569.571ZM235.462 567.227V575H232.914V561.909H235.36V564.04H235.522C235.823 563.347 236.295 562.79 236.937 562.369C237.584 561.949 238.4 561.739 239.383 561.739C240.275 561.739 241.056 561.926 241.726 562.301C242.397 562.67 242.917 563.222 243.286 563.955C243.655 564.687 243.84 565.594 243.84 566.673V575H241.292V566.98C241.292 566.031 241.045 565.29 240.55 564.756C240.056 564.216 239.377 563.946 238.513 563.946C237.922 563.946 237.397 564.074 236.937 564.33C236.482 564.585 236.121 564.96 235.854 565.455C235.593 565.943 235.462 566.534 235.462 567.227ZM252.888 561.909V563.955H245.738V561.909H252.888ZM247.655 558.773H250.204V571.156C250.204 571.651 250.278 572.023 250.425 572.273C250.573 572.517 250.763 572.685 250.996 572.776C251.235 572.861 251.494 572.903 251.772 572.903C251.977 572.903 252.155 572.889 252.309 572.861C252.462 572.832 252.582 572.81 252.667 572.793L253.127 574.898C252.979 574.955 252.769 575.011 252.496 575.068C252.224 575.131 251.883 575.165 251.474 575.17C250.803 575.182 250.178 575.062 249.599 574.812C249.019 574.562 248.55 574.176 248.192 573.653C247.834 573.131 247.655 572.474 247.655 571.685V558.773ZM256.838 579.909C256.457 579.909 256.111 579.878 255.798 579.815C255.486 579.759 255.253 579.696 255.1 579.628L255.713 577.54C256.179 577.665 256.594 577.719 256.957 577.702C257.321 577.685 257.642 577.548 257.921 577.293C258.205 577.037 258.455 576.619 258.671 576.04L258.986 575.17L254.196 561.909H256.923L260.239 572.068H260.375L263.69 561.909H266.426L261.031 576.747C260.781 577.429 260.463 578.006 260.077 578.477C259.69 578.955 259.23 579.313 258.696 579.551C258.162 579.79 257.543 579.909 256.838 579.909ZM273.421 575.247C272.25 575.247 271.242 575.034 270.395 574.608C269.554 574.182 268.906 573.602 268.452 572.869C267.997 572.131 267.77 571.295 267.77 570.364C267.77 569.653 267.918 569.023 268.213 568.472C268.509 567.915 268.921 567.401 269.449 566.929C269.977 566.457 270.588 565.983 271.281 565.506L274.094 563.52C274.571 563.207 274.943 562.878 275.21 562.531C275.477 562.179 275.611 561.744 275.611 561.227C275.611 560.818 275.435 560.426 275.083 560.051C274.73 559.676 274.259 559.489 273.668 559.489C273.259 559.489 272.898 559.588 272.585 559.787C272.279 559.986 272.037 560.241 271.861 560.554C271.691 560.861 271.605 561.185 271.605 561.526C271.605 561.923 271.713 562.324 271.929 562.727C272.151 563.131 272.435 563.548 272.781 563.98C273.128 564.406 273.492 564.849 273.872 565.31L281.977 575H279.097L272.389 567.116C271.827 566.452 271.304 565.827 270.821 565.241C270.338 564.651 269.946 564.054 269.645 563.452C269.35 562.844 269.202 562.188 269.202 561.483C269.202 560.682 269.384 559.972 269.747 559.352C270.117 558.727 270.631 558.239 271.29 557.886C271.949 557.534 272.722 557.358 273.608 557.358C274.506 557.358 275.276 557.534 275.918 557.886C276.566 558.233 277.063 558.696 277.409 559.276C277.762 559.849 277.938 560.477 277.938 561.159C277.938 561.989 277.73 562.722 277.316 563.358C276.906 563.989 276.341 564.568 275.62 565.097L272.117 567.679C271.435 568.179 270.96 568.673 270.693 569.162C270.432 569.645 270.301 570.023 270.301 570.295C270.301 570.795 270.429 571.259 270.685 571.685C270.946 572.111 271.31 572.452 271.776 572.707C272.247 572.963 272.798 573.091 273.429 573.091C274.077 573.091 274.708 572.952 275.321 572.673C275.941 572.389 276.5 571.983 277 571.455C277.506 570.926 277.906 570.293 278.202 569.554C278.497 568.815 278.645 567.989 278.645 567.074H280.946C280.946 568.199 280.818 569.151 280.563 569.929C280.307 570.702 279.997 571.332 279.634 571.821C279.276 572.304 278.938 572.682 278.62 572.955C278.517 573.045 278.421 573.136 278.33 573.227C278.239 573.318 278.142 573.409 278.04 573.5C277.449 574.097 276.733 574.537 275.892 574.821C275.057 575.105 274.233 575.247 273.421 575.247ZM298.196 563.222H295.537C295.434 562.653 295.244 562.153 294.965 561.722C294.687 561.29 294.346 560.923 293.943 560.622C293.539 560.321 293.088 560.094 292.588 559.94C292.093 559.787 291.568 559.71 291.011 559.71C290.005 559.71 289.105 559.963 288.309 560.469C287.519 560.974 286.894 561.716 286.434 562.693C285.98 563.67 285.752 564.864 285.752 566.273C285.752 567.693 285.98 568.892 286.434 569.869C286.894 570.847 287.522 571.585 288.318 572.085C289.113 572.585 290.008 572.835 291.002 572.835C291.554 572.835 292.076 572.761 292.571 572.614C293.071 572.46 293.522 572.236 293.926 571.94C294.329 571.645 294.67 571.284 294.948 570.858C295.233 570.426 295.429 569.932 295.537 569.375L298.196 569.384C298.054 570.241 297.778 571.031 297.369 571.753C296.965 572.469 296.446 573.088 295.809 573.611C295.179 574.128 294.457 574.528 293.644 574.812C292.832 575.097 291.946 575.239 290.985 575.239C289.474 575.239 288.127 574.881 286.946 574.165C285.764 573.443 284.832 572.412 284.15 571.071C283.474 569.73 283.136 568.131 283.136 566.273C283.136 564.409 283.477 562.81 284.159 561.474C284.84 560.134 285.772 559.105 286.954 558.389C288.136 557.668 289.48 557.307 290.985 557.307C291.912 557.307 292.775 557.44 293.576 557.707C294.383 557.969 295.108 558.355 295.75 558.866C296.392 559.372 296.923 559.991 297.343 560.724C297.764 561.452 298.048 562.284 298.196 563.222ZM306.177 575.264C304.949 575.264 303.878 574.983 302.963 574.42C302.049 573.858 301.338 573.071 300.833 572.06C300.327 571.048 300.074 569.866 300.074 568.514C300.074 567.156 300.327 565.969 300.833 564.952C301.338 563.935 302.049 563.145 302.963 562.582C303.878 562.02 304.949 561.739 306.177 561.739C307.404 561.739 308.475 562.02 309.39 562.582C310.304 563.145 311.015 563.935 311.52 564.952C312.026 565.969 312.279 567.156 312.279 568.514C312.279 569.866 312.026 571.048 311.52 572.06C311.015 573.071 310.304 573.858 309.39 574.42C308.475 574.983 307.404 575.264 306.177 575.264ZM306.185 573.125C306.981 573.125 307.64 572.915 308.162 572.494C308.685 572.074 309.071 571.514 309.321 570.815C309.577 570.116 309.705 569.347 309.705 568.506C309.705 567.67 309.577 566.903 309.321 566.205C309.071 565.5 308.685 564.935 308.162 564.509C307.64 564.082 306.981 563.869 306.185 563.869C305.384 563.869 304.719 564.082 304.191 564.509C303.668 564.935 303.279 565.5 303.023 566.205C302.773 566.903 302.648 567.67 302.648 568.506C302.648 569.347 302.773 570.116 303.023 570.815C303.279 571.514 303.668 572.074 304.191 572.494C304.719 572.915 305.384 573.125 306.185 573.125ZM317.192 557.545V575H314.643V557.545H317.192ZM322.688 557.545V575H320.14V557.545H322.688ZM329.446 575.29C328.617 575.29 327.867 575.136 327.196 574.83C326.526 574.517 325.994 574.065 325.602 573.474C325.216 572.884 325.023 572.159 325.023 571.301C325.023 570.562 325.165 569.955 325.449 569.477C325.733 569 326.117 568.622 326.599 568.344C327.082 568.065 327.622 567.855 328.219 567.713C328.815 567.571 329.423 567.463 330.043 567.389C330.827 567.298 331.463 567.224 331.952 567.168C332.44 567.105 332.795 567.006 333.017 566.869C333.239 566.733 333.349 566.511 333.349 566.205V566.145C333.349 565.401 333.139 564.824 332.719 564.415C332.304 564.006 331.685 563.801 330.861 563.801C330.003 563.801 329.327 563.991 328.832 564.372C328.344 564.747 328.006 565.165 327.818 565.625L325.423 565.08C325.707 564.284 326.122 563.642 326.668 563.153C327.219 562.659 327.852 562.301 328.568 562.08C329.284 561.852 330.037 561.739 330.827 561.739C331.349 561.739 331.903 561.801 332.489 561.926C333.08 562.045 333.631 562.267 334.142 562.591C334.659 562.915 335.082 563.378 335.412 563.98C335.742 564.577 335.906 565.352 335.906 566.307V575H333.418V573.21H333.315C333.151 573.54 332.903 573.864 332.574 574.182C332.244 574.5 331.821 574.764 331.304 574.974C330.787 575.185 330.168 575.29 329.446 575.29ZM330 573.244C330.705 573.244 331.307 573.105 331.807 572.827C332.313 572.548 332.696 572.185 332.957 571.736C333.224 571.281 333.358 570.795 333.358 570.278V568.591C333.267 568.682 333.091 568.767 332.83 568.847C332.574 568.92 332.281 568.986 331.952 569.043C331.622 569.094 331.301 569.142 330.989 569.188C330.676 569.227 330.415 569.261 330.205 569.29C329.71 569.352 329.259 569.457 328.849 569.605C328.446 569.753 328.122 569.966 327.878 570.244C327.639 570.517 327.52 570.881 327.52 571.335C327.52 571.966 327.753 572.443 328.219 572.767C328.685 573.085 329.278 573.244 330 573.244ZM344.931 561.909V563.955H337.781V561.909H344.931ZM339.698 558.773H342.247V571.156C342.247 571.651 342.32 572.023 342.468 572.273C342.616 572.517 342.806 572.685 343.039 572.776C343.278 572.861 343.536 572.903 343.815 572.903C344.019 572.903 344.198 572.889 344.352 572.861C344.505 572.832 344.624 572.81 344.71 572.793L345.17 574.898C345.022 574.955 344.812 575.011 344.539 575.068C344.266 575.131 343.926 575.165 343.516 575.17C342.846 575.182 342.221 575.062 341.641 574.812C341.062 574.562 340.593 574.176 340.235 573.653C339.877 573.131 339.698 572.474 339.698 571.685V558.773ZM352.772 575.264C351.482 575.264 350.371 574.989 349.439 574.438C348.513 573.881 347.797 573.099 347.291 572.094C346.791 571.082 346.541 569.898 346.541 568.54C346.541 567.199 346.791 566.017 347.291 564.994C347.797 563.972 348.502 563.173 349.405 562.599C350.314 562.026 351.377 561.739 352.593 561.739C353.331 561.739 354.047 561.861 354.74 562.105C355.434 562.349 356.056 562.733 356.607 563.256C357.158 563.778 357.593 564.457 357.911 565.293C358.229 566.122 358.388 567.131 358.388 568.318V569.222H347.982V567.312H355.891C355.891 566.642 355.755 566.048 355.482 565.531C355.209 565.009 354.826 564.597 354.331 564.295C353.843 563.994 353.269 563.844 352.61 563.844C351.894 563.844 351.269 564.02 350.735 564.372C350.206 564.719 349.797 565.173 349.507 565.736C349.223 566.293 349.081 566.898 349.081 567.551V569.043C349.081 569.918 349.235 570.662 349.541 571.276C349.854 571.889 350.289 572.358 350.845 572.682C351.402 573 352.053 573.159 352.797 573.159C353.28 573.159 353.72 573.091 354.118 572.955C354.516 572.812 354.86 572.602 355.149 572.324C355.439 572.045 355.661 571.702 355.814 571.293L358.226 571.727C358.033 572.437 357.686 573.06 357.186 573.594C356.692 574.122 356.07 574.534 355.32 574.83C354.576 575.119 353.726 575.264 352.772 575.264ZM360.735 575V561.909H363.199V563.989H363.335C363.574 563.284 363.994 562.73 364.596 562.327C365.204 561.918 365.892 561.713 366.659 561.713C366.818 561.713 367.005 561.719 367.221 561.73C367.443 561.741 367.616 561.756 367.741 561.773V564.21C367.639 564.182 367.457 564.151 367.196 564.116C366.934 564.077 366.673 564.057 366.412 564.057C365.809 564.057 365.272 564.185 364.801 564.44C364.335 564.69 363.966 565.04 363.693 565.489C363.42 565.932 363.284 566.437 363.284 567.006V575H360.735ZM373.159 575.29C372.329 575.29 371.579 575.136 370.909 574.83C370.238 574.517 369.707 574.065 369.315 573.474C368.929 572.884 368.736 572.159 368.736 571.301C368.736 570.562 368.878 569.955 369.162 569.477C369.446 569 369.829 568.622 370.312 568.344C370.795 568.065 371.335 567.855 371.932 567.713C372.528 567.571 373.136 567.463 373.755 567.389C374.54 567.298 375.176 567.224 375.665 567.168C376.153 567.105 376.508 567.006 376.73 566.869C376.951 566.733 377.062 566.511 377.062 566.205V566.145C377.062 565.401 376.852 564.824 376.432 564.415C376.017 564.006 375.398 563.801 374.574 563.801C373.716 563.801 373.04 563.991 372.545 564.372C372.057 564.747 371.719 565.165 371.531 565.625L369.136 565.08C369.42 564.284 369.835 563.642 370.38 563.153C370.932 562.659 371.565 562.301 372.281 562.08C372.997 561.852 373.75 561.739 374.54 561.739C375.062 561.739 375.616 561.801 376.201 561.926C376.792 562.045 377.344 562.267 377.855 562.591C378.372 562.915 378.795 563.378 379.125 563.98C379.454 564.577 379.619 565.352 379.619 566.307V575H377.13V573.21H377.028C376.863 573.54 376.616 573.864 376.287 574.182C375.957 574.5 375.534 574.764 375.017 574.974C374.5 575.185 373.88 575.29 373.159 575.29ZM373.713 573.244C374.417 573.244 375.02 573.105 375.52 572.827C376.025 572.548 376.409 572.185 376.67 571.736C376.937 571.281 377.071 570.795 377.071 570.278V568.591C376.98 568.682 376.804 568.767 376.542 568.847C376.287 568.92 375.994 568.986 375.665 569.043C375.335 569.094 375.014 569.142 374.701 569.188C374.389 569.227 374.128 569.261 373.917 569.29C373.423 569.352 372.971 569.457 372.562 569.605C372.159 569.753 371.835 569.966 371.591 570.244C371.352 570.517 371.233 570.881 371.233 571.335C371.233 571.966 371.466 572.443 371.932 572.767C372.398 573.085 372.991 573.244 373.713 573.244ZM385.082 557.545V575H382.533V557.545H385.082Z" fill="#AABDC6"/>
<path d="M192 547H383V545H192V547ZM383 585H192V587H383V585ZM192 585C181.507 585 173 576.493 173 566H171C171 577.598 180.402 587 192 587V585ZM402 566C402 576.493 393.493 585 383 585V587C394.598 587 404 577.598 404 566H402ZM383 547C393.493 547 402 555.507 402 566H404C404 554.402 394.598 545 383 545V547ZM192 545C180.402 545 171 554.402 171 566H173C173 555.507 181.507 547 192 547V545Z" fill="#AABDC6"/>
<path d="M1005 566C1005 554.954 1013.95 546 1025 546H1216C1227.05 546 1236 554.954 1236 566C1236 577.046 1227.05 586 1216 586H1025C1013.95 586 1005 577.046 1005 566Z" fill="#0B0E12"/>
<path d="M1023.12 575V557.545H1029.51C1030.75 557.545 1031.78 557.75 1032.59 558.159C1033.4 558.562 1034.01 559.111 1034.41 559.804C1034.82 560.491 1035.02 561.267 1035.02 562.131C1035.02 562.858 1034.89 563.472 1034.62 563.972C1034.35 564.466 1033.99 564.864 1033.54 565.165C1033.1 565.46 1032.61 565.676 1032.08 565.812V565.983C1032.66 566.011 1033.22 566.199 1033.77 566.545C1034.33 566.886 1034.79 567.372 1035.16 568.003C1035.52 568.634 1035.7 569.401 1035.7 570.304C1035.7 571.196 1035.49 571.997 1035.07 572.707C1034.66 573.412 1034.01 573.972 1033.14 574.386C1032.27 574.795 1031.16 575 1029.81 575H1023.12ZM1025.75 572.741H1029.56C1030.82 572.741 1031.72 572.497 1032.27 572.009C1032.81 571.52 1033.08 570.909 1033.08 570.176C1033.08 569.625 1032.94 569.119 1032.67 568.659C1032.39 568.199 1031.99 567.832 1031.47 567.56C1030.96 567.287 1030.35 567.151 1029.65 567.151H1025.75V572.741ZM1025.75 565.097H1029.28C1029.87 565.097 1030.41 564.983 1030.88 564.756C1031.35 564.528 1031.73 564.21 1032.01 563.801C1032.29 563.386 1032.44 562.898 1032.44 562.335C1032.44 561.614 1032.18 561.009 1031.68 560.52C1031.17 560.031 1030.4 559.787 1029.35 559.787H1025.75V565.097ZM1043.65 575.264C1042.43 575.264 1041.36 574.983 1040.44 574.42C1039.53 573.858 1038.82 573.071 1038.31 572.06C1037.8 571.048 1037.55 569.866 1037.55 568.514C1037.55 567.156 1037.8 565.969 1038.31 564.952C1038.82 563.935 1039.53 563.145 1040.44 562.582C1041.36 562.02 1042.43 561.739 1043.65 561.739C1044.88 561.739 1045.95 562.02 1046.87 562.582C1047.78 563.145 1048.49 563.935 1049 564.952C1049.5 565.969 1049.76 567.156 1049.76 568.514C1049.76 569.866 1049.5 571.048 1049 572.06C1048.49 573.071 1047.78 573.858 1046.87 574.42C1045.95 574.983 1044.88 575.264 1043.65 575.264ZM1043.66 573.125C1044.46 573.125 1045.12 572.915 1045.64 572.494C1046.16 572.074 1046.55 571.514 1046.8 570.815C1047.05 570.116 1047.18 569.347 1047.18 568.506C1047.18 567.67 1047.05 566.903 1046.8 566.205C1046.55 565.5 1046.16 564.935 1045.64 564.509C1045.12 564.082 1044.46 563.869 1043.66 563.869C1042.86 563.869 1042.2 564.082 1041.67 564.509C1041.15 564.935 1040.76 565.5 1040.5 566.205C1040.25 566.903 1040.13 567.67 1040.13 568.506C1040.13 569.347 1040.25 570.116 1040.5 570.815C1040.76 571.514 1041.15 572.074 1041.67 572.494C1042.2 572.915 1042.86 573.125 1043.66 573.125ZM1060.41 569.571V561.909H1062.97V575H1060.46V572.733H1060.33C1060.03 573.432 1059.54 574.014 1058.88 574.48C1058.22 574.94 1057.4 575.17 1056.42 575.17C1055.58 575.17 1054.83 574.986 1054.18 574.616C1053.54 574.241 1053.04 573.688 1052.67 572.955C1052.3 572.222 1052.12 571.315 1052.12 570.236V561.909H1054.67V569.929C1054.67 570.821 1054.92 571.531 1055.41 572.06C1055.9 572.588 1056.55 572.852 1057.34 572.852C1057.81 572.852 1058.29 572.733 1058.76 572.494C1059.24 572.256 1059.63 571.895 1059.94 571.412C1060.26 570.929 1060.42 570.315 1060.41 569.571ZM1068.46 567.227V575H1065.91V561.909H1068.36V564.04H1068.52C1068.82 563.347 1069.29 562.79 1069.94 562.369C1070.58 561.949 1071.4 561.739 1072.38 561.739C1073.27 561.739 1074.06 561.926 1074.73 562.301C1075.4 562.67 1075.92 563.222 1076.29 563.955C1076.66 564.687 1076.84 565.594 1076.84 566.673V575H1074.29V566.98C1074.29 566.031 1074.04 565.29 1073.55 564.756C1073.06 564.216 1072.38 563.946 1071.51 563.946C1070.92 563.946 1070.4 564.074 1069.94 564.33C1069.48 564.585 1069.12 564.96 1068.85 565.455C1068.59 565.943 1068.46 566.534 1068.46 567.227ZM1085.89 561.909V563.955H1078.74V561.909H1085.89ZM1080.66 558.773H1083.2V571.156C1083.2 571.651 1083.28 572.023 1083.43 572.273C1083.57 572.517 1083.76 572.685 1084 572.776C1084.24 572.861 1084.49 572.903 1084.77 572.903C1084.98 572.903 1085.16 572.889 1085.31 572.861C1085.46 572.832 1085.58 572.81 1085.67 572.793L1086.13 574.898C1085.98 574.955 1085.77 575.011 1085.5 575.068C1085.22 575.131 1084.88 575.165 1084.47 575.17C1083.8 575.182 1083.18 575.062 1082.6 574.812C1082.02 574.562 1081.55 574.176 1081.19 573.653C1080.83 573.131 1080.66 572.474 1080.66 571.685V558.773ZM1089.84 579.909C1089.46 579.909 1089.11 579.878 1088.8 579.815C1088.49 579.759 1088.25 579.696 1088.1 579.628L1088.71 577.54C1089.18 577.665 1089.59 577.719 1089.96 577.702C1090.32 577.685 1090.64 577.548 1090.92 577.293C1091.2 577.037 1091.45 576.619 1091.67 576.04L1091.99 575.17L1087.2 561.909H1089.92L1093.24 572.068H1093.38L1096.69 561.909H1099.43L1094.03 576.747C1093.78 577.429 1093.46 578.006 1093.08 578.477C1092.69 578.955 1092.23 579.313 1091.7 579.551C1091.16 579.79 1090.54 579.909 1089.84 579.909ZM1106.42 575.247C1105.25 575.247 1104.24 575.034 1103.4 574.608C1102.55 574.182 1101.91 573.602 1101.45 572.869C1101 572.131 1100.77 571.295 1100.77 570.364C1100.77 569.653 1100.92 569.023 1101.21 568.472C1101.51 567.915 1101.92 567.401 1102.45 566.929C1102.98 566.457 1103.59 565.983 1104.28 565.506L1107.09 563.52C1107.57 563.207 1107.94 562.878 1108.21 562.531C1108.48 562.179 1108.61 561.744 1108.61 561.227C1108.61 560.818 1108.43 560.426 1108.08 560.051C1107.73 559.676 1107.26 559.489 1106.67 559.489C1106.26 559.489 1105.9 559.588 1105.59 559.787C1105.28 559.986 1105.04 560.241 1104.86 560.554C1104.69 560.861 1104.61 561.185 1104.61 561.526C1104.61 561.923 1104.71 562.324 1104.93 562.727C1105.15 563.131 1105.43 563.548 1105.78 563.98C1106.13 564.406 1106.49 564.849 1106.87 565.31L1114.98 575H1112.1L1105.39 567.116C1104.83 566.452 1104.3 565.827 1103.82 565.241C1103.34 564.651 1102.95 564.054 1102.65 563.452C1102.35 562.844 1102.2 562.188 1102.2 561.483C1102.2 560.682 1102.38 559.972 1102.75 559.352C1103.12 558.727 1103.63 558.239 1104.29 557.886C1104.95 557.534 1105.72 557.358 1106.61 557.358C1107.51 557.358 1108.28 557.534 1108.92 557.886C1109.57 558.233 1110.06 558.696 1110.41 559.276C1110.76 559.849 1110.94 560.477 1110.94 561.159C1110.94 561.989 1110.73 562.722 1110.32 563.358C1109.91 563.989 1109.34 564.568 1108.62 565.097L1105.12 567.679C1104.43 568.179 1103.96 568.673 1103.69 569.162C1103.43 569.645 1103.3 570.023 1103.3 570.295C1103.3 570.795 1103.43 571.259 1103.68 571.685C1103.95 572.111 1104.31 572.452 1104.78 572.707C1105.25 572.963 1105.8 573.091 1106.43 573.091C1107.08 573.091 1107.71 572.952 1108.32 572.673C1108.94 572.389 1109.5 571.983 1110 571.455C1110.51 570.926 1110.91 570.293 1111.2 569.554C1111.5 568.815 1111.65 567.989 1111.65 567.074H1113.95C1113.95 568.199 1113.82 569.151 1113.56 569.929C1113.31 570.702 1113 571.332 1112.63 571.821C1112.28 572.304 1111.94 572.682 1111.62 572.955C1111.52 573.045 1111.42 573.136 1111.33 573.227C1111.24 573.318 1111.14 573.409 1111.04 573.5C1110.45 574.097 1109.73 574.537 1108.89 574.821C1108.06 575.105 1107.23 575.247 1106.42 575.247ZM1131.2 563.222H1128.54C1128.43 562.653 1128.24 562.153 1127.97 561.722C1127.69 561.29 1127.35 560.923 1126.94 560.622C1126.54 560.321 1126.09 560.094 1125.59 559.94C1125.09 559.787 1124.57 559.71 1124.01 559.71C1123.01 559.71 1122.1 559.963 1121.31 560.469C1120.52 560.974 1119.89 561.716 1119.43 562.693C1118.98 563.67 1118.75 564.864 1118.75 566.273C1118.75 567.693 1118.98 568.892 1119.43 569.869C1119.89 570.847 1120.52 571.585 1121.32 572.085C1122.11 572.585 1123.01 572.835 1124 572.835C1124.55 572.835 1125.08 572.761 1125.57 572.614C1126.07 572.46 1126.52 572.236 1126.93 571.94C1127.33 571.645 1127.67 571.284 1127.95 570.858C1128.23 570.426 1128.43 569.932 1128.54 569.375L1131.2 569.384C1131.05 570.241 1130.78 571.031 1130.37 571.753C1129.97 572.469 1129.45 573.088 1128.81 573.611C1128.18 574.128 1127.46 574.528 1126.64 574.812C1125.83 575.097 1124.95 575.239 1123.99 575.239C1122.47 575.239 1121.13 574.881 1119.95 574.165C1118.76 573.443 1117.83 572.412 1117.15 571.071C1116.47 569.73 1116.14 568.131 1116.14 566.273C1116.14 564.409 1116.48 562.81 1117.16 561.474C1117.84 560.134 1118.77 559.105 1119.95 558.389C1121.14 557.668 1122.48 557.307 1123.99 557.307C1124.91 557.307 1125.78 557.44 1126.58 557.707C1127.38 557.969 1128.11 558.355 1128.75 558.866C1129.39 559.372 1129.92 559.991 1130.34 560.724C1130.76 561.452 1131.05 562.284 1131.2 563.222ZM1139.18 575.264C1137.95 575.264 1136.88 574.983 1135.96 574.42C1135.05 573.858 1134.34 573.071 1133.83 572.06C1133.33 571.048 1133.07 569.866 1133.07 568.514C1133.07 567.156 1133.33 565.969 1133.83 564.952C1134.34 563.935 1135.05 563.145 1135.96 562.582C1136.88 562.02 1137.95 561.739 1139.18 561.739C1140.4 561.739 1141.47 562.02 1142.39 562.582C1143.3 563.145 1144.01 563.935 1144.52 564.952C1145.03 565.969 1145.28 567.156 1145.28 568.514C1145.28 569.866 1145.03 571.048 1144.52 572.06C1144.01 573.071 1143.3 573.858 1142.39 574.42C1141.47 574.983 1140.4 575.264 1139.18 575.264ZM1139.19 573.125C1139.98 573.125 1140.64 572.915 1141.16 572.494C1141.69 572.074 1142.07 571.514 1142.32 570.815C1142.58 570.116 1142.7 569.347 1142.7 568.506C1142.7 567.67 1142.58 566.903 1142.32 566.205C1142.07 565.5 1141.69 564.935 1141.16 564.509C1140.64 564.082 1139.98 563.869 1139.19 563.869C1138.38 563.869 1137.72 564.082 1137.19 564.509C1136.67 564.935 1136.28 565.5 1136.02 566.205C1135.77 566.903 1135.65 567.67 1135.65 568.506C1135.65 569.347 1135.77 570.116 1136.02 570.815C1136.28 571.514 1136.67 572.074 1137.19 572.494C1137.72 572.915 1138.38 573.125 1139.19 573.125ZM1150.19 557.545V575H1147.64V557.545H1150.19ZM1155.69 557.545V575H1153.14V557.545H1155.69ZM1162.45 575.29C1161.62 575.29 1160.87 575.136 1160.2 574.83C1159.53 574.517 1158.99 574.065 1158.6 573.474C1158.22 572.884 1158.02 572.159 1158.02 571.301C1158.02 570.562 1158.16 569.955 1158.45 569.477C1158.73 569 1159.12 568.622 1159.6 568.344C1160.08 568.065 1160.62 567.855 1161.22 567.713C1161.82 567.571 1162.42 567.463 1163.04 567.389C1163.83 567.298 1164.46 567.224 1164.95 567.168C1165.44 567.105 1165.8 567.006 1166.02 566.869C1166.24 566.733 1166.35 566.511 1166.35 566.205V566.145C1166.35 565.401 1166.14 564.824 1165.72 564.415C1165.3 564.006 1164.68 563.801 1163.86 563.801C1163 563.801 1162.33 563.991 1161.83 564.372C1161.34 564.747 1161.01 565.165 1160.82 565.625L1158.42 565.08C1158.71 564.284 1159.12 563.642 1159.67 563.153C1160.22 562.659 1160.85 562.301 1161.57 562.08C1162.28 561.852 1163.04 561.739 1163.83 561.739C1164.35 561.739 1164.9 561.801 1165.49 561.926C1166.08 562.045 1166.63 562.267 1167.14 562.591C1167.66 562.915 1168.08 563.378 1168.41 563.98C1168.74 564.577 1168.91 565.352 1168.91 566.307V575H1166.42V573.21H1166.32C1166.15 573.54 1165.9 573.864 1165.57 574.182C1165.24 574.5 1164.82 574.764 1164.3 574.974C1163.79 575.185 1163.17 575.29 1162.45 575.29ZM1163 573.244C1163.7 573.244 1164.31 573.105 1164.81 572.827C1165.31 572.548 1165.7 572.185 1165.96 571.736C1166.22 571.281 1166.36 570.795 1166.36 570.278V568.591C1166.27 568.682 1166.09 568.767 1165.83 568.847C1165.57 568.92 1165.28 568.986 1164.95 569.043C1164.62 569.094 1164.3 569.142 1163.99 569.188C1163.68 569.227 1163.41 569.261 1163.2 569.29C1162.71 569.352 1162.26 569.457 1161.85 569.605C1161.45 569.753 1161.12 569.966 1160.88 570.244C1160.64 570.517 1160.52 570.881 1160.52 571.335C1160.52 571.966 1160.75 572.443 1161.22 572.767C1161.68 573.085 1162.28 573.244 1163 573.244ZM1177.93 561.909V563.955H1170.78V561.909H1177.93ZM1172.7 558.773H1175.25V571.156C1175.25 571.651 1175.32 572.023 1175.47 572.273C1175.62 572.517 1175.81 572.685 1176.04 572.776C1176.28 572.861 1176.54 572.903 1176.81 572.903C1177.02 572.903 1177.2 572.889 1177.35 572.861C1177.51 572.832 1177.62 572.81 1177.71 572.793L1178.17 574.898C1178.02 574.955 1177.81 575.011 1177.54 575.068C1177.27 575.131 1176.93 575.165 1176.52 575.17C1175.85 575.182 1175.22 575.062 1174.64 574.812C1174.06 574.562 1173.59 574.176 1173.24 573.653C1172.88 573.131 1172.7 572.474 1172.7 571.685V558.773ZM1185.77 575.264C1184.48 575.264 1183.37 574.989 1182.44 574.438C1181.51 573.881 1180.8 573.099 1180.29 572.094C1179.79 571.082 1179.54 569.898 1179.54 568.54C1179.54 567.199 1179.79 566.017 1180.29 564.994C1180.8 563.972 1181.5 563.173 1182.41 562.599C1183.31 562.026 1184.38 561.739 1185.59 561.739C1186.33 561.739 1187.05 561.861 1187.74 562.105C1188.43 562.349 1189.06 562.733 1189.61 563.256C1190.16 563.778 1190.59 564.457 1190.91 565.293C1191.23 566.122 1191.39 567.131 1191.39 568.318V569.222H1180.98V567.312H1188.89C1188.89 566.642 1188.75 566.048 1188.48 565.531C1188.21 565.009 1187.83 564.597 1187.33 564.295C1186.84 563.994 1186.27 563.844 1185.61 563.844C1184.89 563.844 1184.27 564.02 1183.73 564.372C1183.21 564.719 1182.8 565.173 1182.51 565.736C1182.22 566.293 1182.08 566.898 1182.08 567.551V569.043C1182.08 569.918 1182.23 570.662 1182.54 571.276C1182.85 571.889 1183.29 572.358 1183.85 572.682C1184.4 573 1185.05 573.159 1185.8 573.159C1186.28 573.159 1186.72 573.091 1187.12 572.955C1187.52 572.812 1187.86 572.602 1188.15 572.324C1188.44 572.045 1188.66 571.702 1188.81 571.293L1191.23 571.727C1191.03 572.437 1190.69 573.06 1190.19 573.594C1189.69 574.122 1189.07 574.534 1188.32 574.83C1187.58 575.119 1186.73 575.264 1185.77 575.264ZM1193.74 575V561.909H1196.2V563.989H1196.33C1196.57 563.284 1196.99 562.73 1197.6 562.327C1198.2 561.918 1198.89 561.713 1199.66 561.713C1199.82 561.713 1200.01 561.719 1200.22 561.73C1200.44 561.741 1200.62 561.756 1200.74 561.773V564.21C1200.64 564.182 1200.46 564.151 1200.2 564.116C1199.93 564.077 1199.67 564.057 1199.41 564.057C1198.81 564.057 1198.27 564.185 1197.8 564.44C1197.33 564.69 1196.97 565.04 1196.69 565.489C1196.42 565.932 1196.28 566.437 1196.28 567.006V575H1193.74ZM1206.16 575.29C1205.33 575.29 1204.58 575.136 1203.91 574.83C1203.24 574.517 1202.71 574.065 1202.32 573.474C1201.93 572.884 1201.74 572.159 1201.74 571.301C1201.74 570.562 1201.88 569.955 1202.16 569.477C1202.45 569 1202.83 568.622 1203.31 568.344C1203.8 568.065 1204.34 567.855 1204.93 567.713C1205.53 567.571 1206.14 567.463 1206.76 567.389C1207.54 567.298 1208.18 567.224 1208.66 567.168C1209.15 567.105 1209.51 567.006 1209.73 566.869C1209.95 566.733 1210.06 566.511 1210.06 566.205V566.145C1210.06 565.401 1209.85 564.824 1209.43 564.415C1209.02 564.006 1208.4 563.801 1207.57 563.801C1206.72 563.801 1206.04 563.991 1205.55 564.372C1205.06 564.747 1204.72 565.165 1204.53 565.625L1202.14 565.08C1202.42 564.284 1202.84 563.642 1203.38 563.153C1203.93 562.659 1204.57 562.301 1205.28 562.08C1206 561.852 1206.75 561.739 1207.54 561.739C1208.06 561.739 1208.62 561.801 1209.2 561.926C1209.79 562.045 1210.34 562.267 1210.85 562.591C1211.37 562.915 1211.8 563.378 1212.12 563.98C1212.45 564.577 1212.62 565.352 1212.62 566.307V575H1210.13V573.21H1210.03C1209.86 573.54 1209.62 573.864 1209.29 574.182C1208.96 574.5 1208.53 574.764 1208.02 574.974C1207.5 575.185 1206.88 575.29 1206.16 575.29ZM1206.71 573.244C1207.42 573.244 1208.02 573.105 1208.52 572.827C1209.03 572.548 1209.41 572.185 1209.67 571.736C1209.94 571.281 1210.07 570.795 1210.07 570.278V568.591C1209.98 568.682 1209.8 568.767 1209.54 568.847C1209.29 568.92 1208.99 568.986 1208.66 569.043C1208.34 569.094 1208.01 569.142 1207.7 569.188C1207.39 569.227 1207.13 569.261 1206.92 569.29C1206.42 569.352 1205.97 569.457 1205.56 569.605C1205.16 569.753 1204.84 569.966 1204.59 570.244C1204.35 570.517 1204.23 570.881 1204.23 571.335C1204.23 571.966 1204.47 572.443 1204.93 572.767C1205.4 573.085 1205.99 573.244 1206.71 573.244ZM1218.08 557.545V575H1215.53V557.545H1218.08Z" fill="#AABDC6"/>
<path d="M1025 547H1216V545H1025V547ZM1216 585H1025V587H1216V585ZM1025 585C1014.51 585 1006 576.493 1006 566H1004C1004 577.598 1013.4 587 1025 587V585ZM1235 566C1235 576.493 1226.49 585 1216 585V587C1227.6 587 1237 577.598 1237 566H1235ZM1216 547C1226.49 547 1235 555.507 1235 566H1237C1237 554.402 1227.6 545 1216 545V547ZM1025 545C1013.4 545 1004 554.402 1004 566H1006C1006 555.507 1014.51 547 1025 547V545Z" fill="#AABDC6"/>
<path d="M482.058 557.545V575H479.638L470.766 562.199H470.604V575H467.97V557.545H470.408L479.288 570.364H479.45V557.545H482.058ZM500.582 566.273C500.582 568.136 500.241 569.739 499.559 571.08C498.877 572.415 497.943 573.443 496.755 574.165C495.573 574.881 494.23 575.239 492.724 575.239C491.212 575.239 489.863 574.881 488.676 574.165C487.494 573.443 486.562 572.412 485.88 571.071C485.198 569.73 484.857 568.131 484.857 566.273C484.857 564.409 485.198 562.81 485.88 561.474C486.562 560.134 487.494 559.105 488.676 558.389C489.863 557.668 491.212 557.307 492.724 557.307C494.23 557.307 495.573 557.668 496.755 558.389C497.943 559.105 498.877 560.134 499.559 561.474C500.241 562.81 500.582 564.409 500.582 566.273ZM497.974 566.273C497.974 564.852 497.744 563.656 497.283 562.685C496.829 561.707 496.204 560.969 495.408 560.469C494.619 559.963 493.724 559.71 492.724 559.71C491.718 559.71 490.82 559.963 490.031 560.469C489.241 560.969 488.616 561.707 488.156 562.685C487.701 563.656 487.474 564.852 487.474 566.273C487.474 567.693 487.701 568.892 488.156 569.869C488.616 570.841 489.241 571.58 490.031 572.085C490.82 572.585 491.718 572.835 492.724 572.835C493.724 572.835 494.619 572.585 495.408 572.085C496.204 571.58 496.829 570.841 497.283 569.869C497.744 568.892 497.974 567.693 497.974 566.273Z" fill="#AABDC6"/>
<path d="M28.7287 150.131C28.6377 149.324 28.2627 148.699 27.6037 148.256C26.9446 147.807 26.115 147.582 25.115 147.582C24.3991 147.582 23.7798 147.696 23.2571 147.923C22.7343 148.145 22.3281 148.452 22.0383 148.844C21.7542 149.23 21.6122 149.67 21.6122 150.165C21.6122 150.58 21.7088 150.937 21.9019 151.239C22.1008 151.54 22.3593 151.793 22.6775 151.997C23.0014 152.196 23.348 152.364 23.7173 152.5C24.0866 152.631 24.4417 152.739 24.7826 152.824L26.4872 153.267C27.044 153.403 27.615 153.588 28.2002 153.821C28.7855 154.054 29.3281 154.361 29.8281 154.741C30.3281 155.122 30.7315 155.594 31.0383 156.156C31.3508 156.719 31.5071 157.392 31.5071 158.176C31.5071 159.165 31.2514 160.043 30.74 160.81C30.2343 161.577 29.4985 162.182 28.5326 162.625C27.5724 163.068 26.4105 163.29 25.0468 163.29C23.74 163.29 22.6093 163.082 21.6548 162.668C20.7002 162.253 19.9531 161.665 19.4133 160.903C18.8735 160.136 18.5752 159.227 18.5184 158.176H21.1605C21.2116 158.807 21.4162 159.332 21.7741 159.753C22.1377 160.168 22.6008 160.477 23.1633 160.682C23.7315 160.881 24.3537 160.98 25.0298 160.98C25.7741 160.98 26.436 160.864 27.0156 160.631C27.6008 160.392 28.061 160.062 28.3963 159.642C28.7315 159.216 28.8991 158.719 28.8991 158.151C28.8991 157.634 28.7514 157.21 28.4559 156.881C28.1662 156.551 27.7713 156.278 27.2713 156.062C26.7769 155.847 26.2173 155.656 25.5923 155.491L23.5298 154.929C22.1321 154.548 21.0241 153.989 20.2059 153.25C19.3934 152.511 18.9872 151.534 18.9872 150.318C18.9872 149.312 19.2599 148.435 19.8054 147.685C20.3508 146.935 21.0894 146.352 22.0213 145.938C22.9531 145.517 24.0042 145.307 25.1747 145.307C26.3565 145.307 27.3991 145.514 28.3025 145.929C29.2116 146.344 29.9275 146.915 30.4502 147.642C30.973 148.364 31.2457 149.193 31.2684 150.131H28.7287ZM33.9695 167.909V149.909H36.4582V152.031H36.6712C36.819 151.759 37.032 151.443 37.3104 151.085C37.5889 150.727 37.9752 150.415 38.4695 150.148C38.9639 149.875 39.6173 149.739 40.4298 149.739C41.4866 149.739 42.4298 150.006 43.2593 150.54C44.0889 151.074 44.7394 151.844 45.211 152.849C45.6883 153.855 45.9269 155.065 45.9269 156.48C45.9269 157.895 45.6911 159.108 45.2195 160.119C44.7479 161.125 44.1002 161.901 43.2764 162.446C42.4525 162.986 41.5121 163.256 40.4553 163.256C39.6599 163.256 39.0093 163.122 38.5036 162.855C38.0036 162.588 37.6116 162.276 37.3275 161.918C37.0434 161.56 36.8246 161.241 36.6712 160.963H36.5178V167.909H33.9695ZM36.4667 156.455C36.4667 157.375 36.6002 158.182 36.8673 158.875C37.1343 159.568 37.5207 160.111 38.0264 160.503C38.532 160.889 39.1514 161.082 39.8843 161.082C40.6457 161.082 41.282 160.881 41.7934 160.477C42.3048 160.068 42.6911 159.514 42.9525 158.815C43.2195 158.116 43.3531 157.33 43.3531 156.455C43.3531 155.591 43.2224 154.815 42.961 154.128C42.7053 153.44 42.319 152.898 41.8019 152.5C41.2906 152.102 40.6514 151.903 39.8843 151.903C39.1457 151.903 38.5207 152.094 38.0093 152.474C37.5036 152.855 37.1201 153.386 36.8587 154.068C36.5974 154.75 36.4667 155.545 36.4667 156.455ZM53.9441 163.264C52.6543 163.264 51.5435 162.989 50.6117 162.438C49.6856 161.881 48.9696 161.099 48.464 160.094C47.964 159.082 47.714 157.898 47.714 156.54C47.714 155.199 47.964 154.017 48.464 152.994C48.9696 151.972 49.6742 151.173 50.5776 150.599C51.4867 150.026 52.5492 149.739 53.7651 149.739C54.5037 149.739 55.2196 149.861 55.9128 150.105C56.606 150.349 57.2282 150.733 57.7793 151.256C58.3304 151.778 58.7651 152.457 59.0833 153.293C59.4015 154.122 59.5606 155.131 59.5606 156.318V157.222H49.1543V155.312H57.0634C57.0634 154.642 56.927 154.048 56.6543 153.531C56.3816 153.009 55.9981 152.597 55.5037 152.295C55.0151 151.994 54.4412 151.844 53.7821 151.844C53.0662 151.844 52.4412 152.02 51.9071 152.372C51.3787 152.719 50.9696 153.173 50.6799 153.736C50.3958 154.293 50.2537 154.898 50.2537 155.551V157.043C50.2537 157.918 50.4071 158.662 50.714 159.276C51.0265 159.889 51.4611 160.358 52.0179 160.682C52.5748 161 53.2253 161.159 53.9696 161.159C54.4526 161.159 54.8929 161.091 55.2907 160.955C55.6884 160.812 56.0321 160.602 56.3219 160.324C56.6117 160.045 56.8333 159.702 56.9867 159.293L59.3986 159.727C59.2054 160.437 58.8589 161.06 58.3589 161.594C57.8645 162.122 57.2424 162.534 56.4924 162.83C55.7481 163.119 54.8986 163.264 53.9441 163.264ZM67.4222 163.264C66.1551 163.264 65.0642 162.977 64.1494 162.403C63.2404 161.824 62.5415 161.026 62.0529 160.009C61.5642 158.991 61.3199 157.827 61.3199 156.514C61.3199 155.185 61.5699 154.011 62.0699 152.994C62.5699 151.972 63.2744 151.173 64.1835 150.599C65.0926 150.026 66.1637 149.739 67.3966 149.739C68.3909 149.739 69.2773 149.923 70.0557 150.293C70.8341 150.656 71.462 151.168 71.9392 151.827C72.4222 152.486 72.7091 153.256 72.8 154.136H70.3199C70.1835 153.523 69.871 152.994 69.3824 152.551C68.8994 152.108 68.2517 151.886 67.4392 151.886C66.729 151.886 66.1068 152.074 65.5727 152.449C65.0443 152.818 64.6324 153.347 64.3369 154.034C64.0415 154.716 63.8938 155.523 63.8938 156.455C63.8938 157.409 64.0387 158.233 64.3284 158.926C64.6182 159.619 65.0273 160.156 65.5557 160.537C66.0898 160.918 66.7176 161.108 67.4392 161.108C67.9222 161.108 68.3597 161.02 68.7517 160.844C69.1495 160.662 69.4818 160.403 69.7489 160.068C70.0216 159.733 70.2119 159.33 70.3199 158.858H72.8C72.7091 159.705 72.4335 160.46 71.9733 161.125C71.5131 161.79 70.8966 162.312 70.1239 162.693C69.3568 163.074 68.4563 163.264 67.4222 163.264ZM75.0452 163V149.909H77.5935V163H75.0452ZM76.3321 147.889C75.8889 147.889 75.5082 147.741 75.19 147.446C74.8775 147.145 74.7213 146.787 74.7213 146.372C74.7213 145.952 74.8775 145.594 75.19 145.298C75.5082 144.997 75.8889 144.847 76.3321 144.847C76.7753 144.847 77.1531 144.997 77.4656 145.298C77.7838 145.594 77.9429 145.952 77.9429 146.372C77.9429 146.787 77.7838 147.145 77.4656 147.446C77.1531 147.741 76.7753 147.889 76.3321 147.889ZM86.7718 149.909V151.955H79.3741V149.909H86.7718ZM81.4025 163V148.392C81.4025 147.574 81.5815 146.895 81.9394 146.355C82.2974 145.81 82.7718 145.403 83.3627 145.136C83.9537 144.864 84.5957 144.727 85.2889 144.727C85.8002 144.727 86.2377 144.77 86.6014 144.855C86.965 144.935 87.2349 145.009 87.411 145.077L86.8144 147.139C86.6951 147.105 86.5417 147.065 86.3542 147.02C86.1667 146.969 85.9394 146.943 85.6724 146.943C85.0531 146.943 84.6099 147.097 84.3429 147.403C84.0815 147.71 83.9508 148.153 83.9508 148.733V163H81.4025ZM88.9211 163V149.909H91.4694V163H88.9211ZM90.208 147.889C89.7648 147.889 89.3842 147.741 89.066 147.446C88.7535 147.145 88.5972 146.787 88.5972 146.372C88.5972 145.952 88.7535 145.594 89.066 145.298C89.3842 144.997 89.7648 144.847 90.208 144.847C90.6512 144.847 91.0291 144.997 91.3416 145.298C91.6597 145.594 91.8188 145.952 91.8188 146.372C91.8188 146.787 91.6597 147.145 91.3416 147.446C91.0291 147.741 90.6512 147.889 90.208 147.889ZM99.9319 163.264C98.6648 163.264 97.5739 162.977 96.6591 162.403C95.75 161.824 95.0512 161.026 94.5625 160.009C94.0739 158.991 93.8296 157.827 93.8296 156.514C93.8296 155.185 94.0796 154.011 94.5796 152.994C95.0796 151.972 95.7841 151.173 96.6932 150.599C97.6023 150.026 98.6733 149.739 99.9063 149.739C100.901 149.739 101.787 149.923 102.565 150.293C103.344 150.656 103.972 151.168 104.449 151.827C104.932 152.486 105.219 153.256 105.31 154.136H102.83C102.693 153.523 102.381 152.994 101.892 152.551C101.409 152.108 100.761 151.886 99.9489 151.886C99.2387 151.886 98.6165 152.074 98.0824 152.449C97.554 152.818 97.1421 153.347 96.8466 154.034C96.5512 154.716 96.4035 155.523 96.4035 156.455C96.4035 157.409 96.5483 158.233 96.8381 158.926C97.1279 159.619 97.537 160.156 98.0654 160.537C98.5995 160.918 99.2273 161.108 99.9489 161.108C100.432 161.108 100.869 161.02 101.261 160.844C101.659 160.662 101.992 160.403 102.259 160.068C102.531 159.733 102.722 159.33 102.83 158.858H105.31C105.219 159.705 104.943 160.46 104.483 161.125C104.023 161.79 103.406 162.312 102.634 162.693C101.867 163.074 100.966 163.264 99.9319 163.264ZM117.365 153.105L115.055 153.514C114.958 153.219 114.805 152.937 114.595 152.67C114.39 152.403 114.112 152.185 113.759 152.014C113.407 151.844 112.967 151.759 112.438 151.759C111.717 151.759 111.115 151.92 110.632 152.244C110.149 152.562 109.907 152.974 109.907 153.48C109.907 153.918 110.069 154.27 110.393 154.537C110.717 154.804 111.24 155.023 111.961 155.193L114.041 155.67C115.245 155.949 116.143 156.378 116.734 156.957C117.325 157.537 117.62 158.29 117.62 159.216C117.62 160 117.393 160.699 116.938 161.312C116.49 161.92 115.862 162.398 115.055 162.744C114.254 163.091 113.325 163.264 112.268 163.264C110.802 163.264 109.606 162.952 108.68 162.327C107.754 161.696 107.186 160.801 106.975 159.642L109.438 159.267C109.592 159.909 109.907 160.395 110.384 160.724C110.862 161.048 111.484 161.21 112.251 161.21C113.086 161.21 113.754 161.037 114.254 160.69C114.754 160.338 115.004 159.909 115.004 159.403C115.004 158.994 114.85 158.651 114.543 158.372C114.242 158.094 113.779 157.884 113.154 157.741L110.938 157.256C109.717 156.977 108.813 156.534 108.228 155.926C107.649 155.318 107.359 154.548 107.359 153.616C107.359 152.844 107.575 152.168 108.007 151.588C108.438 151.009 109.035 150.557 109.796 150.233C110.558 149.903 111.43 149.739 112.413 149.739C113.828 149.739 114.941 150.045 115.754 150.659C116.566 151.267 117.103 152.082 117.365 153.105Z" fill="#AABDC6"/>
<path d="M21.0001 135H198V133H21.0001V135ZM198 173H21.0001V175H198V173ZM21.0001 173C10.5066 173 2.00006 164.493 2.00006 154H6.10352e-05C6.10352e-05 165.598 9.40208 175 21.0001 175V173ZM217 154C217 164.493 208.493 173 198 173V175C209.598 175 219 165.598 219 154H217ZM198 135C208.493 135 217 143.507 217 154H219C219 142.402 209.598 133 198 133V135ZM21.0001 133C9.40208 133 6.10352e-05 142.402 6.10352e-05 154H2.00006C2.00006 143.507 10.5067 135 21.0001 135V133Z" fill="#AABDC6"/>
<path d="M18.9653 203V185.545H25.3574C26.596 185.545 27.6216 185.75 28.4341 186.159C29.2466 186.562 29.8545 187.111 30.2579 187.804C30.6614 188.491 30.8631 189.267 30.8631 190.131C30.8631 190.858 30.7295 191.472 30.4625 191.972C30.1954 192.466 29.8375 192.864 29.3886 193.165C28.9454 193.46 28.4568 193.676 27.9227 193.812V193.983C28.5023 194.011 29.0676 194.199 29.6187 194.545C30.1756 194.886 30.6358 195.372 30.9994 196.003C31.3631 196.634 31.5449 197.401 31.5449 198.304C31.5449 199.196 31.3347 199.997 30.9142 200.707C30.4994 201.412 29.8574 201.972 28.9881 202.386C28.1187 202.795 27.0079 203 25.6557 203H18.9653ZM21.5989 200.741H25.4C26.6614 200.741 27.5648 200.497 28.1102 200.009C28.6557 199.52 28.9284 198.909 28.9284 198.176C28.9284 197.625 28.7892 197.119 28.5108 196.659C28.2324 196.199 27.8347 195.832 27.3176 195.56C26.8062 195.287 26.1983 195.151 25.4937 195.151H21.5989V200.741ZM21.5989 193.097H25.1273C25.7182 193.097 26.2494 192.983 26.721 192.756C27.1983 192.528 27.5761 192.21 27.8545 191.801C28.1386 191.386 28.2807 190.898 28.2807 190.335C28.2807 189.614 28.0278 189.009 27.5222 188.52C27.0165 188.031 26.2409 187.787 25.1954 187.787H21.5989V193.097ZM39.4981 203.264C38.2708 203.264 37.1998 202.983 36.285 202.42C35.3703 201.858 34.66 201.071 34.1544 200.06C33.6487 199.048 33.3958 197.866 33.3958 196.514C33.3958 195.156 33.6487 193.969 34.1544 192.952C34.66 191.935 35.3703 191.145 36.285 190.582C37.1998 190.02 38.2708 189.739 39.4981 189.739C40.7254 189.739 41.7964 190.02 42.7112 190.582C43.626 191.145 44.3362 191.935 44.8419 192.952C45.3475 193.969 45.6004 195.156 45.6004 196.514C45.6004 197.866 45.3475 199.048 44.8419 200.06C44.3362 201.071 43.626 201.858 42.7112 202.42C41.7964 202.983 40.7254 203.264 39.4981 203.264ZM39.5066 201.125C40.3021 201.125 40.9612 200.915 41.4839 200.494C42.0066 200.074 42.393 199.514 42.643 198.815C42.8987 198.116 43.0265 197.347 43.0265 196.506C43.0265 195.67 42.8987 194.903 42.643 194.205C42.393 193.5 42.0066 192.935 41.4839 192.509C40.9612 192.082 40.3021 191.869 39.5066 191.869C38.7055 191.869 38.0407 192.082 37.5123 192.509C36.9896 192.935 36.6004 193.5 36.3447 194.205C36.0947 194.903 35.9697 195.67 35.9697 196.506C35.9697 197.347 36.0947 198.116 36.3447 198.815C36.6004 199.514 36.9896 200.074 37.5123 200.494C38.0407 200.915 38.7055 201.125 39.5066 201.125ZM56.2575 197.571V189.909H58.8143V203H56.3086V200.733H56.1722C55.8711 201.432 55.3881 202.014 54.7234 202.48C54.0643 202.94 53.2433 203.17 52.2603 203.17C51.4194 203.17 50.6751 202.986 50.0273 202.616C49.3853 202.241 48.8796 201.688 48.5103 200.955C48.1467 200.222 47.9648 199.315 47.9648 198.236V189.909H50.5131V197.929C50.5131 198.821 50.7603 199.531 51.2546 200.06C51.7489 200.588 52.391 200.852 53.1808 200.852C53.658 200.852 54.1325 200.733 54.6041 200.494C55.0813 200.256 55.4762 199.895 55.7887 199.412C56.1069 198.929 56.2631 198.315 56.2575 197.571ZM64.3066 195.227V203H61.7583V189.909H64.2043V192.04H64.3662C64.6674 191.347 65.139 190.79 65.781 190.369C66.4287 189.949 67.2441 189.739 68.227 189.739C69.1191 189.739 69.9003 189.926 70.5708 190.301C71.2412 190.67 71.7611 191.222 72.1304 191.955C72.4998 192.687 72.6844 193.594 72.6844 194.673V203H70.1361V194.98C70.1361 194.031 69.889 193.29 69.3947 192.756C68.9003 192.216 68.2214 191.946 67.3577 191.946C66.7668 191.946 66.2412 192.074 65.781 192.33C65.3265 192.585 64.9657 192.96 64.6986 193.455C64.4373 193.943 64.3066 194.534 64.3066 195.227ZM81.7328 189.909V191.955H74.5823V189.909H81.7328ZM76.4999 186.773H79.0482V199.156C79.0482 199.651 79.122 200.023 79.2698 200.273C79.4175 200.517 79.6078 200.685 79.8408 200.776C80.0794 200.861 80.3379 200.903 80.6164 200.903C80.8209 200.903 80.9999 200.889 81.1533 200.861C81.3067 200.832 81.426 200.81 81.5112 200.793L81.9715 202.898C81.8237 202.955 81.6135 203.011 81.3408 203.068C81.0681 203.131 80.7272 203.165 80.3181 203.17C79.6476 203.182 79.0226 203.062 78.4431 202.812C77.8635 202.562 77.3948 202.176 77.0368 201.653C76.6789 201.131 76.4999 200.474 76.4999 199.685V186.773ZM85.6825 207.909C85.3018 207.909 84.9552 207.878 84.6427 207.815C84.3302 207.759 84.0973 207.696 83.9439 207.628L84.5575 205.54C85.0234 205.665 85.4382 205.719 85.8018 205.702C86.1655 205.685 86.4865 205.548 86.7649 205.293C87.049 205.037 87.299 204.619 87.5149 204.04L87.8302 203.17L83.0405 189.909H85.7677L89.0831 200.068H89.2195L92.5348 189.909H95.2706L89.8757 204.747C89.6257 205.429 89.3075 206.006 88.9212 206.477C88.5348 206.955 88.0746 207.313 87.5405 207.551C87.0064 207.79 86.3871 207.909 85.6825 207.909Z" fill="#AABDC6"/>
<path d="M21.0001 175H198V173H21.0001V175ZM198 213H21.0001V215H198V213ZM21.0001 213C10.5066 213 2.00006 204.493 2.00006 194H6.10352e-05C6.10352e-05 205.598 9.40208 215 21.0001 215V213ZM217 194C217 204.493 208.493 213 198 213V215C209.598 215 219 205.598 219 194H217ZM198 175C208.493 175 217 183.507 217 194H219C219 182.402 209.598 173 198 173V175ZM21.0001 173C9.40208 173 6.10352e-05 182.402 6.10352e-05 194H2.00006C2.00006 183.507 10.5067 175 21.0001 175V173Z" fill="#AABDC6"/>
<path d="M19.0869 123V105.545H29.9108V107.812H21.7204V113.131H29.1352V115.389H21.7204V123H19.0869ZM32.4648 123V109.909H35.0131V123H32.4648ZM33.7518 107.889C33.3086 107.889 32.9279 107.741 32.6097 107.446C32.2972 107.145 32.141 106.787 32.141 106.372C32.141 105.952 32.2972 105.594 32.6097 105.298C32.9279 104.997 33.3086 104.847 33.7518 104.847C34.195 104.847 34.5728 104.997 34.8853 105.298C35.2035 105.594 35.3626 105.952 35.3626 106.372C35.3626 106.787 35.2035 107.145 34.8853 107.446C34.5728 107.741 34.195 107.889 33.7518 107.889ZM40.5097 105.545V123H37.9614V105.545H40.5097ZM49.1 123.264C47.8102 123.264 46.6994 122.989 45.7676 122.438C44.8415 121.881 44.1256 121.099 43.6199 120.094C43.1199 119.082 42.8699 117.898 42.8699 116.54C42.8699 115.199 43.1199 114.017 43.6199 112.994C44.1256 111.972 44.8301 111.173 45.7335 110.599C46.6426 110.026 47.7051 109.739 48.921 109.739C49.6597 109.739 50.3756 109.861 51.0688 110.105C51.7619 110.349 52.3841 110.733 52.9352 111.256C53.4864 111.778 53.921 112.457 54.2392 113.293C54.5574 114.122 54.7165 115.131 54.7165 116.318V117.222H44.3102V115.312H52.2193C52.2193 114.642 52.083 114.048 51.8102 113.531C51.5375 113.009 51.154 112.597 50.6597 112.295C50.171 111.994 49.5972 111.844 48.9381 111.844C48.2222 111.844 47.5972 112.02 47.0631 112.372C46.5347 112.719 46.1256 113.173 45.8358 113.736C45.5517 114.293 45.4097 114.898 45.4097 115.551V117.043C45.4097 117.918 45.5631 118.662 45.8699 119.276C46.1824 119.889 46.6171 120.358 47.1739 120.682C47.7307 121 48.3813 121.159 49.1256 121.159C49.6085 121.159 50.0489 121.091 50.4466 120.955C50.8443 120.812 51.1881 120.602 51.4779 120.324C51.7676 120.045 51.9892 119.702 52.1426 119.293L54.5546 119.727C54.3614 120.437 54.0148 121.06 53.5148 121.594C53.0205 122.122 52.3983 122.534 51.6483 122.83C50.904 123.119 50.0546 123.264 49.1 123.264Z" fill="#AABDC6"/>
<path d="M21.0001 95H198V93H21.0001V95ZM198 133H21.0001V135H198V133ZM21.0001 133C10.5066 133 2.00006 124.493 2.00006 114H6.10352e-05C6.10352e-05 125.598 9.40208 135 21.0001 135V133ZM217 114C217 124.493 208.493 133 198 133V135C209.598 135 219 125.598 219 114H217ZM198 95C208.493 95 217 103.507 217 114H219C219 102.402 209.598 93 198 93V95ZM21.0001 93C9.40208 93 6.10352e-05 102.402 6.10352e-05 114H2.00006C2.00006 103.507 10.5067 95 21.0001 95V93Z" fill="#AABDC6"/>
<path d="M1216.91 191.222H1214.25C1214.15 190.653 1213.96 190.153 1213.68 189.722C1213.4 189.29 1213.06 188.923 1212.65 188.622C1212.25 188.321 1211.8 188.094 1211.3 187.94C1210.8 187.787 1210.28 187.71 1209.72 187.71C1208.72 187.71 1207.82 187.963 1207.02 188.469C1206.23 188.974 1205.61 189.716 1205.15 190.693C1204.69 191.67 1204.46 192.864 1204.46 194.273C1204.46 195.693 1204.69 196.892 1205.15 197.869C1205.61 198.847 1206.23 199.585 1207.03 200.085C1207.82 200.585 1208.72 200.835 1209.71 200.835C1210.26 200.835 1210.79 200.761 1211.28 200.614C1211.78 200.46 1212.23 200.236 1212.64 199.94C1213.04 199.645 1213.38 199.284 1213.66 198.858C1213.94 198.426 1214.14 197.932 1214.25 197.375L1216.91 197.384C1216.76 198.241 1216.49 199.031 1216.08 199.753C1215.68 200.469 1215.16 201.088 1214.52 201.611C1213.89 202.128 1213.17 202.528 1212.36 202.812C1211.54 203.097 1210.66 203.239 1209.7 203.239C1208.19 203.239 1206.84 202.881 1205.66 202.165C1204.48 201.443 1203.54 200.412 1202.86 199.071C1202.19 197.73 1201.85 196.131 1201.85 194.273C1201.85 192.409 1202.19 190.81 1202.87 189.474C1203.55 188.134 1204.48 187.105 1205.67 186.389C1206.85 185.668 1208.19 185.307 1209.7 185.307C1210.62 185.307 1211.49 185.44 1212.29 185.707C1213.09 185.969 1213.82 186.355 1214.46 186.866C1215.1 187.372 1215.63 187.991 1216.05 188.724C1216.48 189.452 1216.76 190.284 1216.91 191.222ZM1224.89 203.264C1223.66 203.264 1222.59 202.983 1221.67 202.42C1220.76 201.858 1220.05 201.071 1219.54 200.06C1219.04 199.048 1218.79 197.866 1218.79 196.514C1218.79 195.156 1219.04 193.969 1219.54 192.952C1220.05 191.935 1220.76 191.145 1221.67 190.582C1222.59 190.02 1223.66 189.739 1224.89 189.739C1226.12 189.739 1227.19 190.02 1228.1 190.582C1229.02 191.145 1229.73 191.935 1230.23 192.952C1230.74 193.969 1230.99 195.156 1230.99 196.514C1230.99 197.866 1230.74 199.048 1230.23 200.06C1229.73 201.071 1229.02 201.858 1228.1 202.42C1227.19 202.983 1226.12 203.264 1224.89 203.264ZM1224.9 201.125C1225.69 201.125 1226.35 200.915 1226.87 200.494C1227.4 200.074 1227.78 199.514 1228.03 198.815C1228.29 198.116 1228.42 197.347 1228.42 196.506C1228.42 195.67 1228.29 194.903 1228.03 194.205C1227.78 193.5 1227.4 192.935 1226.87 192.509C1226.35 192.082 1225.69 191.869 1224.9 191.869C1224.1 191.869 1223.43 192.082 1222.9 192.509C1222.38 192.935 1221.99 193.5 1221.73 194.205C1221.48 194.903 1221.36 195.67 1221.36 196.506C1221.36 197.347 1221.48 198.116 1221.73 198.815C1221.99 199.514 1222.38 200.074 1222.9 200.494C1223.43 200.915 1224.1 201.125 1224.9 201.125ZM1235.9 185.545V203H1233.35V185.545H1235.9ZM1241.4 185.545V203H1238.85V185.545H1241.4ZM1248.16 203.29C1247.33 203.29 1246.58 203.136 1245.91 202.83C1245.24 202.517 1244.71 202.065 1244.31 201.474C1243.93 200.884 1243.73 200.159 1243.73 199.301C1243.73 198.562 1243.88 197.955 1244.16 197.477C1244.44 197 1244.83 196.622 1245.31 196.344C1245.79 196.065 1246.33 195.855 1246.93 195.713C1247.53 195.571 1248.13 195.463 1248.75 195.389C1249.54 195.298 1250.17 195.224 1250.66 195.168C1251.15 195.105 1251.51 195.006 1251.73 194.869C1251.95 194.733 1252.06 194.511 1252.06 194.205V194.145C1252.06 193.401 1251.85 192.824 1251.43 192.415C1251.02 192.006 1250.4 191.801 1249.57 191.801C1248.71 191.801 1248.04 191.991 1247.54 192.372C1247.06 192.747 1246.72 193.165 1246.53 193.625L1244.13 193.08C1244.42 192.284 1244.83 191.642 1245.38 191.153C1245.93 190.659 1246.56 190.301 1247.28 190.08C1248 189.852 1248.75 189.739 1249.54 189.739C1250.06 189.739 1250.61 189.801 1251.2 189.926C1251.79 190.045 1252.34 190.267 1252.85 190.591C1253.37 190.915 1253.79 191.378 1254.12 191.98C1254.45 192.577 1254.62 193.352 1254.62 194.307V203H1252.13V201.21H1252.03C1251.86 201.54 1251.61 201.864 1251.29 202.182C1250.96 202.5 1250.53 202.764 1250.02 202.974C1249.5 203.185 1248.88 203.29 1248.16 203.29ZM1248.71 201.244C1249.42 201.244 1250.02 201.105 1250.52 200.827C1251.02 200.548 1251.41 200.185 1251.67 199.736C1251.94 199.281 1252.07 198.795 1252.07 198.278V196.591C1251.98 196.682 1251.8 196.767 1251.54 196.847C1251.29 196.92 1250.99 196.986 1250.66 197.043C1250.33 197.094 1250.01 197.142 1249.7 197.188C1249.39 197.227 1249.13 197.261 1248.92 197.29C1248.42 197.352 1247.97 197.457 1247.56 197.605C1247.16 197.753 1246.83 197.966 1246.59 198.244C1246.35 198.517 1246.23 198.881 1246.23 199.335C1246.23 199.966 1246.46 200.443 1246.93 200.767C1247.4 201.085 1247.99 201.244 1248.71 201.244ZM1263.64 189.909V191.955H1256.49V189.909H1263.64ZM1258.41 186.773H1260.96V199.156C1260.96 199.651 1261.03 200.023 1261.18 200.273C1261.33 200.517 1261.52 200.685 1261.75 200.776C1261.99 200.861 1262.25 200.903 1262.53 200.903C1262.73 200.903 1262.91 200.889 1263.06 200.861C1263.22 200.832 1263.34 200.81 1263.42 200.793L1263.88 202.898C1263.73 202.955 1263.52 203.011 1263.25 203.068C1262.98 203.131 1262.64 203.165 1262.23 203.17C1261.56 203.182 1260.93 203.062 1260.35 202.812C1259.77 202.562 1259.3 202.176 1258.95 201.653C1258.59 201.131 1258.41 200.474 1258.41 199.685V186.773ZM1271.48 203.264C1270.19 203.264 1269.08 202.989 1268.15 202.438C1267.22 201.881 1266.51 201.099 1266 200.094C1265.5 199.082 1265.25 197.898 1265.25 196.54C1265.25 195.199 1265.5 194.017 1266 192.994C1266.51 191.972 1267.21 191.173 1268.12 190.599C1269.03 190.026 1270.09 189.739 1271.3 189.739C1272.04 189.739 1272.76 189.861 1273.45 190.105C1274.14 190.349 1274.77 190.733 1275.32 191.256C1275.87 191.778 1276.3 192.457 1276.62 193.293C1276.94 194.122 1277.1 195.131 1277.1 196.318V197.222H1266.69V195.312H1274.6C1274.6 194.642 1274.47 194.048 1274.19 193.531C1273.92 193.009 1273.54 192.597 1273.04 192.295C1272.55 191.994 1271.98 191.844 1271.32 191.844C1270.6 191.844 1269.98 192.02 1269.45 192.372C1268.92 192.719 1268.51 193.173 1268.22 193.736C1267.93 194.293 1267.79 194.898 1267.79 195.551V197.043C1267.79 197.918 1267.95 198.662 1268.25 199.276C1268.57 199.889 1269 200.358 1269.56 200.682C1270.11 201 1270.76 201.159 1271.51 201.159C1271.99 201.159 1272.43 201.091 1272.83 200.955C1273.23 200.812 1273.57 200.602 1273.86 200.324C1274.15 200.045 1274.37 199.702 1274.53 199.293L1276.94 199.727C1276.74 200.437 1276.4 201.06 1275.9 201.594C1275.4 202.122 1274.78 202.534 1274.03 202.83C1273.29 203.119 1272.44 203.264 1271.48 203.264ZM1279.45 203V189.909H1281.91V191.989H1282.05C1282.28 191.284 1282.71 190.73 1283.31 190.327C1283.92 189.918 1284.6 189.713 1285.37 189.713C1285.53 189.713 1285.72 189.719 1285.93 189.73C1286.15 189.741 1286.33 189.756 1286.45 189.773V192.21C1286.35 192.182 1286.17 192.151 1285.91 192.116C1285.65 192.077 1285.38 192.057 1285.12 192.057C1284.52 192.057 1283.98 192.185 1283.51 192.44C1283.05 192.69 1282.68 193.04 1282.4 193.489C1282.13 193.932 1282 194.437 1282 195.006V203H1279.45ZM1291.87 203.29C1291.04 203.29 1290.29 203.136 1289.62 202.83C1288.95 202.517 1288.42 202.065 1288.03 201.474C1287.64 200.884 1287.45 200.159 1287.45 199.301C1287.45 198.562 1287.59 197.955 1287.87 197.477C1288.16 197 1288.54 196.622 1289.02 196.344C1289.51 196.065 1290.05 195.855 1290.64 195.713C1291.24 195.571 1291.85 195.463 1292.47 195.389C1293.25 195.298 1293.89 195.224 1294.38 195.168C1294.86 195.105 1295.22 195.006 1295.44 194.869C1295.66 194.733 1295.77 194.511 1295.77 194.205V194.145C1295.77 193.401 1295.56 192.824 1295.14 192.415C1294.73 192.006 1294.11 191.801 1293.28 191.801C1292.43 191.801 1291.75 191.991 1291.26 192.372C1290.77 192.747 1290.43 193.165 1290.24 193.625L1287.85 193.08C1288.13 192.284 1288.55 191.642 1289.09 191.153C1289.64 190.659 1290.28 190.301 1290.99 190.08C1291.71 189.852 1292.46 189.739 1293.25 189.739C1293.77 189.739 1294.33 189.801 1294.91 189.926C1295.5 190.045 1296.05 190.267 1296.57 190.591C1297.08 190.915 1297.51 191.378 1297.84 191.98C1298.17 192.577 1298.33 193.352 1298.33 194.307V203H1295.84V201.21H1295.74C1295.57 201.54 1295.33 201.864 1295 202.182C1294.67 202.5 1294.25 202.764 1293.73 202.974C1293.21 203.185 1292.59 203.29 1291.87 203.29ZM1292.42 201.244C1293.13 201.244 1293.73 201.105 1294.23 200.827C1294.74 200.548 1295.12 200.185 1295.38 199.736C1295.65 199.281 1295.78 198.795 1295.78 198.278V196.591C1295.69 196.682 1295.52 196.767 1295.25 196.847C1295 196.92 1294.71 196.986 1294.38 197.043C1294.05 197.094 1293.73 197.142 1293.41 197.188C1293.1 197.227 1292.84 197.261 1292.63 197.29C1292.13 197.352 1291.68 197.457 1291.27 197.605C1290.87 197.753 1290.55 197.966 1290.3 198.244C1290.06 198.517 1289.94 198.881 1289.94 199.335C1289.94 199.966 1290.18 200.443 1290.64 200.767C1291.11 201.085 1291.7 201.244 1292.42 201.244ZM1303.79 185.545V203H1301.24V185.545H1303.79Z" fill="#AABDC6"/>
<path d="M1204 175H1381V173H1204V175ZM1381 213H1204V215H1381V213ZM1204 213C1193.51 213 1185 204.493 1185 194H1183C1183 205.598 1192.4 215 1204 215V213ZM1400 194C1400 204.493 1391.49 213 1381 213V215C1392.6 215 1402 205.598 1402 194H1400ZM1381 175C1391.49 175 1400 183.507 1400 194H1402C1402 182.402 1392.6 173 1381 173V175ZM1204 173C1192.4 173 1183 182.402 1183 194H1185C1185 183.507 1193.51 175 1204 175V173Z" fill="#AABDC6"/>
<line x1="218" y1="113" x2="1184" y2="113" stroke="#AABDC6" stroke-width="2"/>
<line x1="218" y1="153" x2="1184" y2="153" stroke="#AABDC6" stroke-width="2"/>
<line x1="218" y1="193.25" x2="593" y2="193.25" stroke="#AABDC6" stroke-width="1.5"/>
<line x1="810" y1="193" x2="1184" y2="193" stroke="#AABDC6" stroke-width="2"/>
<path d="M593 194L577 182V206L593 194Z" fill="#AABDC6"/>
<path d="M1184 114L1168 102V126L1184 114Z" fill="#AABDC6"/>
<path d="M1184 154L1168 142V166L1184 154Z" fill="#AABDC6"/>
<path d="M810 194L826 182V206L810 194Z" fill="#AABDC6"/>
<path d="M702 639.883L553.248 566L702 492.117L850.752 566L702 639.883Z" stroke="#AABDC6" stroke-width="2"/>
<path d="M850 566L901 566" stroke="#AABDC6" stroke-width="2"/>
<path d="M702 492L702 459" stroke="#AABDC6" stroke-width="2"/>
<path d="M702 246L702 214" stroke="#AABDC6" stroke-width="2"/>
<path d="M553 566H502" stroke="#AABDC6" stroke-width="2"/>
</svg>
