<svg width="144" height="16" viewBox="0 0 144 16" fill="none" xmlns="http://www.w3.org/2000/svg">
<path fill-rule="evenodd" clip-rule="evenodd" d="M71.0604 0.578438C69.166 0.742601 67.6356 1.63211 67.0139 2.93031C66.714 3.55674 66.6093 4.11466 66.6547 4.84547C66.7543 6.45111 67.7322 7.53292 69.7075 8.22306C70.3157 8.43558 71.64 8.75813 72.872 8.99387C73.4164 9.09801 74.1089 9.27052 74.411 9.37724C74.8738 9.54079 75.0163 9.62601 75.3159 9.91858C75.85 10.44 75.9913 11.0382 75.7737 11.8557C75.5867 12.5578 75.1885 13.0442 74.5377 13.3655C73.8061 13.7267 73.185 13.8528 72.1336 13.8535C70.8522 13.8545 69.9819 13.5487 69.238 12.8362C68.6731 12.2953 68.2704 11.4173 68.2704 10.7267C68.2704 10.59 68.2449 10.4627 68.2136 10.4438C68.1825 10.425 67.7555 10.451 67.2647 10.5016C66.7739 10.5523 66.3303 10.5937 66.2788 10.5937C66.2012 10.5937 66.1924 10.6597 66.2278 10.9777C66.4598 13.0606 67.5832 14.3834 69.7126 15.0812C71.0995 15.5357 73.0265 15.5689 74.4892 15.1635C76.1809 14.6948 77.2093 13.7908 77.6609 12.3754C77.8305 11.8439 77.8632 10.5343 77.7216 9.94598C77.5251 9.13002 77.0128 8.45726 76.2481 8.01103C75.4848 7.56567 74.7074 7.34148 72.5412 6.94206C70.657 6.59463 69.9206 6.34359 69.2408 5.81706C68.777 5.45783 68.6152 5.10235 68.6186 4.44987C68.6218 3.8176 68.7522 3.49173 69.1813 3.04311C69.5128 2.69641 70.2927 2.28969 70.8332 2.18174C71.3214 2.08417 72.4506 2.09898 72.8899 2.20871C74.1229 2.51658 74.9626 3.31971 75.2739 4.4887C75.326 4.68432 75.3686 4.94746 75.3686 5.07353C75.3686 5.1996 75.3931 5.31757 75.4232 5.33569C75.4718 5.36512 77.3106 5.07107 77.3725 5.02401C77.3863 5.01344 77.347 4.74907 77.2853 4.43641C76.8032 1.99626 75.0839 0.703158 72.1336 0.561603C71.8226 0.546674 71.3397 0.554292 71.0604 0.578438ZM0.993835 7.98099V15.2016H1.96749H2.94115V11.9761V8.75057H6.36465H9.78815V11.9761V15.2016H10.7304H11.6726V7.98259V0.763552H10.7304H9.78815V3.92764V7.09173H6.36522H2.94228L2.92601 3.943L2.90974 0.794271L1.95179 0.777314L0.993835 0.760357V7.98099ZM13.7456 0.818601C13.7456 0.850426 14.8763 2.71337 16.2583 4.95833L18.7709 9.04019V12.1209V15.2016H19.7446H20.7182V12.1057V9.00972L23.2349 4.902L25.7515 0.794271L24.6677 0.777437C23.8519 0.76472 23.5656 0.779895 23.51 0.838876C23.4388 0.9142 20.6828 5.78677 20.0518 6.95288C19.8828 7.26511 19.7304 7.51995 19.7132 7.51922C19.6959 7.51848 19.385 6.97942 19.0222 6.32135C18.6594 5.66322 17.8113 4.15042 17.1374 2.95949L15.9122 0.794271L14.8289 0.777437C14.1801 0.767423 13.7456 0.783888 13.7456 0.818601ZM28.1149 0.798879C28.0889 0.824499 28.0678 4.07558 28.0678 8.02357V15.2016H29.0414H30.0151V12.2833V9.36496L31.7268 9.36287C34.6396 9.35937 35.6902 9.19508 36.7268 8.58094C37.3135 8.23338 37.7117 7.81523 37.9961 7.24778C38.314 6.61355 38.4328 6.03677 38.4311 5.13706C38.4265 2.66538 37.2717 1.35453 34.7057 0.907994C34.2451 0.827878 33.5314 0.802197 31.1458 0.780079C29.5047 0.764842 28.1408 0.773321 28.1149 0.798879ZM41.3011 0.804532C41.2781 0.827018 41.2592 4.07558 41.2592 8.02357V15.2016H45.9705H50.6817V14.3727V13.5438L46.9284 13.5279L43.1752 13.5121V11.1467V8.78129L46.5515 8.76538L49.9279 8.74953V7.9206V7.09173H46.5358H43.1437V4.78827V2.48482L46.897 2.46897L50.6503 2.45311L50.6678 1.60833L50.6852 0.763552H46.0141C43.445 0.763552 41.3241 0.781984 41.3011 0.804532ZM53.5713 7.98259V15.2016H54.5135H55.4558V12.2219V9.24208H57.3635C59.8769 9.24208 60.5427 9.35113 61.1352 9.85997C61.6307 10.2854 61.731 10.6597 61.8013 12.3447C61.8617 13.7907 61.9716 14.4121 62.2561 14.9169L62.3993 15.1709L63.4503 15.1877C64.0284 15.197 64.5014 15.1827 64.5014 15.1559C64.5014 15.1292 64.4297 15.0042 64.3421 14.8781C63.916 14.2647 63.7691 13.6082 63.6909 11.9668C63.6246 10.5754 63.5311 10.1771 63.1291 9.57557C62.8733 9.19262 62.4241 8.81957 62.0202 8.65448L61.7798 8.55624L62.1069 8.39232C63.4823 7.70286 64.1891 6.23478 64.0024 4.45527C63.8399 2.90671 63.2628 2.01776 62.0229 1.40657C60.9477 0.876476 59.9386 0.765948 56.1625 0.764535L53.5713 0.763552V7.98259ZM80.5196 7.97638V15.2016H81.4932H82.4669V12.2907V9.37989L84.6184 9.34824C86.8431 9.31556 87.3822 9.26401 88.244 9.00167C89.1757 8.71807 90.0977 7.98972 90.4456 7.26247C90.8708 6.37382 90.9959 5.07845 90.763 3.97489C90.3916 2.21479 89.3061 1.2907 87.1579 0.905967C86.7663 0.835865 85.9162 0.806498 83.5819 0.782536L80.5196 0.75108V7.97638ZM93.2714 7.98259V15.2016H94.245H95.2187V11.9761V8.75057H98.6422H102.066V11.9761V15.2016H103.04H104.013L103.998 7.99795L103.982 0.794271L103.024 0.777314L102.066 0.760357V3.92604V7.09173H98.6422H95.2187V3.92764V0.763552H94.245H93.2714V7.98259ZM107.635 0.804532C107.612 0.827018 107.594 4.07558 107.594 8.02357V15.2016H112.305H117.016V14.3727V13.5438L113.263 13.5279L109.509 13.5121V11.1467V8.78129L112.886 8.76538L116.262 8.74953V7.9206V7.09173H112.87H109.478V4.78827V2.48482L113.231 2.46897L116.985 2.45311L117.002 1.60833L117.02 0.763552H112.348C109.779 0.763552 107.658 0.781984 107.635 0.804532ZM119.906 7.98259V15.2016H120.848H121.79V12.2219V9.24208H123.698C126.211 9.24208 126.877 9.35113 127.469 9.85997C127.965 10.2854 128.065 10.6597 128.136 12.3447C128.196 13.7907 128.306 14.4121 128.59 14.9169L128.734 15.1709L129.785 15.1877C130.363 15.197 130.836 15.1827 130.836 15.1559C130.836 15.1292 130.764 15.0042 130.676 14.8781C130.25 14.2647 130.103 13.6082 130.025 11.9668C129.959 10.5754 129.865 10.1771 129.463 9.57557C129.208 9.19262 128.758 8.81957 128.354 8.65448L128.114 8.55624L128.441 8.39232C129.817 7.70286 130.523 6.23478 130.337 4.45527C130.174 2.90671 129.597 2.01776 128.357 1.40657C127.282 0.876476 126.273 0.765948 122.497 0.764535L119.906 0.763552V7.98259ZM133.725 7.98222V15.2016H138.436H143.148V14.3722V13.5428H139.379H135.61V11.1467V8.75057H139.002H142.394V7.92115V7.09173H139.002H135.61V4.78827V2.48482L139.363 2.46897L143.116 2.45311V1.62369V0.794271L138.421 0.778543L133.725 0.762753V7.98222ZM34.9187 2.59362C35.1454 2.66723 35.4905 2.83919 35.6855 2.97577C35.9749 3.17846 36.0813 3.30576 36.2639 3.66806C36.6812 4.49607 36.7098 5.62949 36.3335 6.42573C36.1501 6.81409 36.0398 6.94458 35.6786 7.20041C35.0408 7.65229 34.2507 7.76755 31.7913 7.76755H30.0151V5.09024V2.41287L32.2608 2.43634C34.3632 2.45834 34.5328 2.46841 34.9187 2.59362ZM60.5114 2.60075C61.3193 2.8634 61.7601 3.27799 61.9819 3.98386C62.2265 4.76228 62.2015 5.6529 61.9166 6.30052C61.7643 6.64679 61.3588 7.02734 60.8985 7.25601C60.3253 7.54078 59.8599 7.5927 57.5758 7.62649L55.4558 7.65788V5.03605V2.41422L57.7643 2.43622C59.9796 2.45729 60.0905 2.46393 60.5114 2.60075ZM86.9322 2.50982C88.3527 2.75766 89.0153 3.59943 89.0165 5.15795C89.0172 6.02995 88.7779 6.66448 88.299 7.06058C88.032 7.28139 87.4236 7.5618 87.0197 7.65014C86.8424 7.68891 85.7891 7.7318 84.587 7.74912L82.4669 7.77972V5.10106V2.42239L84.4613 2.42454C85.8522 2.42602 86.5999 2.45182 86.9322 2.50982ZM126.846 2.60075C127.654 2.8634 128.094 3.27799 128.316 3.98386C128.561 4.76228 128.536 5.6529 128.251 6.30052C128.099 6.64679 127.693 7.02734 127.233 7.25601C126.66 7.54078 126.194 7.5927 123.91 7.62649L121.79 7.65788V5.03605V2.41422L124.099 2.43622C126.314 2.45729 126.425 2.46393 126.846 2.60075Z" fill="#AABDC6"/>
</svg>
