<svg width="1404" height="287" viewBox="0 0 1404 287" fill="none" xmlns="http://www.w3.org/2000/svg">
<mask id="path-1-outside-1_30_14" maskUnits="userSpaceOnUse" x="0" y="0" width="1404" height="287" fill="black">
<rect fill="white" width="1404" height="287"/>
<path d="M2 285H138.117C152.047 285 164.386 282.602 175.132 277.805C185.878 273.408 194.634 267.412 202.196 259.818C209.36 252.223 214.534 243.429 218.514 233.836C222.096 223.843 224.086 213.85 224.086 203.857C224.086 186.27 219.31 171.48 210.156 159.089C206.972 155.492 201.798 151.494 196.226 147.897C190.654 144.299 187.868 138.703 187.868 132.708C187.868 128.311 189.46 123.514 193.042 119.917C196.226 117.119 199.012 113.921 201.4 110.323C208.564 99.5311 212.146 86.3404 212.146 71.1511C212.146 57.161 208.962 45.1695 202.594 35.1766C195.828 25.5833 188.266 17.9887 179.112 12.3926C174.734 9.59463 169.56 7.59604 163.59 6.39688C158.017 5.19772 151.251 3.99859 144.485 3.19914L123.789 2H2V285ZM33.4423 106.726V50.7655C33.4423 41.1723 41.0044 33.5777 50.1585 33.5777H151.649C160.804 33.5777 168.366 41.1723 168.366 50.7655V106.726C168.366 115.919 160.804 123.514 151.649 123.514H50.1585C41.0044 123.514 33.4423 115.919 33.4423 106.726ZM33.4423 236.234V172.28C33.4423 163.086 41.0044 155.492 50.1585 155.492H151.649C160.804 155.492 168.366 163.086 168.366 172.28V236.234C168.366 245.428 160.804 253.023 151.649 253.023H50.1585C41.0044 253.023 33.4423 245.428 33.4423 236.234Z"/>
<path d="M220.28 285H258.489L285.553 212.251C288.339 204.657 295.503 199.86 303.463 199.86H395.8C403.76 199.86 410.924 204.657 413.71 212.251L439.978 285H481.371L371.124 2H329.731L220.28 285ZM308.637 151.894C308.637 150.295 309.035 148.297 309.831 146.298L335.303 76.7472C337.691 69.952 344.059 66.7542 350.029 66.7542C356.397 66.7542 362.368 69.952 365.154 77.1469L388.636 143.1C389.432 145.099 389.432 147.097 389.432 149.096C389.432 159.089 381.87 167.883 371.124 167.883H324.557C315.801 167.883 308.637 160.688 308.637 151.894Z"/>
<path d="M495.416 285H531.236V113.921C531.236 103.528 539.196 97.1328 547.952 97.1328C552.728 97.1328 557.902 99.5311 561.484 104.727L678.896 285H719.89V2H684.468V176.677C684.468 187.069 676.508 193.065 668.149 193.065C663.373 193.065 658.199 190.667 655.015 185.87L535.216 2H495.416V285Z"/>
<path d="M735.835 2L841.704 164.285C843.694 167.483 844.49 171.081 844.49 175.078V285H882.3V174.678C882.3 171.081 883.096 167.483 885.086 164.285L989.761 2H947.175L879.514 112.322C875.932 117.918 870.36 120.716 864.39 120.716C858.818 120.716 852.848 117.918 849.664 112.722L780.411 2H735.835Z"/>
<path d="M902.39 285H940.599L967.663 212.251C970.449 204.657 977.613 199.86 985.573 199.86H1077.91C1085.87 199.86 1093.03 204.657 1095.82 212.251L1122.09 285H1163.48L1053.23 2H1011.84L902.39 285ZM990.747 151.894C990.747 150.295 991.145 148.297 991.941 146.298L1017.41 76.7472C1019.8 69.952 1026.17 66.7542 1032.14 66.7542C1038.51 66.7542 1044.48 69.952 1047.26 77.1469L1070.75 143.1C1071.54 145.099 1071.54 147.097 1071.54 149.096C1071.54 159.089 1063.98 167.883 1053.23 167.883H1006.67C997.911 167.883 990.747 160.688 990.747 151.894Z"/>
<path d="M1177.53 285H1213.35V113.921C1213.35 103.528 1221.31 97.1328 1230.06 97.1328C1234.84 97.1328 1240.01 99.5311 1243.59 104.727L1361.01 285H1402V2H1366.58V176.677C1366.58 187.069 1358.62 193.065 1350.26 193.065C1345.48 193.065 1340.31 190.667 1337.13 185.87L1217.33 2H1177.53V285Z"/>
</mask>
<path d="M2 285H138.117C152.047 285 164.386 282.602 175.132 277.805C185.878 273.408 194.634 267.412 202.196 259.818C209.36 252.223 214.534 243.429 218.514 233.836C222.096 223.843 224.086 213.85 224.086 203.857C224.086 186.27 219.31 171.48 210.156 159.089C206.972 155.492 201.798 151.494 196.226 147.897C190.654 144.299 187.868 138.703 187.868 132.708C187.868 128.311 189.46 123.514 193.042 119.917C196.226 117.119 199.012 113.921 201.4 110.323C208.564 99.5311 212.146 86.3404 212.146 71.1511C212.146 57.161 208.962 45.1695 202.594 35.1766C195.828 25.5833 188.266 17.9887 179.112 12.3926C174.734 9.59463 169.56 7.59604 163.59 6.39688C158.017 5.19772 151.251 3.99859 144.485 3.19914L123.789 2H2V285ZM33.4423 106.726V50.7655C33.4423 41.1723 41.0044 33.5777 50.1585 33.5777H151.649C160.804 33.5777 168.366 41.1723 168.366 50.7655V106.726C168.366 115.919 160.804 123.514 151.649 123.514H50.1585C41.0044 123.514 33.4423 115.919 33.4423 106.726ZM33.4423 236.234V172.28C33.4423 163.086 41.0044 155.492 50.1585 155.492H151.649C160.804 155.492 168.366 163.086 168.366 172.28V236.234C168.366 245.428 160.804 253.023 151.649 253.023H50.1585C41.0044 253.023 33.4423 245.428 33.4423 236.234Z" stroke="#AABDC6" stroke-width="4" mask="url(#path-1-outside-1_30_14)"/>
<path d="M220.28 285H258.489L285.553 212.251C288.339 204.657 295.503 199.86 303.463 199.86H395.8C403.76 199.86 410.924 204.657 413.71 212.251L439.978 285H481.371L371.124 2H329.731L220.28 285ZM308.637 151.894C308.637 150.295 309.035 148.297 309.831 146.298L335.303 76.7472C337.691 69.952 344.059 66.7542 350.029 66.7542C356.397 66.7542 362.368 69.952 365.154 77.1469L388.636 143.1C389.432 145.099 389.432 147.097 389.432 149.096C389.432 159.089 381.87 167.883 371.124 167.883H324.557C315.801 167.883 308.637 160.688 308.637 151.894Z" stroke="#AABDC6" stroke-width="4" mask="url(#path-1-outside-1_30_14)"/>
<path d="M495.416 285H531.236V113.921C531.236 103.528 539.196 97.1328 547.952 97.1328C552.728 97.1328 557.902 99.5311 561.484 104.727L678.896 285H719.89V2H684.468V176.677C684.468 187.069 676.508 193.065 668.149 193.065C663.373 193.065 658.199 190.667 655.015 185.87L535.216 2H495.416V285Z" stroke="#AABDC6" stroke-width="4" mask="url(#path-1-outside-1_30_14)"/>
<path d="M735.835 2L841.704 164.285C843.694 167.483 844.49 171.081 844.49 175.078V285H882.3V174.678C882.3 171.081 883.096 167.483 885.086 164.285L989.761 2H947.175L879.514 112.322C875.932 117.918 870.36 120.716 864.39 120.716C858.818 120.716 852.848 117.918 849.664 112.722L780.411 2H735.835Z" stroke="#AABDC6" stroke-width="4" mask="url(#path-1-outside-1_30_14)"/>
<path d="M902.39 285H940.599L967.663 212.251C970.449 204.657 977.613 199.86 985.573 199.86H1077.91C1085.87 199.86 1093.03 204.657 1095.82 212.251L1122.09 285H1163.48L1053.23 2H1011.84L902.39 285ZM990.747 151.894C990.747 150.295 991.145 148.297 991.941 146.298L1017.41 76.7472C1019.8 69.952 1026.17 66.7542 1032.14 66.7542C1038.51 66.7542 1044.48 69.952 1047.26 77.1469L1070.75 143.1C1071.54 145.099 1071.54 147.097 1071.54 149.096C1071.54 159.089 1063.98 167.883 1053.23 167.883H1006.67C997.911 167.883 990.747 160.688 990.747 151.894Z" stroke="#AABDC6" stroke-width="4" mask="url(#path-1-outside-1_30_14)"/>
<path d="M1177.53 285H1213.35V113.921C1213.35 103.528 1221.31 97.1328 1230.06 97.1328C1234.84 97.1328 1240.01 99.5311 1243.59 104.727L1361.01 285H1402V2H1366.58V176.677C1366.58 187.069 1358.62 193.065 1350.26 193.065C1345.48 193.065 1340.31 190.667 1337.13 185.87L1217.33 2H1177.53V285Z" stroke="#AABDC6" stroke-width="4" mask="url(#path-1-outside-1_30_14)"/>
</svg>
