<svg width="1400" height="283" viewBox="0 0 1400 283" fill="none" xmlns="http://www.w3.org/2000/svg">
<mask id="path-1-inside-1_285_30" fill="white">
<path d="M0 283H136.117C150.047 283 162.386 280.602 173.132 275.805C183.878 271.408 192.634 265.412 200.196 257.818C207.36 250.223 212.534 241.429 216.514 231.836C220.096 221.843 222.086 211.85 222.086 201.857C222.086 184.27 217.31 169.48 208.156 157.089C204.972 153.492 199.798 149.494 194.226 145.897C188.654 142.299 185.868 136.703 185.868 130.708C185.868 126.311 187.46 121.514 191.042 117.917C194.226 115.119 197.012 111.921 199.4 108.323C206.564 97.5311 210.146 84.3404 210.146 69.1511C210.146 55.161 206.962 43.1695 200.594 33.1766C193.828 23.5833 186.266 15.9887 177.112 10.3926C172.734 7.59463 167.56 5.59604 161.59 4.39688C156.017 3.19772 149.251 1.99859 142.485 1.19914L121.789 0H0V283ZM31.4423 104.726V48.7655C31.4423 39.1723 39.0044 31.5777 48.1585 31.5777H149.649C158.804 31.5777 166.366 39.1723 166.366 48.7655V104.726C166.366 113.919 158.804 121.514 149.649 121.514H48.1585C39.0044 121.514 31.4423 113.919 31.4423 104.726ZM31.4423 234.234V170.28C31.4423 161.086 39.0044 153.492 48.1585 153.492H149.649C158.804 153.492 166.366 161.086 166.366 170.28V234.234C166.366 243.428 158.804 251.023 149.649 251.023H48.1585C39.0044 251.023 31.4423 243.428 31.4423 234.234Z"/>
<path d="M218.28 283H256.489L283.553 210.251C286.339 202.657 293.503 197.86 301.463 197.86H393.8C401.76 197.86 408.924 202.657 411.71 210.251L437.978 283H479.371L369.124 0H327.731L218.28 283ZM306.637 149.894C306.637 148.295 307.035 146.297 307.831 144.298L333.303 74.7472C335.691 67.952 342.059 64.7542 348.029 64.7542C354.397 64.7542 360.368 67.952 363.154 75.1469L386.636 141.1C387.432 143.099 387.432 145.097 387.432 147.096C387.432 157.089 379.87 165.883 369.124 165.883H322.557C313.801 165.883 306.637 158.688 306.637 149.894Z"/>
<path d="M493.416 283H529.236V111.921C529.236 101.528 537.196 95.1328 545.952 95.1328C550.728 95.1328 555.902 97.5311 559.484 102.727L676.896 283H717.89V0H682.468V174.677C682.468 185.069 674.508 191.065 666.149 191.065C661.373 191.065 656.199 188.667 653.015 183.87L533.216 0H493.416V283Z"/>
<path d="M733.835 0L839.704 162.285C841.694 165.483 842.49 169.081 842.49 173.078V283H880.3V172.678C880.3 169.081 881.096 165.483 883.086 162.285L987.761 0H945.175L877.514 110.322C873.932 115.918 868.36 118.716 862.39 118.716C856.818 118.716 850.848 115.918 847.664 110.722L778.411 0H733.835Z"/>
<path d="M900.39 283H938.599L965.663 210.251C968.449 202.657 975.613 197.86 983.573 197.86H1075.91C1083.87 197.86 1091.03 202.657 1093.82 210.251L1120.09 283H1161.48L1051.23 0H1009.84L900.39 283ZM988.747 149.894C988.747 148.295 989.145 146.297 989.941 144.298L1015.41 74.7472C1017.8 67.952 1024.17 64.7542 1030.14 64.7542C1036.51 64.7542 1042.48 67.952 1045.26 75.1469L1068.75 141.1C1069.54 143.099 1069.54 145.097 1069.54 147.096C1069.54 157.089 1061.98 165.883 1051.23 165.883H1004.67C995.911 165.883 988.747 158.688 988.747 149.894Z"/>
<path d="M1175.53 283H1211.35V111.921C1211.35 101.528 1219.31 95.1328 1228.06 95.1328C1232.84 95.1328 1238.01 97.5311 1241.59 102.727L1359.01 283H1400V0H1364.58V174.677C1364.58 185.069 1356.62 191.065 1348.26 191.065C1343.48 191.065 1338.31 188.667 1335.13 183.87L1215.33 0H1175.53V283Z"/>
</mask>
<path d="M0 283H136.117C150.047 283 162.386 280.602 173.132 275.805C183.878 271.408 192.634 265.412 200.196 257.818C207.36 250.223 212.534 241.429 216.514 231.836C220.096 221.843 222.086 211.85 222.086 201.857C222.086 184.27 217.31 169.48 208.156 157.089C204.972 153.492 199.798 149.494 194.226 145.897C188.654 142.299 185.868 136.703 185.868 130.708C185.868 126.311 187.46 121.514 191.042 117.917C194.226 115.119 197.012 111.921 199.4 108.323C206.564 97.5311 210.146 84.3404 210.146 69.1511C210.146 55.161 206.962 43.1695 200.594 33.1766C193.828 23.5833 186.266 15.9887 177.112 10.3926C172.734 7.59463 167.56 5.59604 161.59 4.39688C156.017 3.19772 149.251 1.99859 142.485 1.19914L121.789 0H0V283ZM31.4423 104.726V48.7655C31.4423 39.1723 39.0044 31.5777 48.1585 31.5777H149.649C158.804 31.5777 166.366 39.1723 166.366 48.7655V104.726C166.366 113.919 158.804 121.514 149.649 121.514H48.1585C39.0044 121.514 31.4423 113.919 31.4423 104.726ZM31.4423 234.234V170.28C31.4423 161.086 39.0044 153.492 48.1585 153.492H149.649C158.804 153.492 166.366 161.086 166.366 170.28V234.234C166.366 243.428 158.804 251.023 149.649 251.023H48.1585C39.0044 251.023 31.4423 243.428 31.4423 234.234Z" fill="#0B0E12"/>
<path d="M218.28 283H256.489L283.553 210.251C286.339 202.657 293.503 197.86 301.463 197.86H393.8C401.76 197.86 408.924 202.657 411.71 210.251L437.978 283H479.371L369.124 0H327.731L218.28 283ZM306.637 149.894C306.637 148.295 307.035 146.297 307.831 144.298L333.303 74.7472C335.691 67.952 342.059 64.7542 348.029 64.7542C354.397 64.7542 360.368 67.952 363.154 75.1469L386.636 141.1C387.432 143.099 387.432 145.097 387.432 147.096C387.432 157.089 379.87 165.883 369.124 165.883H322.557C313.801 165.883 306.637 158.688 306.637 149.894Z" fill="#0B0E12"/>
<path d="M493.416 283H529.236V111.921C529.236 101.528 537.196 95.1328 545.952 95.1328C550.728 95.1328 555.902 97.5311 559.484 102.727L676.896 283H717.89V0H682.468V174.677C682.468 185.069 674.508 191.065 666.149 191.065C661.373 191.065 656.199 188.667 653.015 183.87L533.216 0H493.416V283Z" fill="#0B0E12"/>
<path d="M733.835 0L839.704 162.285C841.694 165.483 842.49 169.081 842.49 173.078V283H880.3V172.678C880.3 169.081 881.096 165.483 883.086 162.285L987.761 0H945.175L877.514 110.322C873.932 115.918 868.36 118.716 862.39 118.716C856.818 118.716 850.848 115.918 847.664 110.722L778.411 0H733.835Z" fill="#0B0E12"/>
<path d="M900.39 283H938.599L965.663 210.251C968.449 202.657 975.613 197.86 983.573 197.86H1075.91C1083.87 197.86 1091.03 202.657 1093.82 210.251L1120.09 283H1161.48L1051.23 0H1009.84L900.39 283ZM988.747 149.894C988.747 148.295 989.145 146.297 989.941 144.298L1015.41 74.7472C1017.8 67.952 1024.17 64.7542 1030.14 64.7542C1036.51 64.7542 1042.48 67.952 1045.26 75.1469L1068.75 141.1C1069.54 143.099 1069.54 145.097 1069.54 147.096C1069.54 157.089 1061.98 165.883 1051.23 165.883H1004.67C995.911 165.883 988.747 158.688 988.747 149.894Z" fill="#0B0E12"/>
<path d="M1175.53 283H1211.35V111.921C1211.35 101.528 1219.31 95.1328 1228.06 95.1328C1232.84 95.1328 1238.01 97.5311 1241.59 102.727L1359.01 283H1400V0H1364.58V174.677C1364.58 185.069 1356.62 191.065 1348.26 191.065C1343.48 191.065 1338.31 188.667 1335.13 183.87L1215.33 0H1175.53V283Z" fill="#0B0E12"/>
<path d="M0 283H136.117C150.047 283 162.386 280.602 173.132 275.805C183.878 271.408 192.634 265.412 200.196 257.818C207.36 250.223 212.534 241.429 216.514 231.836C220.096 221.843 222.086 211.85 222.086 201.857C222.086 184.27 217.31 169.48 208.156 157.089C204.972 153.492 199.798 149.494 194.226 145.897C188.654 142.299 185.868 136.703 185.868 130.708C185.868 126.311 187.46 121.514 191.042 117.917C194.226 115.119 197.012 111.921 199.4 108.323C206.564 97.5311 210.146 84.3404 210.146 69.1511C210.146 55.161 206.962 43.1695 200.594 33.1766C193.828 23.5833 186.266 15.9887 177.112 10.3926C172.734 7.59463 167.56 5.59604 161.59 4.39688C156.017 3.19772 149.251 1.99859 142.485 1.19914L121.789 0H0V283ZM31.4423 104.726V48.7655C31.4423 39.1723 39.0044 31.5777 48.1585 31.5777H149.649C158.804 31.5777 166.366 39.1723 166.366 48.7655V104.726C166.366 113.919 158.804 121.514 149.649 121.514H48.1585C39.0044 121.514 31.4423 113.919 31.4423 104.726ZM31.4423 234.234V170.28C31.4423 161.086 39.0044 153.492 48.1585 153.492H149.649C158.804 153.492 166.366 161.086 166.366 170.28V234.234C166.366 243.428 158.804 251.023 149.649 251.023H48.1585C39.0044 251.023 31.4423 243.428 31.4423 234.234Z" stroke="#0B0E12" stroke-width="3" mask="url(#path-1-inside-1_285_30)"/>
<path d="M218.28 283H256.489L283.553 210.251C286.339 202.657 293.503 197.86 301.463 197.86H393.8C401.76 197.86 408.924 202.657 411.71 210.251L437.978 283H479.371L369.124 0H327.731L218.28 283ZM306.637 149.894C306.637 148.295 307.035 146.297 307.831 144.298L333.303 74.7472C335.691 67.952 342.059 64.7542 348.029 64.7542C354.397 64.7542 360.368 67.952 363.154 75.1469L386.636 141.1C387.432 143.099 387.432 145.097 387.432 147.096C387.432 157.089 379.87 165.883 369.124 165.883H322.557C313.801 165.883 306.637 158.688 306.637 149.894Z" stroke="#0B0E12" stroke-width="3" mask="url(#path-1-inside-1_285_30)"/>
<path d="M493.416 283H529.236V111.921C529.236 101.528 537.196 95.1328 545.952 95.1328C550.728 95.1328 555.902 97.5311 559.484 102.727L676.896 283H717.89V0H682.468V174.677C682.468 185.069 674.508 191.065 666.149 191.065C661.373 191.065 656.199 188.667 653.015 183.87L533.216 0H493.416V283Z" stroke="#0B0E12" stroke-width="3" mask="url(#path-1-inside-1_285_30)"/>
<path d="M733.835 0L839.704 162.285C841.694 165.483 842.49 169.081 842.49 173.078V283H880.3V172.678C880.3 169.081 881.096 165.483 883.086 162.285L987.761 0H945.175L877.514 110.322C873.932 115.918 868.36 118.716 862.39 118.716C856.818 118.716 850.848 115.918 847.664 110.722L778.411 0H733.835Z" stroke="#0B0E12" stroke-width="3" mask="url(#path-1-inside-1_285_30)"/>
<path d="M900.39 283H938.599L965.663 210.251C968.449 202.657 975.613 197.86 983.573 197.86H1075.91C1083.87 197.86 1091.03 202.657 1093.82 210.251L1120.09 283H1161.48L1051.23 0H1009.84L900.39 283ZM988.747 149.894C988.747 148.295 989.145 146.297 989.941 144.298L1015.41 74.7472C1017.8 67.952 1024.17 64.7542 1030.14 64.7542C1036.51 64.7542 1042.48 67.952 1045.26 75.1469L1068.75 141.1C1069.54 143.099 1069.54 145.097 1069.54 147.096C1069.54 157.089 1061.98 165.883 1051.23 165.883H1004.67C995.911 165.883 988.747 158.688 988.747 149.894Z" stroke="#0B0E12" stroke-width="3" mask="url(#path-1-inside-1_285_30)"/>
<path d="M1175.53 283H1211.35V111.921C1211.35 101.528 1219.31 95.1328 1228.06 95.1328C1232.84 95.1328 1238.01 97.5311 1241.59 102.727L1359.01 283H1400V0H1364.58V174.677C1364.58 185.069 1356.62 191.065 1348.26 191.065C1343.48 191.065 1338.31 188.667 1335.13 183.87L1215.33 0H1175.53V283Z" stroke="#0B0E12" stroke-width="3" mask="url(#path-1-inside-1_285_30)"/>
</svg>
