<svg width="337" height="69" viewBox="0 0 337 69" fill="none" xmlns="http://www.w3.org/2000/svg">
<path d="M1 68H33.5709C36.9042 68 39.8565 67.4322 42.4279 66.2966C44.9993 65.2556 47.0945 63.8362 48.904 62.0381C50.6183 60.2401 51.8564 58.1582 52.8087 55.887C53.6658 53.5212 54.142 51.1554 54.142 48.7895C54.142 44.6257 52.9992 41.1243 50.8088 38.1907C50.0469 37.339 48.8088 36.3927 47.4755 35.541C46.1422 34.6893 45.4755 33.3644 45.4755 31.9449C45.4755 30.904 45.8564 29.7684 46.7136 28.9167C47.4755 28.2542 48.1421 27.4972 48.7135 26.6455C50.4278 24.0904 51.2849 20.9675 51.2849 17.3715C51.2849 14.0593 50.523 11.2203 48.9993 8.85452C47.3802 6.58333 45.5707 4.78531 43.3803 3.46045C42.3327 2.79802 41.0946 2.32486 39.6661 2.04096C38.3328 1.75706 36.7137 1.47316 35.0947 1.28389L30.1424 1H1V68ZM8.52369 25.7938V12.5452C8.52369 10.274 10.3332 8.47599 12.5236 8.47599H36.809C38.9994 8.47599 40.8089 10.274 40.8089 12.5452V25.7938C40.8089 27.9703 38.9994 29.7684 36.809 29.7684H12.5236C10.3332 29.7684 8.52369 27.9703 8.52369 25.7938ZM8.52369 56.4548V41.3136C8.52369 39.137 10.3332 37.339 12.5236 37.339H36.809C38.9994 37.339 40.8089 39.137 40.8089 41.3136V56.4548C40.8089 58.6314 38.9994 60.4294 36.809 60.4294H12.5236C10.3332 60.4294 8.52369 58.6314 8.52369 56.4548Z" stroke="#AABDC6"/>
<path d="M53.2313 68H62.374L68.8501 50.7768C69.5168 48.9788 71.231 47.8432 73.1358 47.8432H95.2307C97.1354 47.8432 98.8497 48.9788 99.5163 50.7768L105.802 68H115.707L89.326 1H79.4214L53.2313 68ZM74.3739 36.4873C74.3739 36.1088 74.4691 35.6356 74.6596 35.1624L80.7547 18.6963C81.3261 17.0876 82.8499 16.3305 84.2785 16.3305C85.8022 16.3305 87.2308 17.0876 87.8975 18.791L93.5164 34.4054C93.7069 34.8785 93.7069 35.3517 93.7069 35.8249C93.7069 38.1907 91.8974 40.2726 89.326 40.2726H78.1833C76.0881 40.2726 74.3739 38.5692 74.3739 36.4873Z" stroke="#AABDC6"/>
<path d="M119.067 68H127.639V27.4972C127.639 25.0367 129.543 23.5226 131.639 23.5226C132.781 23.5226 134.02 24.0904 134.877 25.3206L162.971 68H172.781V1H164.305V42.3545C164.305 44.815 162.4 46.2345 160.4 46.2345C159.257 46.2345 158.019 45.6667 157.257 44.5311L128.591 1H119.067V68Z" stroke="#AABDC6"/>
<path d="M176.596 1L201.929 39.4209C202.405 40.178 202.596 41.0297 202.596 41.976V68H211.643V41.8814C211.643 41.0297 211.834 40.178 212.31 39.4209L237.357 1H227.167L210.977 27.1186C210.12 28.4435 208.786 29.1059 207.358 29.1059C206.024 29.1059 204.596 28.4435 203.834 27.2133L187.263 1H176.596Z" stroke="#AABDC6"/>
<path d="M216.451 68H225.593L232.069 50.7768C232.736 48.9788 234.45 47.8432 236.355 47.8432H258.45C260.355 47.8432 262.069 48.9788 262.736 50.7768L269.021 68H278.926L252.545 1H242.641L216.451 68ZM237.593 36.4873C237.593 36.1088 237.688 35.6356 237.879 35.1624L243.974 18.6963C244.545 17.0876 246.069 16.3305 247.498 16.3305C249.021 16.3305 250.45 17.0876 251.117 18.791L256.736 34.4054C256.926 34.8785 256.926 35.3517 256.926 35.8249C256.926 38.1907 255.117 40.2726 252.545 40.2726H241.402C239.307 40.2726 237.593 38.5692 237.593 36.4873Z" stroke="#AABDC6"/>
<path d="M282.287 68H290.858V27.4972C290.858 25.0367 292.763 23.5226 294.858 23.5226C296.001 23.5226 297.239 24.0904 298.096 25.3206L326.191 68H336V1H327.524V42.3545C327.524 44.815 325.619 46.2345 323.619 46.2345C322.476 46.2345 321.238 45.6667 320.476 44.5311L291.81 1H282.287V68Z" stroke="#AABDC6"/>
</svg>
