<svg width="143" height="44" viewBox="0 0 143 44" fill="none" xmlns="http://www.w3.org/2000/svg">
<path fill-rule="evenodd" clip-rule="evenodd" d="M23.8449 0.0697632C21.6971 0.273235 20.0571 1.19311 18.7609 2.92132C16.7449 5.60917 16.6723 10.4252 18.6062 13.1922C19.4416 14.3876 20.7176 15.2958 22.205 15.7538C23.1484 16.0442 23.859 16.1286 24.978 16.0829C26.8084 16.0082 28.2722 15.4272 29.5787 14.2569C30.6984 13.254 31.6151 11.4839 31.9292 9.71815C32.3131 7.56059 31.7592 4.69935 30.6368 3.04202C29.4933 1.35327 27.624 0.290751 25.4038 0.0674715C24.9836 0.0251956 24.601 -0.00488479 24.5536 0.000658387C24.5061 0.00620157 24.1871 0.0373171 23.8449 0.0697632ZM70.9536 0.178854C68.9116 0.541378 66.8932 1.7308 65.7569 3.2415C64.0978 5.44694 63.7654 8.80581 64.9252 11.6447C66.1334 14.6021 69.7573 16.6414 73.1253 16.2591C74.7077 16.0796 75.7958 15.5733 76.8769 14.5137C77.899 13.512 78.3335 12.6746 78.5116 11.3634C78.6031 10.6903 78.6028 10.6876 78.4225 10.5445C78.2048 10.3717 77.7738 10.4158 77.5873 10.63C77.5218 10.7052 77.4299 11.0314 77.3832 11.3549C77.1578 12.9172 76.3197 14.0936 74.9552 14.763C74.1797 15.1434 73.6655 15.2448 72.7671 15.1947C71.4366 15.1205 70.2606 14.6126 69.4473 13.7609C68.9115 13.1996 68.6046 12.5977 68.3617 11.6313C68.0379 10.3425 67.9785 9.74483 67.9801 7.78801C67.9815 6.17916 68.0038 5.82624 68.1529 5.0584C68.3692 3.94415 68.6776 3.33869 69.3783 2.65185C70.2696 1.77832 71.4641 1.29784 72.7294 1.3039C73.6033 1.30811 74.2377 1.50138 74.9844 1.99088C76.161 2.7622 76.7692 3.74201 77.0663 5.34517C77.2224 6.18707 77.293 6.27288 77.8296 6.27288C78.4369 6.27288 78.4228 6.34228 78.4228 3.34807C78.4228 1.67433 78.3938 0.670128 78.3411 0.522014C78.1817 0.0739034 77.8627 0.144266 77.0204 0.813365C76.2983 1.38712 76.2175 1.39968 75.6253 1.03036C74.2995 0.203613 72.5798 -0.109835 70.9536 0.178854ZM106.362 0.134361C106.279 0.167694 106.154 0.257051 106.085 0.332956C105.958 0.471166 103.625 6.80945 101.944 11.5824C101.452 12.9783 100.976 14.2378 100.885 14.3813C100.669 14.7248 100.23 14.9162 99.6506 14.9196C98.8316 14.9244 98.748 14.9931 98.8295 15.5948L98.8783 15.955H101.387C104.175 15.955 103.987 15.9921 103.987 15.4406C103.987 15.2863 103.939 15.1217 103.882 15.0748C103.824 15.0279 103.508 14.9595 103.179 14.9227C102.85 14.8859 102.496 14.8349 102.392 14.8094L102.203 14.7629L102.657 13.4558C102.907 12.7369 103.164 12.1081 103.228 12.0586C103.4 11.9273 108.085 11.9251 108.189 12.0563C108.229 12.1071 108.399 12.5478 108.568 13.0356C108.737 13.5234 108.961 14.147 109.067 14.4213L109.259 14.9202H108.55C107.808 14.9202 107.504 14.9862 107.435 15.1621C107.412 15.2201 107.427 15.4222 107.468 15.6113L107.543 15.955H111.071H114.599L114.646 15.6151C114.724 15.0594 114.679 15.0311 113.722 15.0311C112.928 15.0311 112.881 15.0224 112.694 14.8401C112.562 14.7113 112.428 14.4109 112.28 13.9163C112.16 13.5132 111.823 12.5348 111.531 11.7421C110.908 10.0479 109.232 5.34406 108.278 2.61438C107.909 1.55748 107.56 0.609596 107.502 0.507971C107.306 0.163555 106.747 -0.0198868 106.362 0.134361ZM0.147705 0.689342V1.24706H1.07864C1.88476 1.24706 2.02631 1.26517 2.13437 1.38224C2.24854 1.50589 2.25917 2.08681 2.25917 8.21883V14.9202H1.20344H0.147705V15.4376V15.955H4.0313H7.91489V15.4376V14.9202H6.83216H5.7495L5.70101 14.4659C5.6744 14.2161 5.6526 12.9574 5.6526 11.6688C5.6526 9.38474 5.65652 9.32258 5.81051 9.186C5.95032 9.06198 6.14774 9.03996 7.52608 8.99406C9.23991 8.937 10.3279 8.83464 10.989 8.66827C12.6031 8.26192 13.7858 7.12468 14.1424 5.6363C14.3218 4.88694 14.2577 3.73573 13.9999 3.07816C13.4601 1.70138 12.3391 0.752831 10.7719 0.346701C10.1546 0.186688 10.0196 0.182105 5.14359 0.157124L0.147705 0.131551V0.689342ZM57.5093 0.40945C57.4816 0.4365 57.459 0.653496 57.459 0.891631C57.459 1.39968 57.4536 1.39606 58.4247 1.54189C58.9386 1.61912 59.043 1.65667 59.0061 1.75112C58.9319 1.9404 55.4834 7.92814 55.3915 8.02703C55.327 8.09658 54.9936 7.60523 53.9886 5.95935C53.2636 4.77201 52.3574 3.3361 51.9747 2.76848C51.5919 2.20086 51.2923 1.72326 51.3086 1.70714C51.3251 1.69111 51.6975 1.64144 52.1364 1.59687L52.9344 1.51572V1.04884V0.58188H49.3524H45.7705V1.06229V1.5427H46.4354C47.1979 1.5427 47.7835 1.68667 48.0086 1.92939C48.1711 2.10463 50.0388 5.19979 51.7001 8.04669L52.6705 9.70965L52.6926 12.0378C52.7048 13.3183 52.6965 14.4375 52.6742 14.5248C52.614 14.7608 52.259 14.8463 51.3396 14.8463H50.5213V15.3267V15.8071H54.2118H57.9021L57.9549 15.4621C58.0375 14.9226 57.9865 14.889 57.0201 14.8463C56.3503 14.8168 56.1551 14.7829 56.0476 14.6774C55.924 14.556 55.9131 14.3492 55.9131 12.1275V9.70965L56.1041 9.3401C56.2092 9.13685 56.7997 8.12245 57.4164 7.08588C58.033 6.0493 58.8603 4.59181 59.2547 3.84703C60.3073 1.85962 60.7053 1.48764 61.8704 1.4022L62.4737 1.35792L62.496 0.859039L62.5183 0.360153H60.0389C58.6752 0.360153 57.5369 0.382325 57.5093 0.40945ZM136.79 0.877516C136.79 1.16207 136.815 1.3968 136.846 1.39916C136.877 1.40146 137.284 1.43028 137.75 1.46317C138.225 1.49665 138.647 1.56339 138.71 1.61476C138.95 1.80958 138.976 2.25126 138.976 6.15344C138.977 9.85687 138.938 10.6385 138.757 10.6319C138.6 10.626 138.03 9.89095 134.949 5.71856C133.058 3.15761 131.426 0.972195 131.321 0.86207C131.216 0.751946 131.004 0.62741 130.85 0.585281C130.683 0.539901 129.58 0.508635 128.137 0.508413L125.705 0.507971V1.03546V1.56302L126.604 1.52666C127.099 1.50671 127.541 1.51284 127.586 1.54018C127.631 1.56761 127.701 1.7039 127.742 1.84307C127.824 2.1217 127.832 13.9939 127.751 14.3581C127.671 14.7144 127.411 14.8392 126.586 14.9154C126.179 14.953 125.797 15.0235 125.737 15.072C125.608 15.1774 125.599 15.4049 125.712 15.7231L125.795 15.9568L128.521 15.9374L131.247 15.918L131.224 15.5115C131.212 15.2879 131.168 15.0722 131.127 15.0321C131.087 14.9921 130.695 14.9422 130.257 14.9213C129.347 14.8778 129.219 14.7992 129.137 14.2334C129.112 14.0624 129.102 11.3948 129.114 8.30538L129.136 2.68829L130.799 4.8686C134.39 9.57476 138.604 15.2525 138.659 15.4599C138.702 15.621 139.267 15.8811 139.575 15.8811C139.691 15.8811 139.846 15.8121 139.926 15.7255C140.065 15.5756 140.071 15.3249 140.108 8.75245C140.148 1.47263 140.13 1.80286 140.504 1.60648C140.584 1.56472 141.011 1.49163 141.453 1.4441L142.257 1.3577L142.279 0.85889L142.302 0.360153H139.546H136.79V0.877516ZM119.992 0.489494L116.354 0.509374V1.03442V1.55955L117.387 1.53265L118.421 1.50574L118.518 1.69052C118.596 1.83804 118.612 3.15251 118.597 8.21099L118.578 14.5466L118.407 14.715C118.251 14.8673 118.146 14.8868 117.291 14.9202C116.17 14.9641 116.118 15.0009 116.25 15.6501L116.297 15.8811H120.171H124.046V15.4771C124.046 14.9366 123.968 14.9007 122.864 14.9324C122.077 14.9549 121.988 14.944 121.89 14.8137C121.8 14.6924 121.783 13.6603 121.783 8.10841V1.54654L122.933 1.52614L124.083 1.50574L124.075 1.08188C124.065 0.6348 123.957 0.422384 123.754 0.451799C123.686 0.461555 121.993 0.478555 119.992 0.489494ZM34.3082 1.02533V1.5427H35.3263H36.3443L36.3432 8.02822C36.3423 13.1041 36.3214 14.5539 36.2468 14.6985C36.1533 14.8798 36.133 14.8836 35.1545 14.9039L34.1574 14.9245V15.4397V15.955H39.8449H45.5323L45.5748 15.7517C45.5982 15.6399 45.6867 14.9165 45.7715 14.1442C45.8562 13.3718 45.9925 12.1489 46.0742 11.4266C46.2763 9.6415 46.3063 9.80891 45.7893 9.83529L45.3557 9.85747L45.348 10.3009C45.3378 10.89 45.0137 12.0009 44.6258 12.7769C43.9308 14.1674 42.837 14.7924 40.9147 14.8975C40.2234 14.9352 40.1349 14.925 39.9639 14.7884L39.7754 14.6377L39.7542 8.09022L39.733 1.5427H41.1305H42.5279V1.02533V0.507971H38.418H34.3082V1.02533ZM80.3081 0.98838V1.46879H81.2453C82.313 1.46879 82.3822 1.49946 82.4566 2.00552C82.482 2.1778 82.4924 5.11968 82.48 8.54299C82.4588 14.3411 82.4482 14.776 82.326 14.8958C82.2193 15.0004 82.0188 15.0301 81.2514 15.0551L80.3081 15.0859V15.5574V16.0289H84.0408H87.7736V15.6734C87.7736 15.1229 87.7146 15.0873 86.7418 15.0515C86.2033 15.0317 85.8557 14.9857 85.7803 14.9244C85.6765 14.84 85.6623 14.4624 85.6633 11.8255C85.6639 10.0649 85.694 8.77691 85.7359 8.71187C85.7963 8.61808 86.2049 8.59532 88.3929 8.56406C89.815 8.54373 91.0502 8.54949 91.1378 8.57684C91.2255 8.60426 91.3184 8.70404 91.3442 8.79857C91.37 8.89317 91.3917 10.3092 91.3922 11.9454L91.3932 14.9202H90.4533C89.2962 14.9202 89.2607 14.9507 89.4826 15.7524C89.5165 15.8746 89.7421 15.8813 93.2272 15.8632L96.9359 15.8441L96.9591 15.4873C96.9949 14.937 96.9421 14.9086 95.9168 14.9274C95.4329 14.9363 94.9977 14.9197 94.9496 14.8906C94.8843 14.8511 94.8621 13.1833 94.8621 8.31513C94.8621 2.80329 94.8787 1.77041 94.969 1.6492C95.0631 1.52289 95.1893 1.50279 96.0247 1.48121L96.9736 1.45674V0.982322V0.507971H93.2408H89.508V0.986386V1.46472L90.5826 1.48527L91.6572 1.50574L91.6769 4.48058L91.6966 7.45542H89.0187C86.4413 7.45542 86.3352 7.44988 86.19 7.3076C86.0448 7.16533 86.0392 7.06127 86.0392 4.51554C86.0392 2.24188 86.0556 1.84824 86.1566 1.707C86.2676 1.55157 86.3269 1.5427 87.25 1.5427H88.2261V1.02533V0.507971H84.2671H80.3081V0.98838ZM7.31161 1.24876C9.50286 1.40464 9.92267 1.57337 10.3432 2.46745C10.5008 2.8027 10.5188 2.96153 10.5413 4.22153C10.5702 5.84635 10.4845 6.52579 10.1844 7.04892C9.76634 7.77781 8.87485 8.00198 6.72598 7.91861L5.6526 7.87692V4.48162V1.08623L5.93539 1.12866C6.09096 1.15194 6.71022 1.20604 7.31161 1.24876ZM25.3313 1.32659C26.3823 1.56398 27.2503 2.35629 27.7435 3.52834C28.0296 4.20838 28.1743 4.80467 28.3497 6.02476C28.7555 8.84905 28.5514 11.2835 27.7803 12.8138C27.3337 13.7001 26.6314 14.6259 26.1865 14.9148C24.986 15.6941 23.4804 15.4435 22.3997 14.2846C21.2239 13.0237 20.8331 11.5738 20.7557 8.18645C20.6905 5.3298 20.8301 4.45213 21.5523 3.17734C22.1188 2.1775 22.8918 1.52134 23.7317 1.32733C24.1256 1.23634 24.9301 1.23597 25.3313 1.32659ZM106.637 6.95653C107.033 8.10493 107.496 9.41867 107.666 9.87594L107.974 10.7074L107.13 10.7071C106.264 10.7069 103.905 10.5785 103.855 10.5289C103.839 10.5136 104.234 9.34188 104.732 7.92504C105.881 4.65553 105.802 4.8686 105.864 4.8686C105.893 4.8686 106.241 5.80814 106.637 6.95653ZM33.3483 27.534C33.2182 27.5958 32.8353 27.8979 32.4976 28.2055L31.8835 28.7647L31.3426 28.522C30.0802 27.9558 29.0826 27.6925 27.8185 27.5919C26.176 27.4613 24.0114 28.0715 22.5897 29.0657C21.3205 29.9533 20.3274 31.2782 19.8411 32.7323C19.4554 33.8853 19.3461 34.6167 19.3493 36.0213C19.352 37.2172 19.3722 37.4248 19.5498 38.0755C20.3774 41.1097 22.3965 43.0751 25.4697 43.8381C26.0308 43.9774 26.3291 44.001 27.5214 44C28.8499 43.9989 28.9453 43.989 29.5197 43.7936C31.1071 43.2536 32.4333 42.1117 33.1388 40.6775C33.616 39.7075 33.8431 38.5187 33.6269 38.1228C33.5129 37.914 33.0162 37.9277 32.7778 38.1462C32.6341 38.2779 32.5792 38.4372 32.514 38.9118C32.3622 40.0177 31.9595 40.8483 31.2122 41.597C30.3648 42.4459 29.3986 42.8575 28.1205 42.9142C26.65 42.9795 25.4882 42.5587 24.4961 41.6014C23.652 40.7869 23.3081 40.0247 22.979 38.2385C22.8493 37.5344 22.8543 34.3412 22.9867 33.2978C23.1828 31.7529 23.6482 30.753 24.6121 29.8055C25.5324 28.9009 26.581 28.5246 28.2183 28.5113C29.1385 28.5038 29.5344 28.5785 30.1214 28.8701C31.0961 29.3541 32.0139 30.7838 32.42 32.4507C32.6836 33.5324 32.8098 33.6931 33.3959 33.6931C34.0316 33.6931 34.0066 33.8164 34.0066 30.6803C34.0066 29.1228 33.9756 27.8579 33.9348 27.7528C33.8267 27.4741 33.6295 27.4005 33.3483 27.534ZM43.8876 27.9837C43.6964 28.1554 43.5028 28.6332 42.6373 31.0694C40.6935 36.54 40.4003 37.3596 39.6153 39.5134C39.182 40.7024 38.7652 41.8165 38.6891 41.9893C38.4521 42.5276 38.3374 42.5838 37.3995 42.6216C36.4114 42.6615 36.3643 42.693 36.4947 43.2258L36.5855 43.5969H39.1043H41.623V43.1209C41.623 42.859 41.5945 42.6275 41.5595 42.6064C41.5247 42.5853 41.1861 42.5276 40.8072 42.4781C40.4282 42.4287 40.075 42.3616 40.0222 42.3292C39.8928 42.2496 40.6838 39.9365 40.922 39.6982C41.0875 39.5326 41.0983 39.5319 43.486 39.5331C44.8046 39.5337 45.9251 39.5601 45.976 39.5917C46.0268 39.6234 46.2358 40.1301 46.4405 40.7177C46.6451 41.3054 46.8834 41.962 46.9702 42.1769C47.0569 42.3919 47.1279 42.5831 47.1279 42.6019C47.1279 42.6208 46.7206 42.6361 46.2229 42.6361H45.318L45.3061 42.9133C45.287 43.3573 45.313 43.4802 45.447 43.5785C45.5434 43.6491 46.358 43.6709 48.9101 43.6709H52.2472L52.3645 43.5065C52.5294 43.2759 52.5131 42.8885 52.3311 42.71C52.2028 42.5842 52.0798 42.5622 51.5058 42.5622C50.9142 42.5622 50.807 42.5417 50.6333 42.3953C50.4702 42.2578 49.9901 40.9865 47.9186 35.2076C45.0841 27.2999 45.3035 27.7804 44.5262 27.7804C44.1814 27.7804 44.0768 27.8137 43.8876 27.9837ZM101.206 28.0791C100.664 28.1982 100.827 27.8168 98.2092 35.0918C96.1261 40.8806 95.6005 42.2762 95.4311 42.4693C95.247 42.6791 94.8309 42.776 94.0945 42.7807C93.559 42.7842 93.3164 42.9077 93.3834 43.1428C93.4025 43.2097 93.4402 43.3725 93.4674 43.5046L93.5167 43.7448H96.0369H98.5572V43.2359V42.727L97.935 42.6421C97.0528 42.5216 96.8981 42.4862 96.8981 42.4039C96.8981 42.266 97.5958 40.2332 97.7372 39.9594C97.8151 39.8083 97.9445 39.6503 98.0246 39.6083C98.2492 39.4905 102.714 39.5056 102.881 39.6248C102.952 39.6758 103.176 40.1996 103.378 40.7888C103.58 41.378 103.817 42.0208 103.904 42.2173C103.991 42.4137 104.062 42.5884 104.062 42.6053C104.062 42.6222 103.638 42.6361 103.119 42.6361H102.177V43.1083V43.5805V43.7448C102.177 43.7448 104.746 43.8187 105.943 43.8187H109.181L109.299 43.6544C109.445 43.4493 109.45 43.0796 109.309 42.8904C109.216 42.7655 109.104 42.7465 108.445 42.7431C107.563 42.7386 107.467 42.6865 107.239 42.0902C107.16 41.8823 106.052 38.8021 104.779 35.2452C103.505 31.6883 102.41 28.6676 102.346 28.5324C102.157 28.1331 101.731 27.9637 101.206 28.0791ZM54.386 28.1885C54.2551 28.2792 54.2163 28.3786 54.2163 28.6231C54.2163 29.1007 54.3363 29.1666 55.26 29.1964C55.9725 29.2195 56.0521 29.2366 56.1838 29.3961C56.3231 29.5649 56.3278 29.7832 56.3278 36.1034V42.6361H55.3626C54.7124 42.6361 54.3678 42.6651 54.3068 42.7248C54.2571 42.7736 54.2163 42.9886 54.2163 43.2026C54.2163 43.5117 54.2464 43.6075 54.3622 43.6683C54.4568 43.7179 55.738 43.7448 58.0028 43.7448C61.9708 43.7448 61.8327 43.7644 61.8327 43.2003C61.8327 42.6687 61.7782 42.6416 60.6639 42.6191L59.6835 42.5992L59.7013 39.7938C59.7175 37.2216 59.73 36.9783 59.8521 36.8658C59.9626 36.764 60.2916 36.7292 61.795 36.6607C63.0165 36.6051 63.8377 36.5306 64.3212 36.4315C66.5542 35.974 67.9409 34.4295 67.9409 32.3997C67.9409 30.7972 66.9949 29.2811 65.5896 28.6315C64.4474 28.1035 64.6545 28.1213 59.3442 28.0947C55.0596 28.0732 54.5378 28.0831 54.386 28.1885ZM69.9015 28.7043V29.1847H70.8298C71.5123 29.1847 71.7967 29.2125 71.9043 29.2896C72.0471 29.3918 72.0512 29.5564 72.0693 35.8859C72.0809 39.9326 72.0607 42.4192 72.0156 42.4883C71.9586 42.5758 71.728 42.6043 70.9224 42.6233L69.9015 42.6476V43.1222V43.5969H73.7851H77.6687V43.1165V42.6361H76.6281C75.9192 42.6361 75.5585 42.6078 75.4969 42.5474C75.4279 42.4798 75.4064 40.912 75.4064 35.9416C75.4064 29.9754 75.4169 29.4159 75.5309 29.323C75.6189 29.2513 75.9501 29.2145 76.662 29.1975L77.6687 29.1732V28.6986V28.2239H73.7851H69.9015V28.7043ZM79.948 28.3162C79.9058 28.3671 79.8478 28.841 79.8192 29.3695C79.7906 29.8979 79.7193 30.8125 79.6607 31.402C79.6022 31.9914 79.5542 32.7441 79.5541 33.0747C79.554 33.7455 79.5703 33.7639 80.1734 33.766C80.5439 33.7673 80.6012 33.6502 80.7298 32.6278C80.9878 30.5769 81.3194 30.0157 82.4572 29.7043C82.9027 29.5824 84.8342 29.3016 84.8747 29.3529C84.882 29.362 84.9067 32.3545 84.9297 36.0028L84.9716 42.6361H83.4693H81.9671V43.1165V43.5969H86.6802H91.3932V43.1181V42.6392L89.8662 42.6192L88.3392 42.5992L88.3199 36.0397L88.3006 29.4803H89.3481C90.7035 29.4803 91.0425 29.5789 91.629 30.1435C92.0787 30.5765 92.3736 31.1721 92.3736 31.6473C92.3736 31.7792 92.4245 32.069 92.4868 32.2912C92.549 32.5135 92.6369 32.8783 92.6822 33.1019C92.7961 33.6642 92.8567 33.7189 93.3079 33.6665C93.5135 33.6427 93.7089 33.5965 93.7422 33.5639C93.8116 33.4959 93.4114 28.4486 93.3259 28.3131C93.2424 28.1806 80.0582 28.1837 79.948 28.3162ZM111.075 28.595C110.939 29.1489 110.984 29.1762 112.08 29.2009C112.97 29.2211 112.996 29.2265 113.089 29.4064C113.164 29.551 113.185 31.0085 113.185 36.1137L113.187 42.6361H112.173H111.16L111.107 42.9811C111.011 43.6099 110.525 43.5578 116.664 43.5777C120.904 43.5913 122.164 43.5747 122.308 43.5032C122.429 43.4427 122.513 43.3191 122.55 43.1443C122.632 42.7552 123.153 38.3035 123.167 37.869L123.178 37.4994L122.821 37.4318C122.315 37.3359 122.211 37.451 122.006 38.3376C121.7 39.66 121.476 40.3741 121.237 40.7856C120.712 41.6908 119.682 42.3859 118.603 42.5644C118.071 42.6522 116.993 42.6282 116.712 42.5222C116.588 42.4754 116.58 42.088 116.58 35.8304V29.1882L117.881 29.168L119.182 29.1477L119.207 28.9328C119.22 28.8146 119.21 28.6067 119.184 28.4709L119.137 28.2239H115.151H111.166L111.075 28.595ZM62.3551 29.0434C64.0834 29.251 64.3583 29.7712 64.308 32.739C64.2767 34.5888 64.2136 34.8621 63.7244 35.2655C63.2874 35.6259 62.1193 35.8325 60.5034 35.8352C59.8844 35.8363 59.7201 35.8134 59.6362 35.7145C59.5088 35.5641 59.4606 32.6357 59.55 30.4801C59.6047 29.1609 59.6175 29.0733 59.7657 29.001C59.953 28.9097 61.4448 28.9341 62.3551 29.0434ZM44.4042 34.7657C44.811 35.9441 45.2641 37.2306 45.4112 37.6246C45.5581 38.0187 45.6596 38.3595 45.6365 38.3822C45.5722 38.4452 41.397 38.4311 41.3949 38.3679C41.3902 38.2229 43.5497 32.5858 43.6033 32.6033C43.637 32.6143 43.9975 33.5874 44.4042 34.7657ZM100.843 33.4056C101.185 34.5048 102.052 36.7064 102.754 38.257C102.787 38.3297 102.335 38.3494 100.631 38.3494C98.5979 38.3494 98.469 38.3415 98.521 38.2201C98.5774 38.0884 100.346 33.0976 100.419 32.8617C100.506 32.5846 100.643 32.7599 100.843 33.4056Z" fill="#AABDC6"/>
</svg>
