<svg width="198" height="44" viewBox="0 0 198 44" fill="none" xmlns="http://www.w3.org/2000/svg">
<path fill-rule="evenodd" clip-rule="evenodd" d="M10.354 0.0980298C10.2226 0.150186 9.29071 0.651389 8.28319 1.21148C7.27566 1.77173 6.20044 2.38336 5.89381 2.57068C5.58717 2.75816 4.914 3.13782 4.39805 3.41442C3.88195 3.69102 3.0052 4.1786 2.44975 4.49795C1.70299 4.92727 1.43888 5.16753 1.43665 5.41985C1.43427 5.69113 1.818 5.98276 3.30531 6.83998C4.33481 7.43327 6.64646 8.7519 8.44248 9.77028C10.2385 10.7887 12.2301 11.9294 12.8684 12.305C13.5067 12.6807 14.0613 12.9882 14.101 12.9882C14.1407 12.9882 14.9445 13.4339 15.8875 13.9788C16.8303 14.5236 18.6397 15.5617 19.9085 16.2854C21.619 17.2614 22.3609 17.6016 22.7796 17.6016C23.1787 17.6016 23.7998 17.3391 24.9021 16.7044C25.7593 16.211 26.4818 15.8074 26.5081 15.8074C26.5342 15.8074 27.6592 15.1797 29.0079 14.4125C30.3566 13.6452 31.6669 12.8478 31.9197 12.6406C32.3208 12.3117 32.3556 12.2199 32.1929 11.9211C32.0903 11.7326 31.9382 11.5785 31.8547 11.5785C31.7713 11.5785 30.9316 11.1318 29.9886 10.5858C29.0458 10.0398 26.3748 8.51148 24.0531 7.18941C21.7314 5.86749 19.3659 4.52975 18.7965 4.21681C18.227 3.90372 16.3904 2.86435 14.7151 1.90706C13.0398 0.949762 11.427 0.129826 11.131 0.084718C10.835 0.0397665 10.4854 0.0457169 10.354 0.0980298ZM34.0004 0.195921C33.7331 0.297101 32.7296 0.829318 31.7703 1.3786C30.8112 1.92789 29.023 2.94454 27.7965 3.63761C26.5699 4.33083 25.4694 4.98365 25.3509 5.08828C25.2323 5.1929 25.178 5.41092 25.2303 5.57256C25.2825 5.7342 25.7736 6.10838 26.3219 6.40393C26.87 6.69964 28.2039 7.45614 29.286 8.0853C30.3682 8.71447 31.2799 9.22914 31.3122 9.22914C31.3444 9.22914 31.9914 9.58969 32.7501 10.0303C33.9959 10.7537 34.2008 10.8241 34.8657 10.7566C35.3976 10.7027 36.0553 10.4153 37.2364 9.72063C38.1355 9.19186 38.8956 8.75926 38.9257 8.75926C38.9558 8.75926 40.0828 8.12352 41.4303 7.3465C42.7777 6.56933 43.9734 5.8418 44.0876 5.72966C44.2016 5.61752 44.2553 5.42518 44.2069 5.30223C44.1585 5.17912 43.9229 4.96721 43.6833 4.8311C43.4437 4.69499 41.85 3.7828 40.1416 2.80405C38.4332 1.8253 36.5779 0.791415 36.0188 0.506356C35.4597 0.221455 34.8862 -0.00643936 34.7445 0.000138912C34.6027 0.00671718 34.2679 0.0947407 34.0004 0.195921ZM0.199115 7.46413C0.0422124 7.51785 0 10.0784 0 19.5583C0 31.2975 0.0074864 31.5937 0.314761 31.9777C0.487752 32.194 1.39476 32.81 2.33028 33.3466C3.26565 33.8832 4.36062 34.5 4.76331 34.7174C5.166 34.9348 6.06903 35.4443 6.76991 35.8497C7.4708 36.255 8.31712 36.7393 8.65067 36.9258C8.98423 37.1124 9.35634 37.2651 9.47756 37.2651C9.59878 37.2651 9.756 37.1771 9.82688 37.0693C9.89777 36.9617 9.99159 34.1257 10.0354 30.7672C10.1092 25.1089 10.1356 24.6571 10.3941 24.608C10.5477 24.5791 11.9455 25.279 13.5003 26.1633C15.0553 27.0478 17.3668 28.3622 18.6372 29.0842C19.9075 29.8063 21.1261 30.4093 21.3451 30.4245L21.7434 30.4519L21.7853 25.1706L21.8273 19.8892L21.387 19.4175C21.1449 19.1579 19.6208 18.1934 18 17.2742C16.3792 16.355 14.7305 15.4276 14.3363 15.2136C13.942 14.9995 12.9743 14.454 12.1858 14.0012C11.3973 13.5484 9.89204 12.6856 8.84071 12.0836C7.78938 11.4817 5.9615 10.4408 4.77876 9.7706C3.59602 9.10024 2.23407 8.33058 1.75221 8.06024C1.27035 7.78991 0.768584 7.52991 0.637168 7.48229C0.505752 7.43468 0.308708 7.42654 0.199115 7.46413ZM43.1664 8.45901C42.0722 9.06923 40.7827 9.80036 40.3009 10.084C39.819 10.3675 38.9947 10.831 38.469 11.1137C37.9434 11.3965 37.2535 11.7884 36.9358 11.9845C36.6182 12.1804 36.206 12.5313 36.0199 12.764C35.6879 13.1788 35.6814 13.3052 35.6814 19.2793C35.6814 24.1389 35.6365 25.4775 35.459 25.895C35.2829 26.3095 34.8768 26.6301 33.5077 27.4359C32.5567 27.9955 31.4204 28.6468 30.9823 28.8831C30.5442 29.1196 29.3257 29.8061 28.2743 30.4088C27.223 31.0114 25.8792 31.7816 25.2882 32.1204C24.6442 32.4894 24.1176 32.9187 23.9741 33.1917C23.7758 33.5687 23.7345 34.4957 23.7345 38.5759C23.7345 41.2866 23.778 43.616 23.8312 43.7522C23.8844 43.8885 24.0515 44 24.2027 44C24.3538 44 25.5109 43.4145 26.7741 42.6991C28.0373 41.9836 31.042 40.28 33.4513 38.9131C35.8606 37.5464 38.6562 35.9625 39.6637 35.3933C40.6712 34.8243 42.3363 33.871 43.3639 33.2751C44.7795 32.454 45.291 32.07 45.4745 31.6897C45.6846 31.2543 45.7168 29.637 45.7168 19.5147C45.7168 9.11183 45.6896 7.81513 45.4666 7.5957C45.3288 7.46037 45.2026 7.34964 45.1861 7.34964C45.1695 7.34964 44.2606 7.8488 43.1664 8.45901ZM139.613 14.8707C139.571 14.9784 139.555 18.4143 139.578 22.5062L139.619 29.9459L141.252 29.9905L142.885 30.0352V22.355V14.6749H141.287C140.156 14.6749 139.667 14.7321 139.613 14.8707ZM174.743 22.3496V30.0242H176.336C177.775 30.0242 177.929 29.9963 177.929 29.7371C177.929 29.5791 177.973 29.4069 178.026 29.3546C178.08 29.3022 178.386 29.4301 178.707 29.6391C179.028 29.848 179.659 30.0876 180.11 30.1716C180.65 30.2723 181.271 30.2703 181.933 30.1653C182.485 30.0778 183.286 29.8196 183.712 29.5918C184.138 29.3637 184.671 28.9624 184.897 28.7001C185.123 28.4377 185.469 27.8706 185.666 27.4399C185.863 27.0092 186.109 26.1458 186.212 25.5212C186.357 24.6482 186.357 24.1232 186.212 23.2501C186.109 22.6255 185.847 21.727 185.631 21.2532C185.415 20.7794 185.046 20.1898 184.81 19.9433C184.574 19.6966 184.13 19.3383 183.823 19.147C183.516 18.9556 182.929 18.7169 182.518 18.6165C182.107 18.5161 181.493 18.4339 181.153 18.4339C180.814 18.4339 180.174 18.5395 179.732 18.6685C179.29 18.7976 178.749 19.0419 178.53 19.2116C178.311 19.3812 178.086 19.4753 178.03 19.4208C177.975 19.3661 177.929 18.276 177.929 16.9981V14.6749H176.336H174.743V22.3496ZM59.7345 22.7411V30.0242H61.4071H63.0796V27.5965V25.1688L64.8717 25.1669C65.8574 25.166 67.0221 25.0712 67.4602 24.9564C67.8982 24.8416 68.4933 24.6274 68.7828 24.4801C69.0722 24.3329 69.5837 23.9423 69.9193 23.6123C70.2701 23.2674 70.6731 22.6352 70.8666 22.1267C71.0973 21.5207 71.2035 20.8787 71.2035 20.0918C71.2035 19.3958 71.103 18.7027 70.949 18.3356C70.809 18.0019 70.5165 17.4974 70.2991 17.2141C70.0817 16.9309 69.6305 16.5295 69.2965 16.3221C68.9623 16.1149 68.2589 15.8357 67.733 15.7016C67.0083 15.5169 65.9252 15.458 63.2558 15.458H59.7345V22.7411ZM94.9041 16.9796L94.8584 18.5122L94.0221 18.5595L93.1858 18.607V19.8517V21.0965H93.9793C94.672 21.0965 94.7829 21.1412 94.853 21.449C94.8971 21.6429 94.9522 23.352 94.9755 25.2471C95.0126 28.2777 95.0526 28.7435 95.3074 29.1128C95.4669 29.3437 95.7895 29.6575 96.0243 29.8103C96.3304 30.0092 96.8672 30.1063 97.9192 30.1528C98.7267 30.1885 99.6405 30.171 99.9502 30.1138L100.513 30.0099V28.7087V27.4076L99.7401 27.4806C99.3113 27.5212 98.8146 27.4736 98.625 27.3738C98.294 27.1996 98.2832 27.1005 98.2832 24.2403C98.2832 21.6914 98.3178 21.2737 98.5352 21.1916C98.6738 21.1393 99.2114 21.0965 99.7299 21.0965H100.673V19.8435V18.5905H99.4836H98.2947L98.2491 17.0634L98.2035 15.5363L96.5767 15.4917L94.9497 15.4472L94.9041 16.9796ZM149.894 22.7411V30.0242H155.15H160.407V28.6146V27.2049H156.823H153.239V21.3315V15.458H151.566H149.894V22.7411ZM31.3805 15.1259C30.5482 15.6087 29.0429 16.4718 28.0354 17.044C27.0279 17.6163 25.928 18.224 25.5911 18.3947C25.2543 18.5653 24.7167 18.926 24.3964 19.196L23.8142 19.6869L23.7675 24.7562C23.7418 27.5443 23.7611 29.9839 23.8103 30.1778C23.8596 30.3717 24.0085 30.5302 24.1413 30.5302C24.2742 30.5302 26.3695 29.4106 28.7976 28.0424C32.4919 25.9607 33.2581 25.4687 33.4921 25.0273C33.7447 24.5512 33.7678 24.0079 33.731 19.4098L33.6903 14.3195L33.292 14.2839C33.0464 14.262 32.3138 14.5846 31.3805 15.1259ZM66.7486 18.5149C67.0056 18.6455 67.3291 18.9678 67.4677 19.2311C67.6061 19.4946 67.7232 19.9745 67.7276 20.2978C67.7322 20.621 67.6238 21.0987 67.4868 21.3594C67.3496 21.62 67.0368 21.9632 66.7913 22.1221C66.4353 22.3527 66.023 22.4128 64.7522 22.4194L63.1593 22.4279L63.1149 20.3526L63.0704 18.2773H64.6759C65.7994 18.2773 66.4216 18.3486 66.7486 18.5149ZM85.0196 18.5945C84.6897 18.6764 84.1162 18.8925 83.7452 19.0751C83.3744 19.2576 82.8008 19.6615 82.4707 19.9729C82.1407 20.2841 81.7337 20.8229 81.5661 21.1702C81.3987 21.5172 81.1915 22.0833 81.1056 22.4279C81.0198 22.7724 80.9051 23.3731 80.8509 23.7625C80.7947 24.1677 80.8538 24.9912 80.9893 25.6874C81.1195 26.3568 81.424 27.262 81.666 27.6991C81.9078 28.1361 82.3946 28.725 82.7476 29.0077C83.1006 29.2904 83.6724 29.637 84.0184 29.778C84.3646 29.9189 85.0992 30.0972 85.6512 30.1741C86.2394 30.256 87.0702 30.256 87.6583 30.1741C88.2102 30.0972 89.0081 29.8837 89.4315 29.6997C89.8547 29.5155 90.5067 29.0644 90.8802 28.697C91.2539 28.3297 91.7092 27.6964 91.8921 27.2898C92.0749 26.8834 92.2876 26.0459 92.3647 25.429C92.4416 24.8122 92.4459 23.8336 92.3741 23.2544C92.3023 22.6752 92.0576 21.8151 91.8306 21.3431C91.5885 20.8398 91.0912 20.1963 90.6283 19.7872C90.194 19.4033 89.4989 18.971 89.0831 18.8266C88.6675 18.682 87.7181 18.5373 86.9735 18.5047C86.2288 18.4721 85.3496 18.5125 85.0196 18.5945ZM105.516 18.6443C105.07 18.7562 104.45 19.0029 104.138 19.1924C103.826 19.3821 103.305 19.8265 102.98 20.1801C102.655 20.5339 102.252 21.1271 102.085 21.4984C101.918 21.87 101.717 22.6745 101.639 23.2866C101.552 23.9666 101.557 24.8225 101.65 25.4868C101.735 26.0848 101.951 26.9014 102.131 27.3016C102.311 27.7018 102.777 28.3427 103.167 28.7259C103.557 29.1092 104.184 29.557 104.561 29.721C104.938 29.885 105.723 30.0854 106.305 30.1666C106.947 30.2558 107.761 30.2584 108.376 30.1727C108.934 30.0952 109.718 29.8934 110.119 29.7244C110.52 29.5554 111.136 29.1338 111.488 28.7875C111.84 28.441 112.279 27.8667 112.464 27.511C112.648 27.1553 112.905 26.3242 113.034 25.6642C113.163 25.004 113.227 24.1821 113.176 23.8375C113.124 23.4929 113.004 22.863 112.908 22.4374C112.811 22.012 112.588 21.4129 112.411 21.1061C112.234 20.7994 111.842 20.2898 111.539 19.9737C111.235 19.6576 110.553 19.2075 110.023 18.9735C109.273 18.6427 108.755 18.536 107.693 18.4944C106.905 18.4634 105.984 18.5268 105.516 18.6443ZM118.274 18.653C117.836 18.7589 117.299 18.9401 117.08 19.0557C116.861 19.1713 116.445 19.4421 116.156 19.6575C115.867 19.873 115.437 20.3726 115.2 20.7681C114.963 21.1634 114.646 21.8748 114.494 22.3489C114.337 22.8359 114.216 23.7116 114.215 24.3616C114.214 24.9943 114.33 25.9106 114.474 26.3977C114.618 26.8848 114.846 27.4595 114.98 27.6748C115.115 27.8902 115.481 28.3367 115.794 28.6672C116.107 28.9977 116.69 29.4328 117.09 29.6339C117.49 29.8352 118.333 30.0702 118.965 30.1562C119.693 30.2555 120.493 30.2599 121.151 30.1683C121.721 30.0889 122.526 29.8544 122.939 29.647C123.352 29.4398 123.876 29.0699 124.102 28.8249C124.328 28.58 124.671 28.1071 124.864 27.774C125.057 27.441 125.258 26.8594 125.31 26.4818L125.406 25.7953H123.831H122.256L121.938 26.4428C121.744 26.8364 121.401 27.2089 121.062 27.3921C120.682 27.5979 120.299 27.6731 119.857 27.6285C119.501 27.5926 119.012 27.4366 118.772 27.2818C118.532 27.1271 118.198 26.7346 118.029 26.4094C117.86 26.0844 117.677 25.4401 117.622 24.9776C117.565 24.5003 117.606 23.7343 117.718 23.2058C117.871 22.4797 118.046 22.1455 118.514 21.6858C119.062 21.1464 119.188 21.0965 119.996 21.0965C120.708 21.0965 120.971 21.1731 121.358 21.4933C121.621 21.7115 121.919 22.1343 122.019 22.433L122.202 22.9761H123.804H125.406L125.308 22.2708C125.254 21.8828 125.071 21.3014 124.901 20.9786C124.732 20.6558 124.319 20.1352 123.983 19.8216C123.647 19.508 123.157 19.1467 122.894 19.0184C122.631 18.8902 122.036 18.7063 121.572 18.6096C121.108 18.513 120.355 18.4399 119.899 18.4472C119.444 18.4546 118.712 18.5472 118.274 18.653ZM130.579 18.604C130.25 18.6801 129.636 18.9143 129.215 19.1243C128.794 19.3342 128.191 19.7865 127.876 20.1295C127.561 20.4725 127.138 21.0948 126.937 21.5122C126.616 22.1798 126.571 22.5171 126.565 24.3107C126.558 26.3076 126.569 26.372 127.083 27.3999C127.427 28.0875 127.84 28.629 128.278 28.969C128.646 29.2545 129.22 29.6096 129.554 29.7581C129.888 29.9066 130.622 30.0925 131.187 30.171C131.814 30.2584 132.623 30.2566 133.27 30.1666C133.852 30.0854 134.627 29.8895 134.991 29.731C135.355 29.5726 135.915 29.2174 136.234 28.9416C136.553 28.6659 136.986 28.1389 137.195 27.7704C137.405 27.402 137.696 26.6337 137.841 26.0633C137.987 25.4929 138.105 24.7234 138.104 24.3534C138.103 23.9836 137.995 23.2381 137.866 22.6971C137.736 22.156 137.492 21.4511 137.324 21.1308C137.155 20.8104 136.707 20.2564 136.327 19.8998C135.948 19.543 135.422 19.1462 135.159 19.0181C134.896 18.89 134.301 18.7063 133.837 18.6096C133.373 18.513 132.584 18.441 132.085 18.4496C131.586 18.4583 130.908 18.5277 130.579 18.604ZM165.265 18.6541C164.827 18.7605 164.247 18.9624 163.975 19.1027C163.703 19.2429 163.258 19.607 162.986 19.9118C162.714 20.2166 162.412 20.7542 162.316 21.1063C162.22 21.4585 162.163 21.8646 162.192 22.0089C162.234 22.2277 162.487 22.2788 163.716 22.3163C165.124 22.3594 165.195 22.3455 165.329 22.0031C165.405 21.8059 165.627 21.5038 165.821 21.3315C166.108 21.0781 166.399 21.0182 167.349 21.0182C168.312 21.0182 168.578 21.0745 168.835 21.3315C169.007 21.5038 169.195 21.8328 169.252 22.0626C169.33 22.3773 169.283 22.5171 169.063 22.6293C168.902 22.7112 168.304 22.8251 167.735 22.8822C167.165 22.9394 166.126 23.0974 165.425 23.2334C164.724 23.3693 163.935 23.5866 163.673 23.7161C163.41 23.8456 162.991 24.1373 162.742 24.3644C162.494 24.5915 162.199 24.9534 162.087 25.1688C161.975 25.3842 161.836 25.8177 161.778 26.1321C161.72 26.4466 161.751 27.0441 161.845 27.4599C161.94 27.8759 162.199 28.4495 162.42 28.7345C162.641 29.0196 163.098 29.424 163.435 29.6333C163.772 29.8425 164.483 30.0826 165.015 30.1669C165.652 30.2678 166.322 30.2665 166.978 30.163C167.526 30.0765 168.274 29.8409 168.642 29.6394L169.31 29.273L169.358 29.6095C169.404 29.9268 169.505 29.9484 171.139 29.9905C172.752 30.0322 172.861 30.0161 172.739 29.7556C172.667 29.6018 172.569 27.5378 172.521 25.1688C172.448 21.5761 172.39 20.7836 172.171 20.3914C172.027 20.1327 171.776 19.8061 171.614 19.6656C171.451 19.5251 171.032 19.2697 170.681 19.098C170.331 18.9262 169.664 18.7066 169.2 18.6098C168.736 18.513 167.84 18.4399 167.209 18.4472C166.578 18.4546 165.704 18.5476 165.265 18.6541ZM190.752 18.6541C190.314 18.7605 189.73 18.9639 189.455 19.106C189.18 19.2482 188.737 19.5779 188.472 19.8388C188.206 20.0996 187.904 20.5668 187.8 20.877C187.696 21.1871 187.64 21.8834 187.675 22.4246C187.725 23.198 187.833 23.5299 188.179 23.9767C188.422 24.2894 188.903 24.6872 189.249 24.8607C189.595 25.0344 190.567 25.3157 191.408 25.4858C192.249 25.6561 193.135 25.7953 193.377 25.7953C193.618 25.7953 194.004 25.9414 194.235 26.12C194.469 26.3004 194.655 26.6026 194.655 26.8005C194.655 26.9962 194.505 27.2897 194.322 27.4524C194.078 27.6696 193.686 27.7635 192.849 27.8047C191.859 27.8535 191.648 27.8147 191.258 27.5124C191.011 27.3207 190.743 26.9968 190.665 26.7929C190.527 26.4383 190.454 26.4218 188.999 26.4218C187.776 26.4218 187.458 26.4693 187.383 26.6627C187.331 26.7951 187.412 27.2208 187.563 27.6086C187.713 27.9964 188.003 28.5079 188.206 28.7455C188.409 28.983 188.922 29.362 189.345 29.5878C189.818 29.84 190.588 30.0629 191.339 30.165C192.177 30.279 192.963 30.282 193.835 30.1744C194.535 30.0881 195.418 29.8823 195.797 29.7172C196.176 29.552 196.716 29.1834 196.996 28.8982C197.277 28.613 197.617 28.1176 197.753 27.7973C197.889 27.477 198 26.8474 198 26.398C198 25.8857 197.874 25.3251 197.662 24.8952C197.465 24.4938 197.085 24.0612 196.746 23.8519C196.428 23.6553 195.81 23.3836 195.372 23.2478C194.934 23.1122 194.217 22.9573 193.779 22.9037C193.341 22.85 192.607 22.7276 192.148 22.6318C191.69 22.5358 191.199 22.3323 191.059 22.1798C190.899 22.0064 190.843 21.7796 190.908 21.576C190.966 21.3965 191.22 21.1448 191.472 21.0165C191.725 20.8882 192.239 20.7836 192.616 20.7839C193.011 20.7842 193.514 20.9122 193.804 21.0864C194.081 21.2524 194.355 21.534 194.412 21.7122C194.508 22.0095 194.64 22.0363 196.01 22.0363C196.831 22.0363 197.547 21.9674 197.6 21.8833C197.652 21.7992 197.618 21.4458 197.523 21.0981C197.427 20.7504 197.126 20.216 196.854 19.9106C196.581 19.6052 196.1 19.2271 195.785 19.0704C195.47 18.9138 194.832 18.7066 194.368 18.6098C193.904 18.513 193.08 18.4399 192.536 18.4472C191.993 18.4546 191.19 18.5476 190.752 18.6541ZM72.9558 24.3129V30.0352L74.5885 29.9905L76.2212 29.9459L76.3009 26.3949C76.3783 22.9432 76.3909 22.8331 76.752 22.4554C76.9564 22.2418 77.4362 21.9896 77.8181 21.895C78.2001 21.8004 78.8394 21.723 79.2387 21.723H79.9646V20.1568V18.5905L79.208 18.5915C78.7919 18.5919 78.1847 18.6651 77.8589 18.7541C77.5332 18.843 77.0569 19.0894 76.8006 19.3013C76.5443 19.5134 76.2912 19.6869 76.2381 19.6869C76.1851 19.6869 76.1416 19.4402 76.1416 19.1387V18.5905H74.5487H72.9558V24.3129ZM87.8816 21.4035C88.1621 21.5716 88.5054 21.9256 88.6444 22.1899C88.7835 22.4543 88.9705 23.0602 89.06 23.5361C89.1763 24.1547 89.1699 24.6568 89.0377 25.2944C88.9359 25.7853 88.7155 26.4085 88.5477 26.6793C88.38 26.95 88.0001 27.2848 87.7035 27.4233C87.4069 27.5616 86.9386 27.6748 86.6627 27.6748C86.3869 27.6748 85.9318 27.5583 85.6513 27.4158C85.371 27.2734 85.0508 27.0442 84.9398 26.9067C84.8289 26.7692 84.6249 26.4101 84.4866 26.1086C84.3311 25.7698 84.2328 25.108 84.2293 24.3766C84.2252 23.5116 84.3122 22.9959 84.5522 22.462C84.7566 22.0079 85.0811 21.6115 85.4095 21.4145C85.7334 21.2204 86.2157 21.0976 86.6549 21.0976C87.0854 21.0976 87.5753 21.2198 87.8816 21.4035ZM108.608 21.4145C108.937 21.6115 109.261 22.0079 109.465 22.462C109.706 22.9959 109.793 23.5116 109.788 24.3766C109.785 25.108 109.687 25.7698 109.531 26.1086C109.393 26.4101 109.189 26.7692 109.078 26.9067C108.967 27.0442 108.647 27.2734 108.366 27.4158C108.086 27.5583 107.631 27.6748 107.355 27.6748C107.079 27.6748 106.611 27.5616 106.314 27.4233C106.018 27.2848 105.638 26.95 105.47 26.6793C105.302 26.4085 105.08 25.7784 104.977 25.2792C104.873 24.7801 104.837 24.0752 104.897 23.713C104.956 23.3507 105.137 22.7568 105.297 22.3929C105.471 21.9986 105.802 21.6034 106.117 21.4145C106.441 21.2204 106.924 21.0976 107.363 21.0976C107.802 21.0976 108.284 21.2204 108.608 21.4145ZM133.737 21.5763C133.965 21.7862 134.265 22.2047 134.404 22.5062C134.569 22.8647 134.658 23.5181 134.662 24.3952C134.667 25.5717 134.615 25.8238 134.242 26.4502C133.983 26.8845 133.602 27.2641 133.269 27.4195C132.968 27.5599 132.474 27.6748 132.172 27.6748C131.864 27.6748 131.391 27.5198 131.096 27.3224C130.806 27.1285 130.419 26.7711 130.236 26.5278C129.947 26.144 129.903 25.8649 129.903 24.4117C129.903 22.9793 129.951 22.6628 130.238 22.2172C130.422 21.9307 130.781 21.5577 131.034 21.3882C131.395 21.1473 131.696 21.0923 132.409 21.1371C133.107 21.181 133.421 21.285 133.737 21.5763ZM181.723 21.4145C182.05 21.6101 182.382 22.0144 182.592 22.4713C182.845 23.0226 182.929 23.5101 182.923 24.3857C182.919 25.1311 182.821 25.7607 182.655 26.1086C182.512 26.4101 182.304 26.7692 182.193 26.9067C182.082 27.0442 181.762 27.2734 181.481 27.4158C181.201 27.5583 180.71 27.6748 180.39 27.6748C180.071 27.6748 179.58 27.568 179.3 27.4374C179.02 27.3067 178.675 27.0068 178.534 26.7709C178.392 26.5351 178.196 25.9086 178.098 25.3787C178.001 24.8488 177.965 24.1091 178.019 23.7347C178.073 23.3606 178.191 22.8077 178.282 22.5062C178.373 22.2047 178.564 21.8263 178.706 21.6654C178.848 21.5046 179.108 21.3152 179.283 21.2446C179.458 21.1741 179.96 21.1122 180.398 21.107C180.931 21.1008 181.37 21.2027 181.723 21.4145ZM169.255 25.0233C169.313 25.1156 169.312 25.5062 169.253 25.8913C169.186 26.3365 168.975 26.7836 168.676 27.1183C168.347 27.4875 167.971 27.7007 167.419 27.8308C166.815 27.9732 166.5 27.9735 166.065 27.8325C165.701 27.7143 165.408 27.4767 165.245 27.1667C165.013 26.7257 165.014 26.6401 165.247 26.1582C165.388 25.8686 165.67 25.569 165.875 25.4926C166.079 25.4161 166.85 25.2481 167.588 25.1192C168.326 24.9903 168.979 24.8781 169.039 24.8701C169.1 24.8621 169.197 24.9311 169.255 25.0233ZM11.9788 27.8989C11.8381 28.0372 11.7876 29.3944 11.7876 33.0309C11.7876 37.4789 11.8161 38.0271 12.0723 38.4966C12.2934 38.9021 12.9054 39.3319 14.8201 40.4264C16.1748 41.2008 18.1403 42.3246 19.1878 42.9238C20.2457 43.5289 21.2371 43.993 21.4179 43.9674C21.7372 43.9226 21.7442 43.8229 21.7854 38.7886C21.8209 34.4502 21.79 33.5844 21.5858 33.1961C21.4267 32.8935 20.8418 32.4471 19.8712 31.8877C19.061 31.4206 17.5381 30.5473 16.4867 29.9469C15.4354 29.3467 14.1024 28.5979 13.5245 28.2833C12.9466 27.9684 12.4055 27.7109 12.3219 27.7109C12.2382 27.7109 12.0839 27.7955 11.9788 27.8989Z" fill="#AABDC6"/>
</svg>
